<?xml version="1.0" standalone="no"?>
<!DOCTYPE svg PUBLIC "-//W3C//DTD SVG 1.1//EN" "http://www.w3.org/Graphics/SVG/1.1/DTD/svg11.dtd" >
<svg xmlns="http://www.w3.org/2000/svg" xmlns:xlink="http://www.w3.org/1999/xlink" version="1.1">
<metadata>
Created by FontForge 20170731 at Fri Sep 24 19:12:37 2021
 By Aleksey,,,
Anonymous
</metadata>
<defs>
<font id="CerebellumMonospaced" horiz-adv-x="896" >
  <font-face 
    font-family="Cerebellum"
    font-weight="500"
    font-stretch="normal"
    units-per-em="2048"
    panose-1="2 0 6 9 0 0 0 0 0 0"
    ascent="1536"
    descent="-512"
    x-height="768"
    cap-height="1024"
    bbox="-128 -512 1664 1536"
    underline-thickness="102"
    underline-position="-458"
    unicode-range="U+0020-F8FF"
  />
<missing-glyph 
d="M68 0h544v1364h-544v-1364zM136 68v1228h408v-1228h-408z" />
    <glyph glyph-name=".notdef" 
d="M68 0h544v1364h-544v-1364zM136 68v1228h408v-1228h-408z" />
    <glyph glyph-name=".null" horiz-adv-x="0" 
 />
    <glyph glyph-name="nonmarkingreturn" 
 />
    <glyph glyph-name="space" unicode=" " 
 />
    <glyph glyph-name="exclam" unicode="!" 
d="M256 384h128v640h-128v-640zM256 0h128v128h-128v-128z" />
    <glyph glyph-name="quotedbl" unicode="&#x22;" 
d="M512 768h128v256h-128v-256zM256 768h128v256h-128v-256z" />
    <glyph glyph-name="numbersign" unicode="#" 
d="M384 0h128v256h256v128h-128v256h256v128h-128v256h-128v-256h-128v256h-128v-256h-256v-128h128v-256h-256v-128h128v-256h128v256h128v-256zM512 384h-128v256h128v-256z" />
    <glyph glyph-name="dollar" unicode="$" 
d="M256 128v-128h128v-128h128v128h128v128h-128v256h128v-256h128v256h-128v128h-128v384h128v-128h128v128h-128v128h-128v128h-128v-128h-128v-128h-128v-256h128v-128h128v-384h-128v128h-128v-128h128zM384 640h-128v256h128v-256z" />
    <glyph glyph-name="percent" unicode="%" 
d="M384 896v128h-256v-128h256zM512 640v256h-128v-256h128zM128 640v256h-128v-256h128zM768 768h128v128h-128v-128zM640 640h128v128h-128v-128zM640 512v128h-128v-128h128zM384 512v128h-256v-128h256zM896 384v128h-256v-128h256zM512 384v128h-128v-128h128zM896 128
h128v256h-128v-256zM640 128v256h-128v-256h128zM256 256h128v128h-128v-128zM128 128h128v128h-128v-128zM640 128v-128h256v128h-256z" />
    <glyph glyph-name="ampersand" unicode="&#x26;" 
d="M640 896v128h-384v-128h384zM640 640h128v256h-128v-256zM256 640v256h-128v-256h128zM256 640v-128h384v128h-384zM768 128v128h128v128h-128v128h-128v-384h128zM256 128v384h-128v-384h128zM896 384h128v128h-128v-128zM768 0h128v128h-128v-128zM256 128v-128h384
v128h-384z" />
    <glyph glyph-name="quotesingle" unicode="'" 
d="M256 768h128v384h-256v-256h128v-128zM128 640h128v128h-128v-128z" />
    <glyph glyph-name="parenleft" unicode="(" 
d="M512 1024h128v128h-128v-128zM512 -128v1152h-128v-1152h128zM512 -256h128v128h-128v-128z" />
    <glyph glyph-name="parenright" unicode=")" 
d="M384 1024v128h-128v-128h128zM384 -128h128v1152h-128v-1152zM256 -256h128v128h-128v-128z" />
    <glyph glyph-name="asterisk" unicode="*" 
d="M256 512h128v256h128v-128h128v128h-128v128h-128v256h-128v-256h-128v128h-128v-128h128v-128h-128v-128h128v128h128v-256zM512 896h128v128h-128v-128z" />
    <glyph glyph-name="plus" unicode="+" 
d="M384 128h128v256h256v128h-256v256h-128v-256h-256v-128h256v-256z" />
    <glyph glyph-name="comma" unicode="," 
d="M256 -128h128v384h-256v-256h128v-128zM128 -256h128v128h-128v-128z" />
    <glyph glyph-name="hyphen" unicode="-" 
d="M768 512h-640v-128h640v128z" />
    <glyph glyph-name="period" unicode="." 
d="M384 256h-256v-256h256v256z" />
    <glyph glyph-name="slash" unicode="/" 
d="M640 1024h128v128h-128v-128zM512 768h128v256h-128v-256zM384 512h128v256h-128v-256zM256 256h128v256h-128v-256zM128 0h128v256h-128v-256zM0 -128h128v128h-128v-128z" />
    <glyph glyph-name="zero" unicode="0" 
d="M640 896v128h-384v-128h384zM640 128h128v768h-128v-768zM256 128v768h-128v-768h128zM256 128v-128h384v128h-384z" />
    <glyph glyph-name="one" unicode="1" 
d="M768 128h-256v896h-128v-128h-128v-128h128v-640h-256v-128h640v128zM128 640h128v128h-128v-128z" />
    <glyph glyph-name="two" unicode="2" 
d="M640 896v128h-384v-128h384zM128 640h128v256h-128v-256zM640 640h128v256h-128v-256zM512 512h128v128h-128v-128zM384 384h128v128h-128v-128zM256 256h128v128h-128v-128zM768 128h-512v128h-128v-256h640v128z" />
    <glyph glyph-name="three" unicode="3" 
d="M640 896v128h-384v-128h384zM128 768h128v128h-128v-128zM640 640h128v256h-128v-256zM640 512v128h-256v-128h256zM640 128h128v384h-128v-384zM256 128v128h-128v-128h128zM640 128h-384v-128h384v128z" />
    <glyph glyph-name="four" unicode="4" 
d="M512 0h128v256h128v128h-128v640h-128v-128h-128v-128h-128v-256h-128v-256h384v-256zM256 384v128h128v256h128v-384h-256z" />
    <glyph glyph-name="five" unicode="5" 
d="M640 512v128h-384v256h512v128h-640v-512h512zM640 128h128v384h-128v-384zM256 128v128h-128v-128h128zM640 128h-384v-128h384v128z" />
    <glyph glyph-name="six" unicode="6" 
d="M640 896v128h-384v-128h384zM640 768h128v128h-128v-128zM256 128v384h384v128h-384v256h-128v-768h128zM640 128h128v384h-128v-384zM256 128v-128h384v128h-384z" />
    <glyph glyph-name="seven" unicode="7" 
d="M640 768h128v256h-640v-128h512v-128zM512 512h128v256h-128v-256zM384 384h128v128h-128v-128zM256 128h128v256h-128v-256zM128 0h128v128h-128v-128z" />
    <glyph glyph-name="eight" unicode="8" 
d="M640 896v128h-384v-128h384zM640 640h128v256h-128v-256zM256 640v256h-128v-256h128zM256 640v-128h384v128h-384zM640 128h128v384h-128v-384zM256 128v384h-128v-384h128zM256 128v-128h384v128h-384z" />
    <glyph glyph-name="nine" unicode="9" 
d="M640 896v128h-384v-128h384zM256 512v-128h384v-256h128v768h-128v-384h-384v384h-128v-384h128zM256 128v128h-128v-128h128zM640 128h-384v-128h384v128z" />
    <glyph glyph-name="colon" unicode=":" 
d="M512 768h-256v-256h256v256zM512 384h-256v-256h256v256z" />
    <glyph glyph-name="semicolon" unicode=";" 
d="M384 640h-256v-256h256v256zM256 -128h128v384h-256v-256h128v-128zM128 -256h128v128h-128v-128z" />
    <glyph glyph-name="less" unicode="&#x3c;" 
d="M768 768h128v128h-128v-128zM768 768h-256v-128h256v128zM512 640h-256v-128h256v128zM256 384v128h-128v-128h128zM512 256v128h-256v-128h256zM512 256v-128h256v128h-256zM768 0h128v128h-128v-128z" />
    <glyph glyph-name="equal" unicode="=" 
d="M768 640h-640v-128h640v128zM768 384h-640v-128h640v128z" />
    <glyph glyph-name="greater" unicode="&#x3e;" 
d="M256 768v128h-128v-128h128zM512 640v128h-256v-128h256zM512 640v-128h256v128h-256zM640 256h256v256h-128v-128h-128v-128zM640 256h-256v-128h256v128zM384 128h-256v-128h256v128z" />
    <glyph glyph-name="question" unicode="?" 
d="M512 896v128h-256v-128h256zM128 768h128v128h-128v-128zM512 640h128v256h-128v-256zM384 512h128v128h-128v-128zM256 256h128v256h-128v-256zM256 0h128v128h-128v-128z" />
    <glyph glyph-name="at" unicode="@" 
d="M640 768v128h-384v-128h384zM768 640v128h-128v-128h128zM128 640h128v128h-128v-128zM384 384v128h-128v-128h128v-128h256v-128h256v512h-128v-384h-128v256h-128v-128h-128zM128 256v384h-128v-384h128zM512 512v128h-128v-128h128zM256 128v128h-128v-128h128z
M640 128h-384v-128h384v128z" />
    <glyph glyph-name="A" unicode="A" 
d="M512 768v256h-256v-256h256zM640 0h128v384h-128v384h-128v-384h-256v384h-128v-384h-128v-384h128v256h512v-256z" />
    <glyph glyph-name="B" unicode="B" 
d="M896 512h-128v384h-128v-256h-384v256h384v128h-512v-1024h640v128h-512v384h512v-384h128v384z" />
    <glyph glyph-name="C" unicode="C" 
d="M640 896v128h-384v-128h384zM640 768h128v128h-128v-128zM128 768h128v128h-128v-128zM128 256v512h-128v-512h128zM640 128h128v128h-128v-128zM256 128v128h-128v-128h128zM640 128h-384v-128h384v128z" />
    <glyph glyph-name="D" unicode="D" 
d="M768 256h128v512h-128v128h-128v128h-512v-1024h512v128h-384v768h384v-128h128v-512h-128v-128h128v128z" />
    <glyph glyph-name="E" unicode="E" 
d="M768 128h-512v384h384v128h-384v256h512v128h-640v-1024h640v128z" />
    <glyph glyph-name="F" unicode="F" 
d="M128 0h128v512h384v128h-384v256h512v128h-640v-1024z" />
    <glyph glyph-name="G" unicode="G" 
d="M768 896v128h-512v-128h512zM768 768h128v128h-128v-128zM128 768h128v128h-128v-128zM128 256v512h-128v-512h128zM768 128h128v384h-384v-128h256v-256zM256 128v128h-128v-128h128zM768 128h-512v-128h512v128z" />
    <glyph glyph-name="H" unicode="H" 
d="M768 0h128v1024h-128v-384h-512v384h-128v-1024h128v512h512v-512z" />
    <glyph glyph-name="I" unicode="I" 
d="M768 128h-256v768h256v128h-640v-128h256v-768h-256v-128h640v128z" />
    <glyph glyph-name="J" unicode="J" 
d="M512 128h128v768h128v128h-512v-128h256v-768zM256 128v128h-128v-128h128zM512 128h-256v-128h256v128z" />
    <glyph glyph-name="K" unicode="K" 
d="M128 0h128v512h128v-128h128v-128h128v-128h128v128h-128v128h-128v128h-128v128h-128v384h-128v-1024zM640 896h128v128h-128v-128zM512 768h128v128h-128v-128zM384 640h128v128h-128v-128zM768 0h128v128h-128v-128z" />
    <glyph glyph-name="L" unicode="L" 
d="M768 128h-512v896h-128v-1024h640v128z" />
    <glyph glyph-name="M" unicode="M" 
d="M0 0h128v768h128v-256h128v-128h128v128h128v256h128v-768h128v1024h-128v-128h-128v-128h-128v-256h-128v256h-128v128h-128v128h-128v-1024z" />
    <glyph glyph-name="N" unicode="N" 
d="M0 0h128v768h128v-256h128v-256h128v-128h128v-128h128v1024h-128v-768h-128v256h-128v256h-128v128h-128v128h-128v-1024z" />
    <glyph glyph-name="O" unicode="O" 
d="M640 896v128h-384v-128h384zM768 768v128h-128v-128h128zM128 768h128v128h-128v-128zM768 256h128v512h-128v-512zM128 256v512h-128v-512h128zM640 128h128v128h-128v-128zM256 128v128h-128v-128h128zM640 128h-384v-128h384v128z" />
    <glyph glyph-name="P" unicode="P" 
d="M128 0h128v384h512v128h-512v384h512v-384h128v384h-128v128h-640v-1024z" />
    <glyph glyph-name="Q" unicode="Q" 
d="M640 896v128h-384v-128h384zM768 768v128h-128v-128h128zM128 768h128v128h-128v-128zM768 256h128v512h-128v-512zM128 256v512h-128v-512h128zM640 256v128h-128v-128h128zM768 128v128h-128v-128h128zM256 128v128h-128v-128h128zM768 0h128v128h-128v-128zM640 128
h-384v-128h384v128z" />
    <glyph glyph-name="R" unicode="R" 
d="M128 0h128v384h256v-128h128v-128h128v128h-128v256h-384v384h384v-384h128v384h-128v128h-512v-1024zM768 0h128v128h-128v-128z" />
    <glyph glyph-name="S" unicode="S" 
d="M640 896v128h-384v-128h384zM640 768h128v128h-128v-128zM256 640v256h-128v-256h128zM256 640v-128h256v128h-256zM640 384v128h-128v-128h128zM640 128h128v256h-128v-256zM256 128v128h-128v-128h128zM640 128h-384v-128h384v128z" />
    <glyph glyph-name="T" unicode="T" 
d="M384 0h128v896h384v128h-896v-128h384v-896z" />
    <glyph glyph-name="U" unicode="U" 
d="M640 128h128v896h-128v-896zM256 128v896h-128v-896h128zM256 128v-128h384v128h-384z" />
    <glyph glyph-name="V" unicode="V" 
d="M640 640h128v384h-128v-384zM128 640v384h-128v-384h128zM512 256h128v384h-128v-384zM256 256v384h-128v-384h128zM256 256v-256h256v256h-256z" />
    <glyph glyph-name="W" unicode="W" 
d="M768 512h128v512h-128v-512zM128 512v512h-128v-512h128zM512 256v-128h128v-128h128v512h-128v-256h-128v384h-128v-384h128zM128 0h128v128h128v128h-128v256h-128v-512z" />
    <glyph glyph-name="X" unicode="X" 
d="M640 768h128v256h-128v-256zM128 768v256h-128v-256h128zM512 640h128v128h-128v-128zM256 640v128h-128v-128h128zM512 384v256h-256v-256h256zM640 256v128h-128v-128h128zM128 256h128v128h-128v-128zM640 0h128v256h-128v-256zM0 0h128v256h-128v-256z" />
    <glyph glyph-name="Y" unicode="Y" 
d="M768 896h128v128h-128v-128zM128 896v128h-128v-128h128zM640 640h128v256h-128v-256zM256 640v256h-128v-256h128zM512 512h128v128h-128v-128zM384 512v128h-128v-128h128zM384 0h128v512h-128v-512z" />
    <glyph glyph-name="Z" unicode="Z" 
d="M640 768h128v256h-768v-128h640v-128zM512 640h128v128h-128v-128zM384 512h128v128h-128v-128zM256 384h128v128h-128v-128zM128 256h128v128h-128v-128zM768 128h-640v128h-128v-256h768v128z" />
    <glyph glyph-name="bracketleft" unicode="[" 
d="M768 -128h-128v1152h128v128h-256v-1408h256v128z" />
    <glyph glyph-name="backslash" unicode="\" 
d="M128 1024v128h-128v-128h128zM256 768v256h-128v-256h128zM384 512v256h-128v-256h128zM512 256v256h-128v-256h128zM512 256v-256h128v256h-128zM640 -128h128v128h-128v-128z" />
    <glyph glyph-name="bracketright" unicode="]" 
d="M384 1152h-256v-128h128v-1152h-128v-128h256v1408z" />
    <glyph glyph-name="asciicircum" unicode="^" 
d="M640 896v256h-256v-256h256zM640 640h128v256h-128v-256zM256 640h128v256h-128v-256z" />
    <glyph glyph-name="underscore" unicode="_" 
d="M896 0h-768v-128h768v128z" />
    <glyph glyph-name="grave" unicode="`" 
d="M128 1024v128h-128v-128h128zM128 896h128v128h-128v-128z" />
    <glyph glyph-name="a" unicode="a" 
d="M640 640v128h-384v-128h384zM256 512v-128h-128v-256h128v-128h256v128h-256v256h384v-128h-128v-128h128v-128h128v640h-128v-128h-384v128h-128v-128h128z" />
    <glyph glyph-name="b" unicode="b" 
d="M128 0h128v128h128v-128h256v128h-256v128h-128v256h128v128h-128v512h-128v-1152zM640 640v128h-256v-128h256zM768 512v128h-128v-128h128zM768 256h128v256h-128v-256zM640 128h128v128h-128v-128z" />
    <glyph glyph-name="c" unicode="c" 
d="M640 640v128h-384v-128h384zM640 512h128v128h-128v-128zM256 128v512h-128v-512h128zM640 128h128v128h-128v-128zM256 128v-128h384v128h-384z" />
    <glyph glyph-name="d" unicode="d" 
d="M256 128v512h-128v-512h128v-128h256v128h128v-128h128v1152h-128v-512h-128v128h-256v-128h256v-128h128v-256h-128v-128h-256z" />
    <glyph glyph-name="e" unicode="e" 
d="M640 640v128h-384v-128h384zM256 128v256h512v256h-128v-128h-384v128h-128v-512h128zM640 128h128v128h-128v-128zM256 128v-128h384v128h-384z" />
    <glyph glyph-name="f" unicode="f" 
d="M640 896v128h-256v-128h256zM256 0h128v512h256v128h-256v256h-128v-256h-128v-128h128v-512zM640 768h128v128h-128v-128z" />
    <glyph glyph-name="g" unicode="g" 
d="M640 640v128h-384v-128h384zM256 128v-128h256v128h128v-384h128v896h-128v-384h-128v-128h-256v512h-128v-512h128zM256 -256v128h-128v-128h128zM640 -256h-384v-128h384v128z" />
    <glyph glyph-name="h" unicode="h" 
d="M256 0h128v512h128v128h-128v512h-128v-1152zM768 640v128h-256v-128h256zM768 0h128v640h-128v-640z" />
    <glyph glyph-name="i" unicode="i" 
d="M384 896h128v128h-128v-128zM640 128h-128v640h-256v-128h128v-512h-128v-128h384v128z" />
    <glyph glyph-name="j" unicode="j" 
d="M512 896h128v128h-128v-128zM512 -256h128v1024h-128v-1024zM256 -256v128h-128v-128h128zM512 -256h-256v-128h256v128z" />
    <glyph glyph-name="k" unicode="k" 
d="M128 0h128v384h128v-128h128v-128h128v128h-128v128h-128v128h-128v640h-128v-1152zM512 640h128v128h-128v-128zM384 512h128v128h-128v-128zM640 0h128v128h-128v-128z" />
    <glyph glyph-name="l" unicode="l" 
d="M640 128h-128v896h-256v-128h128v-768h-128v-128h384v128z" />
    <glyph glyph-name="m" unicode="m" 
d="M384 0h128v640h256v128h-768v-768h128v640h256v-640zM768 0h128v640h-128v-640z" />
    <glyph glyph-name="n" unicode="n" 
d="M128 0h128v512h128v128h-128v128h-128v-768zM640 640v128h-256v-128h256zM640 0h128v640h-128v-640z" />
    <glyph glyph-name="o" unicode="o" 
d="M640 640v128h-384v-128h384zM640 128h128v512h-128v-512zM256 128v512h-128v-512h128zM256 128v-128h384v128h-384z" />
    <glyph glyph-name="p" unicode="p" 
d="M128 -384h128v512h128v-128h256v128h-256v128h-128v256h128v128h-128v128h-128v-1152zM640 640v128h-256v-128h256zM640 128h128v512h-128v-512z" />
    <glyph glyph-name="q" unicode="q" 
d="M128 128v512h-128v-512h128v-128h256v128h128v-512h128v128h128v128h-128v896h-128v-128h-128v128h-256v-128h256v-128h128v-256h-128v-128h-256zM768 -128h128v128h-128v-128z" />
    <glyph glyph-name="r" unicode="r" 
d="M128 0h128v512h128v128h-128v128h-128v-768zM640 640v128h-256v-128h256zM640 512h128v128h-128v-128z" />
    <glyph glyph-name="s" unicode="s" 
d="M640 640v128h-384v-128h384zM640 512h128v128h-128v-128zM256 512v128h-128v-128h128zM512 384v128h-256v-128h256zM640 256v128h-128v-128h128zM640 128h128v128h-128v-128zM256 128v128h-128v-128h128zM640 128h-384v-128h384v128z" />
    <glyph glyph-name="t" unicode="t" 
d="M512 128v512h256v128h-256v256h-128v-256h-256v-128h256v-512h128zM512 128v-128h256v128h-256z" />
    <glyph glyph-name="u" unicode="u" 
d="M256 128v-128h256v128h128v-128h128v768h-128v-512h-128v-128h-256v640h-128v-640h128z" />
    <glyph glyph-name="v" unicode="v" 
d="M640 512h128v256h-128v-256zM256 512v256h-128v-256h128zM512 256h128v256h-128v-256zM384 256v256h-128v-256h128zM384 0h128v256h-128v-256z" />
    <glyph glyph-name="w" unicode="w" 
d="M768 384h128v384h-128v-384zM128 384v384h-128v-384h128zM512 256v-128h128v-128h128v384h-128v-128h-128v256h-128v-256h128zM128 0h128v128h128v128h-128v128h-128v-384z" />
    <glyph glyph-name="x" unicode="x" 
d="M640 640h128v128h-128v-128zM256 640v128h-128v-128h128zM512 512h128v128h-128v-128zM384 512v128h-128v-128h128zM512 256v256h-128v-256h128zM640 128v128h-128v-128h128zM256 128h128v128h-128v-128zM640 0h128v128h-128v-128zM128 0h128v128h-128v-128z" />
    <glyph glyph-name="y" unicode="y" 
d="M768 512h128v256h-128v-256zM256 640v128h-128v-128h128zM384 384v256h-128v-256h128zM640 256h128v256h-128v-256zM512 256v128h-128v-128h128zM512 0h128v256h-128v-256zM384 -256h128v256h-128v-256zM256 -384h128v128h-128v-128z" />
    <glyph glyph-name="z" unicode="z" 
d="M640 512h128v256h-640v-128h512v-128zM640 512h-256v-128h256v128zM256 256h128v128h-128v-128zM768 128h-512v128h-128v-256h640v128z" />
    <glyph glyph-name="braceleft" unicode="{" 
d="M512 1024h128v128h-128v-128zM384 512h128v512h-128v-512zM384 384v128h-128v-128h128zM512 -128v512h-128v-512h128zM512 -256h128v128h-128v-128z" />
    <glyph glyph-name="bar" unicode="|" 
d="M384 -256h128v1408h-128v-1408z" />
    <glyph glyph-name="braceright" unicode="}" 
d="M384 1024v128h-128v-128h128zM512 512v512h-128v-512h128zM512 384h128v128h-128v-128zM384 -128h128v512h-128v-512zM256 -256h128v128h-128v-128z" />
    <glyph glyph-name="asciitilde" unicode="~" 
d="M768 384h128v128h-128v-128zM512 384v128h-256v-128h256zM128 256h128v128h-128v-128zM512 384v-128h256v128h-256z" />
    <glyph glyph-name="uni00A0" unicode="&#xa0;" 
 />
    <glyph glyph-name="exclamdown" unicode="&#xa1;" 
d="M128 640h128v128h-128v-128zM128 -256h128v640h-128v-640z" />
    <glyph glyph-name="cent" unicode="&#xa2;" 
d="M384 0h128v128h128v128h-128v384h128v-128h128v128h-128v128h-128v128h-128v-128h-128v-128h-128v-384h128v-128h128v-128zM384 256h-128v384h128v-384zM640 256h128v128h-128v-128z" />
    <glyph glyph-name="sterling" unicode="&#xa3;" 
d="M640 896v128h-256v-128h256zM640 768h128v128h-128v-128zM384 640v256h-128v-256h128zM384 256h128v128h256v128h-256v128h-128v-128h-256v-128h256v-128zM384 256h-128v-128h-128v-128h768v128h-512v128z" />
    <glyph glyph-name="currency" unicode="&#xa4;" 
d="M640 768h128v128h-128v-128zM384 768v128h-128v-128h128zM640 640v128h-256v-128h256zM640 384h128v256h-128v-256zM384 384v256h-128v-256h128zM384 384v-128h256v128h-256zM640 128h128v128h-128v-128zM256 128h128v128h-128v-128z" />
    <glyph glyph-name="yen" unicode="&#xa5;" 
d="M640 768h128v256h-128v-256zM256 768v256h-128v-256h128zM512 640h128v128h-128v-128zM384 640v128h-128v-128h128zM384 0h128v128h256v128h-256v128h256v128h-256v128h-128v-128h-256v-128h256v-128h-256v-128h256v-128z" />
    <glyph glyph-name="brokenbar" unicode="&#xa6;" 
d="M128 640h128v384h-128v-384zM128 -128h128v384h-128v-384z" />
    <glyph glyph-name="section" unicode="&#xa7;" 
d="M640 896v128h-384v-128h384zM640 768h128v128h-128v-128zM256 768v128h-128v-128h128zM512 512v128h-128v128h-128v-256h256zM640 384v128h-128v-128h128zM256 384v128h-128v-128h128zM640 256h128v128h-128v-128zM384 256v128h-128v-128h128zM640 0v256h-256v-128h128
v-128h128zM640 -128h128v128h-128v-128zM256 -128v128h-128v-128h128zM640 -128h-384v-128h384v128z" />
    <glyph glyph-name="dieresis" unicode="&#xa8;" 
d="M768 1024h-256v-256h256v256zM384 1024h-256v-256h256v256z" />
    <glyph glyph-name="copyright" unicode="&#xa9;" 
d="M640 896v128h-384v-128h384zM768 768v128h-128v-128h128zM128 768h128v128h-128v-128zM768 256h128v512h-128v-512zM128 256v512h-128v-512h128zM640 768h-256v-128h256v128zM384 384v256h-128v-256h128zM384 384v-128h256v128h-256zM640 128h128v128h-128v-128zM256 128
v128h-128v-128h128zM640 128h-384v-128h384v128z" />
    <glyph glyph-name="ordfeminine" unicode="&#xaa;" 
d="M384 1024v128h-256v-128h256zM128 896v-128h-128v-128h128v-128h384v512h-128v-128h-256v128h-128v-128h128zM128 640v128h256v-128h-256z" />
    <glyph glyph-name="guillemotleft" unicode="&#xab;" 
d="M640 640h128v128h-128v-128zM256 640h128v128h-128v-128zM512 512h128v128h-128v-128zM128 512h128v128h-128v-128zM512 384v128h-128v-128h128zM128 384v128h-128v-128h128zM640 256v128h-128v-128h128zM256 256v128h-128v-128h128zM640 128h128v128h-128v-128zM256 128
h128v128h-128v-128z" />
    <glyph glyph-name="logicalnot" unicode="&#xac;" 
d="M512 256h128v512h-640v-128h512v-384z" />
    <glyph glyph-name="registered" unicode="&#xae;" 
d="M768 1024v128h-512v-128h512zM896 896v128h-128v-128h128zM256 896v128h-128v-128h128zM896 256h128v640h-128v-640zM256 256h128v256h128v-128h128v128h128v256h-128v-128h-256v128h256v128h-384v-640zM128 256v640h-128v-640h128zM768 256v128h-128v-128h128zM768 128
h128v128h-128v-128zM256 128v128h-128v-128h128zM768 128h-512v-128h512v128z" />
    <glyph glyph-name="macron" unicode="&#xaf;" 
d="M768 1152h-768v-128h768v128z" />
    <glyph glyph-name="degree" unicode="&#xb0;" 
d="M384 1024v128h-256v-128h256zM384 768h128v256h-128v-256zM128 768v256h-128v-256h128zM128 768v-128h256v128h-256z" />
    <glyph glyph-name="plusminus" unicode="&#xb1;" 
d="M384 256h128v256h256v128h-256v256h-128v-256h-256v-128h256v-256zM768 128h-640v-128h640v128z" />
    <glyph glyph-name="uni00B2" unicode="&#xb2;" 
d="M384 1024v128h-256v-128h256zM0 896h128v128h-128v-128zM384 896h128v128h-128v-128zM256 768h128v128h-128v-128zM512 640h-256v128h-128v-128h-128v-128h512v128z" />
    <glyph glyph-name="uni00B3" unicode="&#xb3;" 
d="M384 1024v128h-256v-128h256zM0 896h128v128h-128v-128zM384 896h128v128h-128v-128zM384 768v128h-128v-128h128zM384 640h128v128h-128v-128zM128 640v128h-128v-128h128zM384 640h-256v-128h256v128z" />
    <glyph glyph-name="acute" unicode="&#xb4;" 
d="M128 896h128v128h128v128h-256v-256zM0 768h128v128h-128v-128z" />
    <glyph glyph-name="uni00B5" unicode="&#xb5;" 
d="M128 -256h128v384h128v-128h256v128h-256v128h-128v384h-128v-896zM640 128h128v512h-128v-512z" />
    <glyph glyph-name="paragraph" unicode="&#xb6;" 
d="M512 -256h128v1152h128v128h-640v-128h-128v-384h128v-128h128v-640h128v1152h128v-1152z" />
    <glyph glyph-name="periodcentered" unicode="&#xb7;" 
d="M128 512h128v128h-128v-128z" />
    <glyph glyph-name="cedilla" unicode="&#xb8;" 
d="M256 0h128v128h-128v-128zM256 -128v128h-128v-128h128zM256 -384h128v256h-128v-256zM256 -384h-256v-128h256v128z" />
    <glyph glyph-name="uni00B9" unicode="&#xb9;" 
d="M512 640h-128v512h-128v-128h-128v-128h128v-256h-128v-128h384v128z" />
    <glyph glyph-name="ordmasculine" unicode="&#xba;" 
d="M384 1024v128h-256v-128h256zM384 640h128v384h-128v-384zM128 640v384h-128v-384h128zM128 640v-128h256v128h-256z" />
    <glyph glyph-name="guillemotright" unicode="&#xbb;" 
d="M640 512v128h-128v-128h128zM256 512v128h-128v-128h128zM768 384v128h-128v-128h128zM384 384v128h-128v-128h128zM768 256h128v128h-128v-128zM384 256h128v128h-128v-128zM640 128h128v128h-128v-128zM256 128h128v128h-128v-128zM512 0h128v128h-128v-128zM128 0h128
v128h-128v-128z" />
    <glyph glyph-name="onequarter" unicode="&#xbc;" 
d="M512 256v-128h384v-128h128v640h-128v-128h-128v-128h-128v-128h-128v256h-256v512h-128v-128h-128v-128h128v-256h-128v-128h384v-128h128zM768 896h128v128h-128v-128zM640 640h128v256h-128v-256zM512 512h128v128h-128v-128zM896 256h-128v128h128v-128zM256 0h128
v256h-128v-256zM128 -128h128v128h-128v-128z" />
    <glyph glyph-name="onehalf" unicode="&#xbd;" 
d="M384 256h128v256h-256v512h-128v-128h-128v-128h128v-256h-128v-128h384v-128zM768 896h128v128h-128v-128zM640 640h128v256h-128v-256zM640 512v128h-128v-128h128zM896 384v128h-256v-128h256zM896 256h128v128h-128v-128zM1024 128h-128v128h-128v-128h-128v-128h384
v128zM256 0h128v256h-128v-256zM128 -128h128v128h-128v-128z" />
    <glyph glyph-name="threequarters" unicode="&#xbe;" 
d="M768 896h128v128h-128v-128zM256 896v128h-256v-128h256zM640 640h128v256h-128v-256zM256 768h128v128h-128v-128zM256 640v128h-128v-128h128zM512 256v-128h384v-128h128v640h-128v-128h-128v-128h-128v-128h-128v256h-128v-256h128zM512 512h128v128h-128v-128z
M384 512v128h-128v-128h128zM256 512h-256v-128h256v128zM896 256h-128v128h128v-128zM256 0h128v256h-128v-256zM128 -128h128v128h-128v-128z" />
    <glyph glyph-name="questiondown" unicode="&#xbf;" 
d="M384 512h128v128h-128v-128zM384 256h128v128h-128v-128zM256 128h128v128h-128v-128zM256 -128v256h-128v-256h128zM512 -128h128v128h-128v-128zM256 -128v-128h256v128h-256z" />
    <glyph glyph-name="Agrave" unicode="&#xc0;" 
d="M384 1280v128h-128v-128h128zM384 1152h128v128h-128v-128zM512 768v256h-256v-256h256zM640 0h128v384h-128v384h-128v-384h-256v384h-128v-384h-128v-384h128v256h512v-256z" />
    <glyph glyph-name="Aacute" unicode="&#xc1;" 
d="M384 1280h128v128h-128v-128zM256 1152h128v128h-128v-128zM512 768v256h-256v-256h256zM640 0h128v384h-128v384h-128v-384h-256v384h-128v-384h-128v-384h128v256h512v-256z" />
    <glyph glyph-name="Acircumflex" unicode="&#xc2;" 
d="M512 1280v128h-128v-128h128zM512 1152h128v128h-128v-128zM256 1152h128v128h-128v-128zM512 768v256h-256v-256h256zM640 0h128v384h-128v384h-128v-384h-256v384h-128v-384h-128v-384h128v256h512v-256z" />
    <glyph glyph-name="Atilde" unicode="&#xc3;" 
d="M640 1280h-128v128h-256v-128h128v-128h256v128zM640 1280h128v128h-128v-128zM128 1152h128v128h-128v-128zM512 768v256h-256v-256h256zM640 0h128v384h-128v384h-128v-384h-256v384h-128v-384h-128v-384h128v256h512v-256z" />
    <glyph glyph-name="Adieresis" unicode="&#xc4;" 
d="M512 1152h128v128h-128v-128zM256 1152h128v128h-128v-128zM512 768v256h-256v-256h256zM640 0h128v384h-128v384h-128v-384h-256v384h-128v-384h-128v-384h128v256h512v-256z" />
    <glyph glyph-name="Aring" unicode="&#xc5;" 
d="M512 1280v128h-256v-128h256zM512 1024h128v256h-128v-256zM256 1024v256h-128v-256h128zM512 768v256h-256v-256h256zM640 0h128v384h-128v384h-128v-384h-256v384h-128v-384h-128v-384h128v256h512v-256z" />
    <glyph glyph-name="AE" unicode="&#xc6;" 
d="M0 0h128v256h256v-256h512v128h-384v384h384v128h-384v256h384v128h-640v-256h-128v-384h-128v-384zM384 384h-128v384h128v-384z" />
    <glyph glyph-name="Ccedilla" unicode="&#xc7;" 
d="M768 896v128h-512v-128h512zM768 768h128v128h-128v-128zM128 768h128v128h-128v-128zM128 256v512h-128v-512h128zM768 128h128v128h-128v-128zM256 128v128h-128v-128h128zM512 -256v256h256v128h-512v-128h128v-256h128zM512 -384h128v128h-128v-128zM512 -384h-256
v-128h256v128z" />
    <glyph glyph-name="Egrave" unicode="&#xc8;" 
d="M384 1280v128h-128v-128h128zM384 1152h128v128h-128v-128zM768 128h-512v384h384v128h-384v256h512v128h-640v-1024h640v128z" />
    <glyph glyph-name="Eacute" unicode="&#xc9;" 
d="M512 1280h128v128h-128v-128zM384 1152h128v128h-128v-128zM768 128h-512v384h384v128h-384v256h512v128h-640v-1024h640v128z" />
    <glyph glyph-name="Ecircumflex" unicode="&#xca;" 
d="M512 1280v128h-128v-128h128zM512 1152h128v128h-128v-128zM256 1152h128v128h-128v-128zM768 128h-512v384h384v128h-384v256h512v128h-640v-1024h640v128z" />
    <glyph glyph-name="Edieresis" unicode="&#xcb;" 
d="M512 1152h128v128h-128v-128zM256 1152h128v128h-128v-128zM768 128h-512v384h384v128h-384v256h512v128h-640v-1024h640v128z" />
    <glyph glyph-name="Igrave" unicode="&#xcc;" 
d="M384 1280v128h-128v-128h128zM384 1152h128v128h-128v-128zM768 128h-256v768h256v128h-640v-128h256v-768h-256v-128h640v128z" />
    <glyph glyph-name="Iacute" unicode="&#xcd;" 
d="M512 1280h128v128h-128v-128zM384 1152h128v128h-128v-128zM768 128h-256v768h256v128h-640v-128h256v-768h-256v-128h640v128z" />
    <glyph glyph-name="Icircumflex" unicode="&#xce;" 
d="M512 1280v128h-128v-128h128zM512 1152h128v128h-128v-128zM256 1152h128v128h-128v-128zM768 128h-256v768h256v128h-640v-128h256v-768h-256v-128h640v128z" />
    <glyph glyph-name="Idieresis" unicode="&#xcf;" 
d="M512 1152h128v128h-128v-128zM256 1152h128v128h-128v-128zM768 128h-256v768h256v128h-640v-128h256v-768h-256v-128h640v128z" />
    <glyph glyph-name="Eth" unicode="&#xd0;" 
d="M768 256h128v512h-128v128h-128v128h-512v-384h-128v-128h128v-512h512v128h-384v384h256v128h-256v256h384v-128h128v-512h-128v-128h128v128z" />
    <glyph glyph-name="Ntilde" unicode="&#xd1;" 
d="M640 1280h-128v128h-256v-128h128v-128h256v128zM640 1280h128v128h-128v-128zM128 1152h128v128h-128v-128zM0 0h128v768h128v-128h128v-256h128v-128h128v-128h128v-128h128v1024h-128v-768h-128v128h-128v256h-128v128h-128v128h-128v128h-128v-1024z" />
    <glyph glyph-name="Ograve" unicode="&#xd2;" 
d="M384 1280v128h-128v-128h128zM384 1152h128v128h-128v-128zM640 896v128h-384v-128h384zM768 768v128h-128v-128h128zM128 768h128v128h-128v-128zM768 256h128v512h-128v-512zM128 256v512h-128v-512h128zM640 128h128v128h-128v-128zM256 128v128h-128v-128h128z
M640 128h-384v-128h384v128z" />
    <glyph glyph-name="Oacute" unicode="&#xd3;" 
d="M512 1280h128v128h-128v-128zM384 1152h128v128h-128v-128zM640 896v128h-384v-128h384zM768 768v128h-128v-128h128zM128 768h128v128h-128v-128zM768 256h128v512h-128v-512zM128 256v512h-128v-512h128zM640 128h128v128h-128v-128zM256 128v128h-128v-128h128z
M640 128h-384v-128h384v128z" />
    <glyph glyph-name="Ocircumflex" unicode="&#xd4;" 
d="M512 1280v128h-128v-128h128zM512 1152h128v128h-128v-128zM256 1152h128v128h-128v-128zM640 896v128h-384v-128h384zM768 768v128h-128v-128h128zM128 768h128v128h-128v-128zM768 256h128v512h-128v-512zM128 256v512h-128v-512h128zM640 128h128v128h-128v-128z
M256 128v128h-128v-128h128zM640 128h-384v-128h384v128z" />
    <glyph glyph-name="Otilde" unicode="&#xd5;" 
d="M640 1280h-128v128h-256v-128h128v-128h256v128zM640 1280h128v128h-128v-128zM128 1152h128v128h-128v-128zM640 896v128h-384v-128h384zM768 768v128h-128v-128h128zM128 768h128v128h-128v-128zM768 256h128v512h-128v-512zM128 256v512h-128v-512h128zM640 128h128
v128h-128v-128zM256 128v128h-128v-128h128zM640 128h-384v-128h384v128z" />
    <glyph glyph-name="Odieresis" unicode="&#xd6;" 
d="M512 1152h128v128h-128v-128zM256 1152h128v128h-128v-128zM640 896v128h-384v-128h384zM768 768v128h-128v-128h128zM128 768h128v128h-128v-128zM768 256h128v512h-128v-512zM128 256v512h-128v-512h128zM640 128h128v128h-128v-128zM256 128v128h-128v-128h128z
M640 128h-384v-128h384v128z" />
    <glyph glyph-name="multiply" unicode="&#xd7;" 
d="M512 640h128v128h-128v-128zM128 640v128h-128v-128h128zM384 512h128v128h-128v-128zM256 512v128h-128v-128h128zM512 256v128h-128v128h-128v-128h-128v-128h384zM512 0h128v256h-128v-256zM0 0h128v256h-128v-256z" />
    <glyph glyph-name="Oslash" unicode="&#xd8;" 
d="M768 896h128v128h-128v-128zM640 896v128h-384v-128h384zM768 768v128h-128v-128h128zM128 768h128v128h-128v-128zM768 256h128v512h-128v-512zM128 256v512h-128v-512h128zM512 640h128v128h-128v-128zM384 384h128v256h-128v-256zM256 256h128v128h-128v-128zM640 128
h128v128h-128v-128zM256 128v128h-128v-128h128zM0 0h128v128h-128v-128zM640 128h-384v-128h384v128z" />
    <glyph glyph-name="Ugrave" unicode="&#xd9;" 
d="M384 1152v128h-128v-128h128zM384 1024h128v128h-128v-128zM640 128h128v896h-128v-896zM128 128v896h-128v-896h128zM128 128v-128h512v128h-512z" />
    <glyph glyph-name="Uacute" unicode="&#xda;" 
d="M384 1152h128v128h-128v-128zM256 1024h128v128h-128v-128zM640 128h128v896h-128v-896zM128 128v896h-128v-896h128zM128 128v-128h512v128h-512z" />
    <glyph glyph-name="Ucircumflex" unicode="&#xdb;" 
d="M512 1280v128h-128v-128h128zM512 1152h128v128h-128v-128zM256 1152h128v128h-128v-128zM640 128h128v896h-128v-896zM128 128v896h-128v-896h128zM128 128v-128h512v128h-512z" />
    <glyph glyph-name="Udieresis" unicode="&#xdc;" 
d="M512 1152h128v128h-128v-128zM256 1152h128v128h-128v-128zM640 128h128v896h-128v-896zM128 128v896h-128v-896h128zM128 128v-128h512v128h-512z" />
    <glyph glyph-name="Yacute" unicode="&#xdd;" 
d="M512 1152h128v128h-128v-128zM384 1024h128v128h-128v-128zM768 896h128v128h-128v-128zM128 896v128h-128v-128h128zM640 640h128v256h-128v-256zM256 640v256h-128v-256h128zM512 512h128v128h-128v-128zM384 512v128h-128v-128h128zM384 0h128v512h-128v-512z" />
    <glyph glyph-name="Thorn" unicode="&#xde;" 
d="M0 0h128v256h384v128h-384v256h384v-256h128v256h-128v128h-384v256h-128v-1024z" />
    <glyph glyph-name="germandbls" unicode="&#xdf;" 
d="M384 896v128h-256v-128h256zM0 0h128v896h-128v-896zM384 640h128v256h-128v-256zM384 512v128h-128v-128h128zM512 384v128h-128v-128h128zM512 128h128v256h-128v-256zM512 128h-256v-128h256v128z" />
    <glyph glyph-name="agrave" unicode="&#xe0;" 
d="M384 1024v128h-128v-128h128zM384 896h128v128h-128v-128zM512 640v128h-256v-128h256zM256 512v-128h-128v-256h128v-128h512v128h-128v512h-128v-128h-256v128h-128v-128h128zM256 128v256h256v-256h-256z" />
    <glyph glyph-name="aacute" unicode="&#xe1;" 
d="M384 1024h128v128h-128v-128zM256 896h128v128h-128v-128zM512 640v128h-256v-128h256zM256 512v-128h-128v-256h128v-128h512v128h-128v512h-128v-128h-256v128h-128v-128h128zM256 128v256h256v-256h-256z" />
    <glyph glyph-name="acircumflex" unicode="&#xe2;" 
d="M512 1024v128h-128v-128h128zM512 896h128v128h-128v-128zM256 896h128v128h-128v-128zM512 640v128h-256v-128h256zM256 512v-128h-128v-256h128v-128h512v128h-128v512h-128v-128h-256v128h-128v-128h128zM256 128v256h256v-256h-256z" />
    <glyph glyph-name="atilde" unicode="&#xe3;" 
d="M640 1024h-128v128h-256v-128h128v-128h256v128zM640 1024h128v128h-128v-128zM128 896h128v128h-128v-128zM512 640v128h-256v-128h256zM256 512v-128h-128v-256h128v-128h512v128h-128v512h-128v-128h-256v128h-128v-128h128zM256 128v256h256v-256h-256z" />
    <glyph glyph-name="adieresis" unicode="&#xe4;" 
d="M512 896h128v128h-128v-128zM256 896h128v128h-128v-128zM512 640v128h-256v-128h256zM256 512v-128h-128v-256h128v-128h512v128h-128v512h-128v-128h-256v128h-128v-128h128zM256 128v256h256v-256h-256z" />
    <glyph glyph-name="aring" unicode="&#xe5;" 
d="M512 1152v128h-128v-128h128zM512 1024h128v128h-128v-128zM384 1024v128h-128v-128h128zM384 896h128v128h-128v-128zM512 640v128h-256v-128h256zM256 512v-128h-128v-256h128v-128h512v128h-128v512h-128v-128h-256v128h-128v-128h128zM256 128v256h256v-256h-256z
" />
    <glyph glyph-name="ae" unicode="&#xe6;" 
d="M768 640v128h-256v-128h256zM384 640v128h-256v-128h256zM128 512v-128h-128v-256h128v-128h640v128h-256v256h384v256h-128v-128h-256v128h-128v-128h-256v128h-128v-128h128zM128 128v256h256v-256h-256zM768 128h128v128h-128v-128z" />
    <glyph glyph-name="ccedilla" unicode="&#xe7;" 
d="M640 640v128h-384v-128h384zM640 512h128v128h-128v-128zM256 128v512h-128v-512h128zM640 128h128v128h-128v-128zM256 128v-128h128v-128h128v128h128v128h-384zM512 -256h128v128h-128v-128zM512 -256h-256v-128h256v128z" />
    <glyph glyph-name="egrave" unicode="&#xe8;" 
d="M384 1024v128h-128v-128h128zM384 896h128v128h-128v-128zM640 640v128h-384v-128h384zM256 128v256h512v256h-128v-128h-384v128h-128v-512h128zM640 128h128v128h-128v-128zM256 128v-128h384v128h-384z" />
    <glyph glyph-name="eacute" unicode="&#xe9;" 
d="M512 1024h128v128h-128v-128zM384 896h128v128h-128v-128zM640 640v128h-384v-128h384zM256 128v256h512v256h-128v-128h-384v128h-128v-512h128zM640 128h128v128h-128v-128zM256 128v-128h384v128h-384z" />
    <glyph glyph-name="ecircumflex" unicode="&#xea;" 
d="M512 1024v128h-128v-128h128zM512 896h128v128h-128v-128zM256 896h128v128h-128v-128zM640 640v128h-384v-128h384zM256 128v256h512v256h-128v-128h-384v128h-128v-512h128zM640 128h128v128h-128v-128zM256 128v-128h384v128h-384z" />
    <glyph glyph-name="edieresis" unicode="&#xeb;" 
d="M512 896h128v128h-128v-128zM256 896h128v128h-128v-128zM640 640v128h-384v-128h384zM256 128v256h512v256h-128v-128h-384v128h-128v-512h128zM640 128h128v128h-128v-128zM256 128v-128h384v128h-384z" />
    <glyph glyph-name="igrave" unicode="&#xec;" 
d="M128 1024v128h-128v-128h128zM128 896h128v128h-128v-128zM128 0h128v768h-128v-768z" />
    <glyph glyph-name="iacute" unicode="&#xed;" 
d="M256 1024h128v128h-128v-128zM128 896h128v128h-128v-128zM128 0h128v768h-128v-768z" />
    <glyph glyph-name="icircumflex" unicode="&#xee;" 
d="M256 1024v128h-128v-128h128zM256 896h128v128h-128v-128zM0 896h128v128h-128v-128zM128 0h128v768h-128v-768z" />
    <glyph glyph-name="idieresis" unicode="&#xef;" 
d="M256 896h128v128h-128v-128zM0 896h128v128h-128v-128zM128 0h128v768h-128v-768z" />
    <glyph glyph-name="eth" unicode="&#xf0;" 
d="M384 1024h128v128h-128v-128zM256 1024v128h-128v-128h128zM384 896v128h-128v-128h128zM128 768h128v128h-128v-128zM512 768v128h-128v-128h128zM512 128h128v640h-128v-128h-384v-128h-128v-384h128v384h384v-384zM512 128h-384v-128h384v128z" />
    <glyph glyph-name="ntilde" unicode="&#xf1;" 
d="M640 1024h-128v128h-256v-128h128v-128h256v128zM640 1024h128v128h-128v-128zM128 896h128v128h-128v-128zM128 0h128v512h128v128h-128v128h-128v-768zM640 640v128h-256v-128h256zM640 0h128v640h-128v-640z" />
    <glyph glyph-name="ograve" unicode="&#xf2;" 
d="M384 1024v128h-128v-128h128zM384 896h128v128h-128v-128zM640 640v128h-384v-128h384zM640 128h128v512h-128v-512zM256 128v512h-128v-512h128zM256 128v-128h384v128h-384z" />
    <glyph glyph-name="oacute" unicode="&#xf3;" 
d="M512 1024h128v128h-128v-128zM384 896h128v128h-128v-128zM640 640v128h-384v-128h384zM640 128h128v512h-128v-512zM256 128v512h-128v-512h128zM256 128v-128h384v128h-384z" />
    <glyph glyph-name="ocircumflex" unicode="&#xf4;" 
d="M512 1024v128h-128v-128h128zM512 896h128v128h-128v-128zM256 896h128v128h-128v-128zM640 640v128h-384v-128h384zM640 128h128v512h-128v-512zM256 128v512h-128v-512h128zM256 128v-128h384v128h-384z" />
    <glyph glyph-name="otilde" unicode="&#xf5;" 
d="M640 1024h-128v128h-256v-128h128v-128h256v128zM640 1024h128v128h-128v-128zM128 896h128v128h-128v-128zM640 640v128h-384v-128h384zM640 128h128v512h-128v-512zM256 128v512h-128v-512h128zM256 128v-128h384v128h-384z" />
    <glyph glyph-name="odieresis" unicode="&#xf6;" 
d="M512 896h128v128h-128v-128zM256 896h128v128h-128v-128zM640 640v128h-384v-128h384zM640 128h128v512h-128v-512zM256 128v512h-128v-512h128zM256 128v-128h384v128h-384z" />
    <glyph glyph-name="divide" unicode="&#xf7;" 
d="M384 640h128v128h-128v-128zM768 512h-640v-128h640v128zM384 128h128v128h-128v-128z" />
    <glyph glyph-name="oslash" unicode="&#xf8;" 
d="M640 768h128v128h-128v-128zM640 128h128v512h-128v128h-384v-128h256v-128h-128v-256h128v256h128v-384zM128 -128h128v128h384v128h-256v128h-128v384h-128v-768z" />
    <glyph glyph-name="ugrave" unicode="&#xf9;" 
d="M384 1024v128h-128v-128h128zM384 896h128v128h-128v-128zM256 128v-128h256v128h128v-128h128v768h-128v-512h-128v-128h-256v640h-128v-640h128z" />
    <glyph glyph-name="uacute" unicode="&#xfa;" 
d="M512 1024h128v128h-128v-128zM384 896h128v128h-128v-128zM256 128v-128h256v128h128v-128h128v768h-128v-512h-128v-128h-256v640h-128v-640h128z" />
    <glyph glyph-name="ucircumflex" unicode="&#xfb;" 
d="M512 1024v128h-128v-128h128zM512 896h128v128h-128v-128zM256 896h128v128h-128v-128zM256 128v-128h256v128h128v-128h128v768h-128v-512h-128v-128h-256v640h-128v-640h128z" />
    <glyph glyph-name="udieresis" unicode="&#xfc;" 
d="M512 896h128v128h-128v-128zM256 896h128v128h-128v-128zM256 128v-128h256v128h128v-128h128v768h-128v-512h-128v-128h-256v640h-128v-640h128z" />
    <glyph glyph-name="yacute" unicode="&#xfd;" 
d="M384 896h128v128h-128v-128zM256 768h128v128h-128v-128zM640 512h128v256h-128v-256zM128 512v256h-128v-256h128zM512 256h128v256h-128v-256zM256 384v128h-128v-128h128zM384 256v128h-128v-128h128zM384 0h128v256h-128v-256zM256 -256h128v256h-128v-256zM128 -384
h128v128h-128v-128z" />
    <glyph glyph-name="thorn" unicode="&#xfe;" 
d="M0 -256h128v256h384v128h-384v512h384v-512h128v512h-128v128h-384v256h-128v-1280z" />
    <glyph glyph-name="ydieresis" unicode="&#xff;" 
d="M512 896h128v128h-128v-128zM256 896h128v128h-128v-128zM640 512h128v256h-128v-256zM128 512v256h-128v-256h128zM512 256h128v256h-128v-256zM256 384v128h-128v-128h128zM384 256v128h-128v-128h128zM384 0h128v256h-128v-256zM256 -256h128v256h-128v-256zM128 -384
h128v128h-128v-128z" />
    <glyph glyph-name="Amacron" unicode="&#x100;" 
d="M640 1280h-512v-128h512v128zM512 768v256h-256v-256h256zM640 0h128v384h-128v384h-128v-384h-256v384h-128v-384h-128v-384h128v256h512v-256z" />
    <glyph glyph-name="amacron" unicode="&#x101;" 
d="M640 1024h-384v-128h384v128zM512 640v128h-256v-128h256zM256 512v-128h-128v-256h128v-128h512v128h-128v512h-128v-128h-256v128h-128v-128h128zM256 128v256h256v-256h-256z" />
    <glyph glyph-name="Abreve" unicode="&#x102;" 
d="M512 1280h128v128h-128v-128zM256 1280v128h-128v-128h128zM512 1280h-256v-128h256v128zM512 768v256h-256v-256h256zM640 0h128v384h-128v384h-128v-384h-256v384h-128v-384h-128v-384h128v256h512v-256z" />
    <glyph glyph-name="abreve" unicode="&#x103;" 
d="M512 1024h128v128h-128v-128zM256 1024v128h-128v-128h128zM512 1024h-256v-128h256v128zM512 640v128h-256v-128h256zM256 512v-128h-128v-256h128v-128h512v128h-128v512h-128v-128h-256v128h-128v-128h128zM256 128v256h256v-256h-256z" />
    <glyph glyph-name="Aogonek" unicode="&#x104;" 
d="M512 768v256h-256v-256h256zM0 0h128v256h512v-256h-128v-128h128v128h128v384h-128v384h-128v-384h-256v384h-128v-384h-128v-384zM640 -256h128v128h-128v-128z" />
    <glyph glyph-name="aogonek" unicode="&#x105;" 
d="M512 640v128h-256v-128h256zM256 512v-128h-128v-256h128v-128h384v-128h128v256h-128v512h-128v-128h-256v128h-128v-128h128zM256 128v256h256v-256h-256zM640 -256v128h-128v-128h128zM640 -384h128v128h-128v-128z" />
    <glyph glyph-name="Cacute" unicode="&#x106;" 
d="M512 1280h128v128h-128v-128zM384 1152h128v128h-128v-128zM768 896v128h-512v-128h512zM768 768h128v128h-128v-128zM128 768h128v128h-128v-128zM128 256v512h-128v-512h128zM768 128h128v128h-128v-128zM256 128v128h-128v-128h128zM768 128h-512v-128h512v128z" />
    <glyph glyph-name="cacute" unicode="&#x107;" 
d="M512 1024h128v128h-128v-128zM384 896h128v128h-128v-128zM640 640v128h-384v-128h384zM640 512h128v128h-128v-128zM256 128v512h-128v-512h128zM640 128h128v128h-128v-128zM256 128v-128h384v128h-384z" />
    <glyph glyph-name="Ccircumflex" unicode="&#x108;" 
d="M512 1280v128h-128v-128h128zM512 1152h128v128h-128v-128zM256 1152h128v128h-128v-128zM768 896v128h-512v-128h512zM768 768h128v128h-128v-128zM128 768h128v128h-128v-128zM128 256v512h-128v-512h128zM768 128h128v128h-128v-128zM256 128v128h-128v-128h128z
M768 128h-512v-128h512v128z" />
    <glyph glyph-name="ccircumflex" unicode="&#x109;" 
d="M512 1024v128h-128v-128h128zM512 896h128v128h-128v-128zM256 896h128v128h-128v-128zM640 640v128h-384v-128h384zM640 512h128v128h-128v-128zM256 128v512h-128v-512h128zM640 128h128v128h-128v-128zM256 128v-128h384v128h-384z" />
    <glyph glyph-name="Cdotaccent" unicode="&#x10a;" 
d="M384 1152h128v128h-128v-128zM768 896v128h-512v-128h512zM768 768h128v128h-128v-128zM128 768h128v128h-128v-128zM128 256v512h-128v-512h128zM768 128h128v128h-128v-128zM256 128v128h-128v-128h128zM768 128h-512v-128h512v128z" />
    <glyph glyph-name="cdotaccent" unicode="&#x10b;" 
d="M384 896h128v128h-128v-128zM640 640v128h-384v-128h384zM640 512h128v128h-128v-128zM256 128v512h-128v-512h128zM640 128h128v128h-128v-128zM256 128v-128h384v128h-384z" />
    <glyph glyph-name="Ccaron" unicode="&#x10c;" 
d="M512 1280h128v128h-128v-128zM384 1280v128h-128v-128h128zM384 1152h128v128h-128v-128zM768 896v128h-512v-128h512zM768 768h128v128h-128v-128zM128 768h128v128h-128v-128zM128 256v512h-128v-512h128zM768 128h128v128h-128v-128zM256 128v128h-128v-128h128z
M768 128h-512v-128h512v128z" />
    <glyph glyph-name="ccaron" unicode="&#x10d;" 
d="M512 1024h128v128h-128v-128zM384 1024v128h-128v-128h128zM384 896h128v128h-128v-128zM640 640v128h-384v-128h384zM640 512h128v128h-128v-128zM256 128v512h-128v-512h128zM640 128h128v128h-128v-128zM256 128v-128h384v128h-384z" />
    <glyph glyph-name="Dcaron" unicode="&#x10e;" 
d="M384 1280h128v128h-128v-128zM256 1280v128h-128v-128h128zM256 1152h128v128h-128v-128zM768 256h128v512h-128v128h-128v128h-640v-1024h640v128h-512v768h512v-128h128v-512h-128v-128h128v128z" />
    <glyph glyph-name="dcaron" unicode="&#x10f;" 
d="M512 1152h-128v-384h-256v-128h-128v-512h128v-128h384v1152zM768 896h128v256h-256v-128h128v-128zM640 768h128v128h-128v-128zM128 128v512h256v-512h-256z" />
    <glyph glyph-name="Dcroat" unicode="&#x110;" 
d="M768 256h128v512h-128v128h-128v128h-512v-384h-128v-128h128v-512h512v128h-384v384h256v128h-256v256h384v-128h128v-512h-128v-128h128v128z" />
    <glyph glyph-name="dcroat" unicode="&#x111;" 
d="M256 128v512h-128v-512h128v-128h256v128h128v-128h128v896h128v128h-128v128h-128v-128h-128v-128h128v-256h-128v128h-256v-128h256v-128h128v-256h-128v-128h-256z" />
    <glyph glyph-name="Emacron" unicode="&#x112;" 
d="M640 1280h-384v-128h384v128zM768 128h-512v384h384v128h-384v256h512v128h-640v-1024h640v128z" />
    <glyph glyph-name="emacron" unicode="&#x113;" 
d="M640 1024h-384v-128h384v128zM640 640v128h-384v-128h384zM256 128v256h512v256h-128v-128h-384v128h-128v-512h128zM640 128h128v128h-128v-128zM256 128v-128h384v128h-384z" />
    <glyph glyph-name="Ebreve" unicode="&#x114;" 
d="M512 1280h128v128h-128v-128zM256 1280v128h-128v-128h128zM512 1280h-256v-128h256v128zM768 128h-512v384h384v128h-384v256h512v128h-640v-1024h640v128z" />
    <glyph glyph-name="ebreve" unicode="&#x115;" 
d="M512 1024h128v128h-128v-128zM256 1024v128h-128v-128h128zM512 1024h-256v-128h256v128zM640 640v128h-384v-128h384zM256 128v256h512v256h-128v-128h-384v128h-128v-512h128zM640 128h128v128h-128v-128zM256 128v-128h384v128h-384z" />
    <glyph glyph-name="Edotaccent" unicode="&#x116;" 
d="M384 1152h128v128h-128v-128zM768 128h-512v384h384v128h-384v256h512v128h-640v-1024h640v128z" />
    <glyph glyph-name="edotaccent" unicode="&#x117;" 
d="M384 896h128v128h-128v-128zM640 640v128h-384v-128h384zM256 128v256h512v256h-128v-128h-384v128h-128v-512h128zM640 128h128v128h-128v-128zM256 128v-128h384v128h-384z" />
    <glyph glyph-name="Eogonek" unicode="&#x118;" 
d="M640 -128v128h128v128h-512v384h384v128h-384v256h512v128h-640v-1024h384v-128h128zM640 -256h128v128h-128v-128z" />
    <glyph glyph-name="eogonek" unicode="&#x119;" 
d="M640 640v128h-384v-128h384zM256 128v256h512v256h-128v-128h-384v128h-128v-512h128zM640 128h128v128h-128v-128zM256 128v-128h128v-128h128v128h128v128h-384zM512 -256h128v128h-128v-128z" />
    <glyph glyph-name="Ecaron" unicode="&#x11a;" 
d="M512 1280h128v128h-128v-128zM384 1280v128h-128v-128h128zM384 1152h128v128h-128v-128zM768 128h-512v384h384v128h-384v256h512v128h-640v-1024h640v128z" />
    <glyph glyph-name="ecaron" unicode="&#x11b;" 
d="M512 1024h128v128h-128v-128zM384 1024v128h-128v-128h128zM384 896h128v128h-128v-128zM640 640v128h-384v-128h384zM256 128v256h512v256h-128v-128h-384v128h-128v-512h128zM640 128h128v128h-128v-128zM256 128v-128h384v128h-384z" />
    <glyph glyph-name="Gcircumflex" unicode="&#x11c;" 
d="M512 1280v128h-128v-128h128zM512 1152h128v128h-128v-128zM256 1152h128v128h-128v-128zM768 896v128h-512v-128h512zM768 768h128v128h-128v-128zM128 768h128v128h-128v-128zM128 256v512h-128v-512h128zM768 128h128v384h-384v-128h256v-256zM256 128v128h-128v-128
h128zM768 128h-512v-128h512v128z" />
    <glyph glyph-name="gcircumflex" unicode="&#x11d;" 
d="M512 1024v128h-128v-128h128zM512 896h128v128h-128v-128zM256 896h128v128h-128v-128zM640 640v128h-384v-128h384zM256 128v-128h256v128h128v-384h128v896h-128v-384h-128v-128h-256v512h-128v-512h128zM256 -256v128h-128v-128h128zM640 -256h-384v-128h384v128z" />
    <glyph glyph-name="Gbreve" unicode="&#x11e;" 
d="M640 1280h128v128h-128v-128zM384 1280v128h-128v-128h128zM640 1280h-256v-128h256v128zM768 896v128h-512v-128h512zM768 768h128v128h-128v-128zM128 768h128v128h-128v-128zM128 256v512h-128v-512h128zM768 128h128v384h-384v-128h256v-256zM256 128v128h-128v-128
h128zM768 128h-512v-128h512v128z" />
    <glyph glyph-name="gbreve" unicode="&#x11f;" 
d="M512 1024h128v128h-128v-128zM256 1024v128h-128v-128h128zM512 1024h-256v-128h256v128zM640 640v128h-384v-128h384zM256 128v-128h256v128h128v-384h128v896h-128v-384h-128v-128h-256v512h-128v-512h128zM256 -256v128h-128v-128h128zM640 -256h-384v-128h384v128z
" />
    <glyph glyph-name="Gdotaccent" unicode="&#x120;" 
d="M384 1152h128v128h-128v-128zM768 896v128h-512v-128h512zM768 768h128v128h-128v-128zM128 768h128v128h-128v-128zM128 256v512h-128v-512h128zM768 128h128v384h-384v-128h256v-256zM256 128v128h-128v-128h128zM768 128h-512v-128h512v128z" />
    <glyph glyph-name="gdotaccent" unicode="&#x121;" 
d="M384 896h128v128h-128v-128zM640 640v128h-384v-128h384zM256 128v-128h256v128h128v-384h128v896h-128v-384h-128v-128h-256v512h-128v-512h128zM256 -256v128h-128v-128h128zM640 -256h-384v-128h384v128z" />
    <glyph glyph-name="Gcommaaccent" unicode="&#x122;" 
d="M768 896v128h-512v-128h512zM768 768h128v128h-128v-128zM128 768h128v128h-128v-128zM128 256v512h-128v-512h128zM768 128h128v384h-384v-128h256v-256zM256 128v128h-128v-128h128zM640 -128v128h128v128h-512v-128h256v-128h128zM640 -256h128v128h-128v-128z
M640 -256h-256v-128h256v128z" />
    <glyph glyph-name="gcommaaccent" unicode="&#x123;" 
d="M384 1152h128v128h-128v-128zM512 1024h-128v128h-128v-256h256v128zM640 640v128h-384v-128h384zM256 128v-128h256v128h128v-384h128v896h-128v-384h-128v-128h-256v512h-128v-512h128zM256 -256v128h-128v-128h128zM640 -256h-384v-128h384v128z" />
    <glyph glyph-name="Hcircumflex" unicode="&#x124;" 
d="M512 1280v128h-128v-128h128zM512 1152h128v128h-128v-128zM256 1152h128v128h-128v-128zM640 0h128v1024h-128v-384h-512v384h-128v-1024h128v512h512v-512z" />
    <glyph glyph-name="hcircumflex" unicode="&#x125;" 
d="M640 1280v128h-128v-128h128zM640 1152h128v128h-128v-128zM384 1152h128v128h-128v-128zM128 0h128v512h128v128h-128v512h-128v-1152zM640 640v128h-256v-128h256zM640 0h128v640h-128v-640z" />
    <glyph glyph-name="Hbar" unicode="&#x126;" 
d="M640 0h128v768h128v128h-128v128h-128v-128h-384v128h-128v-128h-128v-128h128v-768h128v512h384v-512zM256 640v128h384v-128h-384z" />
    <glyph glyph-name="hbar" unicode="&#x127;" 
d="M128 0h128v512h128v128h-128v256h128v128h-128v128h-128v-128h-128v-128h128v-896zM640 640v128h-256v-128h256zM640 0h128v640h-128v-640z" />
    <glyph glyph-name="Itilde" unicode="&#x128;" 
d="M640 1280h-128v128h-256v-128h128v-128h256v128zM640 1280h128v128h-128v-128zM128 1152h128v128h-128v-128zM768 128h-256v768h256v128h-640v-128h256v-768h-256v-128h640v128z" />
    <glyph glyph-name="itilde" unicode="&#x129;" 
d="M640 1024h-128v128h-256v-128h128v-128h256v128zM640 1024h128v128h-128v-128zM128 896h128v128h-128v-128zM384 0h128v768h-128v-768z" />
    <glyph glyph-name="Imacron" unicode="&#x12a;" 
d="M640 1280h-384v-128h384v128zM768 128h-256v768h256v128h-640v-128h256v-768h-256v-128h640v128z" />
    <glyph glyph-name="imacron" unicode="&#x12b;" 
d="M640 1024h-384v-128h384v128zM384 0h128v768h-128v-768z" />
    <glyph glyph-name="Ibreve" unicode="&#x12c;" 
d="M512 1280h128v128h-128v-128zM256 1280v128h-128v-128h128zM512 1280h-256v-128h256v128zM768 128h-256v768h256v128h-640v-128h256v-768h-256v-128h640v128z" />
    <glyph glyph-name="ibreve" unicode="&#x12d;" 
d="M384 1024h128v128h-128v-128zM128 1024v128h-128v-128h128zM384 1024h-256v-128h256v128zM128 0h128v768h-128v-768z" />
    <glyph glyph-name="Iogonek" unicode="&#x12e;" 
d="M384 -128h128v128h256v128h-256v768h256v128h-640v-128h256v-768h-256v-128h256v-128zM384 -256v128h-128v-128h128zM384 -384h128v128h-128v-128z" />
    <glyph glyph-name="iogonek" unicode="&#x12f;" 
d="M128 896h128v128h-128v-128zM128 -128h128v896h-128v-896zM128 -256v128h-128v-128h128zM128 -384h128v128h-128v-128z" />
    <glyph glyph-name="Idotaccent" unicode="&#x130;" 
d="M384 1152h128v128h-128v-128zM768 128h-256v768h256v128h-640v-128h256v-768h-256v-128h640v128z" />
    <glyph glyph-name="dotlessi" unicode="&#x131;" 
d="M128 0h128v768h-128v-768z" />
    <glyph glyph-name="IJ" unicode="&#x132;" 
d="M384 128h-128v768h128v128h-384v-128h128v-768h-128v-128h384v128zM768 128h128v896h-128v-896zM768 128h-256v-128h256v128z" />
    <glyph glyph-name="ij" unicode="&#x133;" 
d="M512 896h128v128h-128v-128zM256 896h128v128h-128v-128zM256 0h128v768h-128v-768zM512 -128h128v896h-128v-896zM384 -256h128v128h-128v-128z" />
    <glyph glyph-name="Jcircumflex" unicode="&#x134;" 
d="M512 1280v128h-128v-128h128zM512 1152h128v128h-128v-128zM256 1152h128v128h-128v-128zM512 128h128v896h-128v-896zM256 128v128h-128v-128h128zM512 128h-256v-128h256v128z" />
    <glyph glyph-name="jcircumflex" unicode="&#x135;" 
d="M512 1024v128h-128v-128h128zM512 896h128v128h-128v-128zM256 896h128v128h-128v-128zM384 -256h128v1024h-128v-1024zM384 -256h-256v-128h256v128z" />
    <glyph glyph-name="Kcommaaccent" unicode="&#x136;" 
d="M128 0h128v512h128v-128h128v-128h128v-128h128v128h-128v128h-128v128h-128v128h-128v384h-128v-1024zM640 896h128v128h-128v-128zM512 768h128v128h-128v-128zM384 640h128v128h-128v-128zM768 0h128v128h-128v-128zM512 -128v128h-128v-128h128zM512 -256h128v128
h-128v-128zM512 -256h-256v-128h256v128z" />
    <glyph glyph-name="kcommaaccent" unicode="&#x137;" 
d="M128 0h128v384h128v-128h128v-128h128v128h-128v128h-128v128h-128v640h-128v-1152zM512 640h128v128h-128v-128zM384 512h128v128h-128v-128zM640 0h128v128h-128v-128zM512 -128v128h-128v-128h128zM512 -256h128v128h-128v-128zM512 -256h-256v-128h256v128z" />
    <glyph glyph-name="kgreenlandic" unicode="&#x138;" 
d="M0 0h128v384h128v-128h128v-128h128v128h-128v128h-128v128h-128v256h-128v-768zM384 640h128v128h-128v-128zM256 512h128v128h-128v-128zM512 0h128v128h-128v-128z" />
    <glyph glyph-name="Lacute" unicode="&#x139;" 
d="M256 1280h128v128h-128v-128zM128 1152h128v128h-128v-128zM768 128h-512v896h-128v-1024h640v128z" />
    <glyph glyph-name="lacute" unicode="&#x13a;" 
d="M256 1280h128v128h-128v-128zM128 1152h128v128h-128v-128zM128 0h128v1024h-128v-1024z" />
    <glyph glyph-name="Lcommaaccent" unicode="&#x13b;" 
d="M768 128h-512v896h-128v-1024h640v128zM512 -256v128h-128v-128h128zM512 -384h128v128h-128v-128zM512 -384h-256v-128h256v128z" />
    <glyph glyph-name="lcommaaccent" unicode="&#x13c;" 
d="M256 -128v1280h-128v-1280h128zM256 -256h128v128h-128v-128zM256 -256h-256v-128h256v128z" />
    <glyph glyph-name="Lcaron" unicode="&#x13d;" 
d="M768 128h-512v896h-128v-1024h640v128zM512 768h128v256h-256v-128h128v-128zM384 640h128v128h-128v-128z" />
    <glyph glyph-name="lcaron" unicode="&#x13e;" 
d="M128 0h128v1152h-128v-1152zM512 896h128v256h-256v-128h128v-128zM384 768h128v128h-128v-128z" />
    <glyph glyph-name="Ldot" unicode="&#x13f;" 
d="M768 128h-512v896h-128v-1024h640v128zM384 256h128v128h-128v-128z" />
    <glyph glyph-name="ldot" unicode="&#x140;" 
d="M128 0h128v1152h-128v-1152zM384 256h128v128h-128v-128z" />
    <glyph glyph-name="Lslash" unicode="&#x141;" 
d="M768 128h-512v512h128v128h-128v256h-128v-512h-128v-128h128v-384h640v128zM384 768h128v128h-128v-128z" />
    <glyph glyph-name="lslash" unicode="&#x142;" 
d="M128 0h128v640h128v128h-128v384h-128v-640h-128v-128h128v-384zM384 768h128v128h-128v-128z" />
    <glyph glyph-name="Nacute" unicode="&#x143;" 
d="M512 1152h128v128h-128v-128zM384 1024h128v128h-128v-128zM0 0h128v768h128v-128h128v-256h128v-128h128v-128h128v-128h128v1024h-128v-768h-128v128h-128v256h-128v128h-128v128h-128v128h-128v-1024z" />
    <glyph glyph-name="nacute" unicode="&#x144;" 
d="M512 1024h128v128h-128v-128zM384 896h128v128h-128v-128zM128 0h128v512h128v128h-128v128h-128v-768zM640 640v128h-256v-128h256zM640 0h128v640h-128v-640z" />
    <glyph glyph-name="Ncommaaccent" unicode="&#x145;" 
d="M0 0h128v768h128v-128h128v-256h128v-128h128v-128h128v-128h128v1024h-128v-768h-128v128h-128v256h-128v128h-128v128h-128v128h-128v-1024zM512 -128v128h-128v-128h128zM512 -256h128v128h-128v-128zM512 -256h-256v-128h256v128z" />
    <glyph glyph-name="ncommaaccent" unicode="&#x146;" 
d="M128 0h128v512h128v128h-128v128h-128v-768zM640 640v128h-256v-128h256zM640 0h128v640h-128v-640zM512 -128v128h-128v-128h128zM512 -256h128v128h-128v-128zM512 -256h-256v-128h256v128z" />
    <glyph glyph-name="Ncaron" unicode="&#x147;" 
d="M512 1280h128v128h-128v-128zM384 1280v128h-128v-128h128zM384 1152h128v128h-128v-128zM0 0h128v768h128v-128h128v-256h128v-128h128v-128h128v-128h128v1024h-128v-768h-128v128h-128v256h-128v128h-128v128h-128v128h-128v-1024z" />
    <glyph glyph-name="ncaron" unicode="&#x148;" 
d="M512 1024h128v128h-128v-128zM384 1024v128h-128v-128h128zM384 896h128v128h-128v-128zM128 0h128v512h128v128h-128v128h-128v-768zM640 640v128h-256v-128h256zM640 0h128v640h-128v-640z" />
    <glyph glyph-name="napostrophe" unicode="&#x149;" 
d="M256 768v256h-256v-128h128v-128h128zM256 0h128v512h128v128h-128v128h-128v-768zM0 640h128v128h-128v-128zM768 640v128h-256v-128h256zM768 0h128v640h-128v-640z" />
    <glyph glyph-name="Eng" unicode="&#x14a;" 
d="M0 0h128v768h128v128h-128v128h-128v-1024zM640 896v128h-384v-128h384zM768 768v128h-128v-128h128zM768 256h128v512h-128v-512zM640 128h128v128h-128v-128zM640 128h-256v-128h256v128z" />
    <glyph glyph-name="eng" unicode="&#x14b;" 
d="M128 0h128v512h128v128h-128v128h-128v-768zM640 640v128h-256v-128h256zM640 0h128v640h-128v-640z" />
    <glyph glyph-name="Omacron" unicode="&#x14c;" 
d="M640 1280h-384v-128h384v128zM640 896v128h-384v-128h384zM768 768v128h-128v-128h128zM128 768h128v128h-128v-128zM768 256h128v512h-128v-512zM128 256v512h-128v-512h128zM640 128h128v128h-128v-128zM256 128v128h-128v-128h128zM640 128h-384v-128h384v128z" />
    <glyph glyph-name="omacron" unicode="&#x14d;" 
d="M640 1024h-384v-128h384v128zM640 640v128h-384v-128h384zM640 128h128v512h-128v-512zM256 128v512h-128v-512h128zM256 128v-128h384v128h-384z" />
    <glyph glyph-name="Obreve" unicode="&#x14e;" 
d="M512 1280h128v128h-128v-128zM256 1280v128h-128v-128h128zM512 1280h-256v-128h256v128zM640 896v128h-384v-128h384zM768 768v128h-128v-128h128zM128 768h128v128h-128v-128zM768 256h128v512h-128v-512zM128 256v512h-128v-512h128zM640 128h128v128h-128v-128z
M256 128v128h-128v-128h128zM640 128h-384v-128h384v128z" />
    <glyph glyph-name="obreve" unicode="&#x14f;" 
d="M640 1024h128v128h-128v-128zM384 1024v128h-128v-128h128zM640 1024h-256v-128h256v128zM640 640v128h-384v-128h384zM640 128h128v512h-128v-512zM256 128v512h-128v-512h128zM256 128v-128h384v128h-384z" />
    <glyph glyph-name="Ohungarumlaut" unicode="&#x150;" 
d="M640 1280h128v128h-128v-128zM512 1280v128h-128v-128h128zM512 1152h128v128h-128v-128zM256 1152h128v128h-128v-128zM640 896v128h-384v-128h384zM768 768v128h-128v-128h128zM128 768h128v128h-128v-128zM768 256h128v512h-128v-512zM128 256v512h-128v-512h128z
M640 128h128v128h-128v-128zM256 128v128h-128v-128h128zM640 128h-384v-128h384v128z" />
    <glyph glyph-name="ohungarumlaut" unicode="&#x151;" 
d="M640 1024h128v128h-128v-128zM512 1024v128h-128v-128h128zM512 896h128v128h-128v-128zM256 896h128v128h-128v-128zM640 640v128h-384v-128h384zM640 128h128v512h-128v-512zM256 128v512h-128v-512h128zM256 128v-128h384v128h-384z" />
    <glyph glyph-name="OE" unicode="&#x152;" 
d="M896 128h-256v384h256v128h-256v256h256v128h-640v-128h-128v-128h-128v-512h128v-128h128v-128h640v128zM256 128v128h-128v512h128v128h256v-768h-256z" />
    <glyph glyph-name="oe" unicode="&#x153;" 
d="M768 640v128h-256v-128h256zM384 640v128h-256v-128h256zM512 128v256h384v256h-128v-128h-256v128h-128v-512h128zM128 128v512h-128v-512h128zM768 128h128v128h-128v-128zM512 128v-128h256v128h-256zM128 128v-128h256v128h-256z" />
    <glyph glyph-name="Racute" unicode="&#x154;" 
d="M384 1280h128v128h-128v-128zM256 1152h128v128h-128v-128zM128 0h128v384h256v-128h128v-128h128v128h-128v256h-384v384h384v-384h128v384h-128v128h-512v-1024zM768 0h128v128h-128v-128z" />
    <glyph glyph-name="racute" unicode="&#x155;" 
d="M384 1024h128v128h-128v-128zM256 896h128v128h-128v-128zM128 0h128v512h128v128h-128v128h-128v-768zM640 640v128h-256v-128h256zM640 512h128v128h-128v-128z" />
    <glyph glyph-name="Rcommaaccent" unicode="&#x156;" 
d="M128 0h128v384h256v-128h128v-128h128v128h-128v256h-384v384h384v-384h128v384h-128v128h-512v-1024zM768 0h128v128h-128v-128zM512 -128v128h-128v-128h128zM512 -256h128v128h-128v-128zM512 -256h-256v-128h256v128z" />
    <glyph glyph-name="rcommaaccent" unicode="&#x157;" 
d="M256 -128v640h128v128h-128v128h-128v-896h128zM640 640v128h-256v-128h256zM640 512h128v128h-128v-128zM256 -256h128v128h-128v-128zM256 -256h-256v-128h256v128z" />
    <glyph glyph-name="Rcaron" unicode="&#x158;" 
d="M512 1280h128v128h-128v-128zM384 1280v128h-128v-128h128zM384 1152h128v128h-128v-128zM128 0h128v384h256v-128h128v-128h128v128h-128v256h-384v384h384v-384h128v384h-128v128h-512v-1024zM768 0h128v128h-128v-128z" />
    <glyph glyph-name="rcaron" unicode="&#x159;" 
d="M512 1024h128v128h-128v-128zM384 1024v128h-128v-128h128zM384 896h128v128h-128v-128zM128 0h128v512h128v128h-128v128h-128v-768zM640 640v128h-256v-128h256zM640 512h128v128h-128v-128z" />
    <glyph glyph-name="Sacute" unicode="&#x15a;" 
d="M512 1280h128v128h-128v-128zM384 1152h128v128h-128v-128zM640 896v128h-384v-128h384zM640 768h128v128h-128v-128zM256 640v256h-128v-256h128zM256 640v-128h256v128h-256zM640 384v128h-128v-128h128zM640 128h128v256h-128v-256zM256 128v128h-128v-128h128z
M640 128h-384v-128h384v128z" />
    <glyph glyph-name="sacute" unicode="&#x15b;" 
d="M384 1024h128v128h-128v-128zM256 896h128v128h-128v-128zM512 640v128h-256v-128h256zM512 512h128v128h-128v-128zM256 512v128h-128v-128h128zM384 384v128h-128v-128h128zM512 256v128h-128v-128h128zM512 128h128v128h-128v-128zM256 128v128h-128v-128h128z
M512 128h-256v-128h256v128z" />
    <glyph glyph-name="Scircumflex" unicode="&#x15c;" 
d="M512 1280v128h-128v-128h128zM512 1152h128v128h-128v-128zM256 1152h128v128h-128v-128zM640 896v128h-384v-128h384zM640 768h128v128h-128v-128zM256 640v256h-128v-256h128zM256 640v-128h256v128h-256zM640 384v128h-128v-128h128zM640 128h128v256h-128v-256z
M256 128v128h-128v-128h128zM640 128h-384v-128h384v128z" />
    <glyph glyph-name="scircumflex" unicode="&#x15d;" 
d="M512 1024v128h-128v-128h128zM512 896h128v128h-128v-128zM256 896h128v128h-128v-128zM512 640v128h-256v-128h256zM512 512h128v128h-128v-128zM256 512v128h-128v-128h128zM384 384v128h-128v-128h128zM512 256v128h-128v-128h128zM512 128h128v128h-128v-128z
M256 128v128h-128v-128h128zM512 128h-256v-128h256v128z" />
    <glyph glyph-name="Scedilla" unicode="&#x15e;" 
d="M640 896v128h-384v-128h384zM640 768h128v128h-128v-128zM256 640v256h-128v-256h128zM256 640v-128h256v128h-256zM640 384v128h-128v-128h128zM640 128h128v256h-128v-256zM256 128v128h-128v-128h128zM384 -128v128h256v128h-384v-256h128zM384 -256h128v128h-128
v-128zM384 -256h-256v-128h256v128z" />
    <glyph glyph-name="scedilla" unicode="&#x15f;" 
d="M512 640v128h-256v-128h256zM512 512h128v128h-128v-128zM256 512v128h-128v-128h128zM384 384v128h-128v-128h128zM512 256v128h-128v-128h128zM512 128h128v128h-128v-128zM256 128v128h-128v-128h128zM384 -128v128h128v128h-256v-256h128zM384 -256h128v128h-128
v-128zM384 -256h-256v-128h256v128z" />
    <glyph glyph-name="Scaron" unicode="&#x160;" 
d="M512 1280h128v128h-128v-128zM384 1280v128h-128v-128h128zM384 1152h128v128h-128v-128zM640 896v128h-384v-128h384zM640 768h128v128h-128v-128zM256 640v256h-128v-256h128zM256 640v-128h256v128h-256zM640 384v128h-128v-128h128zM640 128h128v256h-128v-256z
M256 128v128h-128v-128h128zM640 128h-384v-128h384v128z" />
    <glyph glyph-name="scaron" unicode="&#x161;" 
d="M512 1024h128v128h-128v-128zM384 1024v128h-128v-128h128zM384 896h128v128h-128v-128zM512 640v128h-256v-128h256zM512 512h128v128h-128v-128zM256 512v128h-128v-128h128zM384 384v128h-128v-128h128zM512 256v128h-128v-128h128zM512 128h128v128h-128v-128z
M256 128v128h-128v-128h128zM512 128h-256v-128h256v128z" />
    <glyph glyph-name="Tcommaaccent" unicode="&#x162;" 
d="M384 0h128v896h256v128h-640v-128h256v-896zM384 -128v128h-128v-128h128zM384 -256h128v128h-128v-128zM384 -256h-256v-128h256v128z" />
    <glyph glyph-name="tcommaaccent" unicode="&#x163;" 
d="M384 128v512h256v128h-256v256h-128v-256h-256v-128h256v-512h128zM384 128v-256h128v128h128v128h-256zM512 -256h128v128h-128v-128zM512 -256h-256v-128h256v128z" />
    <glyph glyph-name="Tcaron" unicode="&#x164;" 
d="M512 1280h128v128h-128v-128zM384 1280v128h-128v-128h128zM384 1152h128v128h-128v-128zM384 0h128v896h256v128h-640v-128h256v-896z" />
    <glyph glyph-name="tcaron" unicode="&#x165;" 
d="M384 128v512h256v128h-256v256h-128v-256h-256v-128h256v-512h128zM384 128v-128h256v128h-256z" />
    <glyph glyph-name="Tbar" unicode="&#x166;" 
d="M384 0h128v384h256v128h-256v384h256v128h-640v-128h256v-384h-256v-128h256v-384z" />
    <glyph glyph-name="tbar" unicode="&#x167;" 
d="M384 128v128h256v128h-256v256h256v128h-256v256h-128v-256h-256v-128h256v-256h-256v-128h256v-128h128zM384 128v-128h256v128h-256z" />
    <glyph glyph-name="Utilde" unicode="&#x168;" 
d="M640 1280h-128v128h-256v-128h128v-128h256v128zM640 1280h128v128h-128v-128zM128 1152h128v128h-128v-128zM640 128h128v896h-128v-896zM128 128v896h-128v-896h128zM128 128v-128h512v128h-512z" />
    <glyph glyph-name="utilde" unicode="&#x169;" 
d="M640 1024h-128v128h-256v-128h128v-128h256v128zM640 1024h128v128h-128v-128zM128 896h128v128h-128v-128zM256 128v-128h256v128h128v-128h128v768h-128v-512h-128v-128h-256v640h-128v-640h128z" />
    <glyph glyph-name="Umacron" unicode="&#x16a;" 
d="M640 1280h-384v-128h384v128zM640 128h128v896h-128v-896zM128 128v896h-128v-896h128zM128 128v-128h512v128h-512z" />
    <glyph glyph-name="umacron" unicode="&#x16b;" 
d="M640 1024h-384v-128h384v128zM256 128v-128h256v128h128v-128h128v768h-128v-512h-128v-128h-256v640h-128v-640h128z" />
    <glyph glyph-name="Ubreve" unicode="&#x16c;" 
d="M512 1152h128v128h-128v-128zM256 1152v128h-128v-128h128zM512 1152h-256v-128h256v128zM640 128h128v896h-128v-896zM128 128v896h-128v-896h128zM128 128v-128h512v128h-512z" />
    <glyph glyph-name="ubreve" unicode="&#x16d;" 
d="M512 1024h128v128h-128v-128zM256 1024v128h-128v-128h128zM512 1024h-256v-128h256v128zM256 128v-128h256v128h128v-128h128v768h-128v-512h-128v-128h-256v640h-128v-640h128z" />
    <glyph glyph-name="Uring" unicode="&#x16e;" 
d="M512 1280v128h-128v-128h128zM512 1152h128v128h-128v-128zM384 1152v128h-128v-128h128zM384 1024h128v128h-128v-128zM640 128h128v896h-128v-896zM128 128v896h-128v-896h128zM128 128v-128h512v128h-512z" />
    <glyph glyph-name="uring" unicode="&#x16f;" 
d="M512 1024v128h-128v-128h128zM512 896h128v128h-128v-128zM384 896v128h-128v-128h128zM384 768h128v128h-128v-128zM256 128v-128h256v128h128v-128h128v768h-128v-512h-128v-128h-256v640h-128v-640h128z" />
    <glyph glyph-name="Uhungarumlaut" unicode="&#x170;" 
d="M640 1280h128v128h-128v-128zM512 1280v128h-128v-128h128zM512 1152h128v128h-128v-128zM256 1152h128v128h-128v-128zM640 128h128v896h-128v-896zM128 128v896h-128v-896h128zM128 128v-128h512v128h-512z" />
    <glyph glyph-name="uhungarumlaut" unicode="&#x171;" 
d="M640 1024h128v128h-128v-128zM512 1024v128h-128v-128h128zM512 896h128v128h-128v-128zM256 896h128v128h-128v-128zM256 128v-128h256v128h128v-128h128v768h-128v-512h-128v-128h-256v640h-128v-640h128z" />
    <glyph glyph-name="Uogonek" unicode="&#x172;" 
d="M640 128h128v896h-128v-896zM128 128v896h-128v-896h128zM128 128v-128h128v-128h128v128h256v128h-512zM256 -256v128h-128v-128h128zM512 -256h-256v-128h256v128z" />
    <glyph glyph-name="uogonek" unicode="&#x173;" 
d="M256 128v-256h-128v-128h128v-128h256v128h-256v128h128v128h128v128h128v-128h128v768h-128v-512h-128v-128h-256v640h-128v-640h128z" />
    <glyph glyph-name="Wcircumflex" unicode="&#x174;" 
d="M512 1152v128h-128v-128h128zM512 1024h128v128h-128v-128zM256 1024h128v128h-128v-128zM768 512h128v512h-128v-512zM128 512v512h-128v-512h128zM512 256v-128h128v-128h128v512h-128v-256h-128v384h-128v-384h128zM128 0h128v128h128v128h-128v256h-128v-512z" />
    <glyph glyph-name="wcircumflex" unicode="&#x175;" 
d="M640 1024v128h-128v-128h128zM640 896h128v128h-128v-128zM384 896h128v128h-128v-128zM1024 640h128v128h-128v-128zM128 640v128h-128v-128h128zM896 256h128v384h-128v-384zM256 256v384h-128v-384h128zM640 384v256h-128v-256h128zM768 256v128h-128v-128h128z
M384 256h128v128h-128v-128zM768 0h128v256h-128v-256zM256 0h128v256h-128v-256z" />
    <glyph glyph-name="Ycircumflex" unicode="&#x176;" 
d="M512 1280v128h-128v-128h128zM512 1152h128v128h-128v-128zM256 1152h128v128h-128v-128zM768 896h128v128h-128v-128zM128 896v128h-128v-128h128zM640 640h128v256h-128v-256zM256 640v256h-128v-256h128zM512 512h128v128h-128v-128zM384 512v128h-128v-128h128z
M384 0h128v512h-128v-512z" />
    <glyph glyph-name="ycircumflex" unicode="&#x177;" 
d="M512 1024v128h-128v-128h128zM512 896h128v128h-128v-128zM256 896h128v128h-128v-128zM640 512h128v256h-128v-256zM128 512v256h-128v-256h128zM512 256h128v256h-128v-256zM256 384v128h-128v-128h128zM384 256v128h-128v-128h128zM384 0h128v256h-128v-256zM256 -256
h128v256h-128v-256zM128 -384h128v128h-128v-128z" />
    <glyph glyph-name="Ydieresis" unicode="&#x178;" 
d="M512 1152h128v128h-128v-128zM256 1152h128v128h-128v-128zM768 896h128v128h-128v-128zM128 896v128h-128v-128h128zM640 640h128v256h-128v-256zM256 640v256h-128v-256h128zM512 512h128v128h-128v-128zM384 512v128h-128v-128h128zM384 0h128v512h-128v-512z" />
    <glyph glyph-name="Zacute" unicode="&#x179;" 
d="M512 1280h128v128h-128v-128zM384 1152h128v128h-128v-128zM640 768h128v256h-768v-128h640v-128zM512 640h128v128h-128v-128zM384 512h128v128h-128v-128zM256 384h128v128h-128v-128zM128 256h128v128h-128v-128zM768 128h-640v128h-128v-256h768v128z" />
    <glyph glyph-name="zacute" unicode="&#x17a;" 
d="M512 1024h128v128h-128v-128zM384 896h128v128h-128v-128zM640 512h128v256h-640v-128h512v-128zM640 512h-256v-128h256v128zM256 256h128v128h-128v-128zM768 128h-512v128h-128v-256h640v128z" />
    <glyph glyph-name="Zdotaccent" unicode="&#x17b;" 
d="M384 1152h128v128h-128v-128zM640 768h128v256h-768v-128h640v-128zM512 640h128v128h-128v-128zM384 512h128v128h-128v-128zM256 384h128v128h-128v-128zM128 256h128v128h-128v-128zM768 128h-640v128h-128v-256h768v128z" />
    <glyph glyph-name="zdotaccent" unicode="&#x17c;" 
d="M384 896h128v128h-128v-128zM640 512h128v256h-640v-128h512v-128zM640 512h-256v-128h256v128zM256 256h128v128h-128v-128zM768 128h-512v128h-128v-256h640v128z" />
    <glyph glyph-name="Zcaron" unicode="&#x17d;" 
d="M512 1280h128v128h-128v-128zM384 1280v128h-128v-128h128zM384 1152h128v128h-128v-128zM640 768h128v256h-768v-128h640v-128zM512 640h128v128h-128v-128zM384 512h128v128h-128v-128zM256 384h128v128h-128v-128zM128 256h128v128h-128v-128zM768 128h-640v128h-128
v-256h768v128z" />
    <glyph glyph-name="zcaron" unicode="&#x17e;" 
d="M512 1024h128v128h-128v-128zM384 1024v128h-128v-128h128zM384 896h128v128h-128v-128zM640 512h128v256h-640v-128h512v-128zM640 512h-256v-128h256v128zM256 256h128v128h-128v-128zM768 128h-512v128h-128v-256h640v128z" />
    <glyph glyph-name="longs" unicode="&#x17f;" 
d="M640 1024h-256v-128h256v128zM256 0h128v896h-128v-896z" />
    <glyph glyph-name="uni0180" unicode="&#x180;" 
d="M128 0h128v128h128v-128h256v128h-256v128h-128v256h128v128h-128v256h128v128h-128v128h-128v-128h-128v-128h128v-896zM640 640v128h-256v-128h256zM768 512v128h-128v-128h128zM768 256h128v256h-128v-256zM640 128h128v128h-128v-128z" />
    <glyph glyph-name="uni0181" unicode="&#x181;" 
d="M768 896v128h-512v-128h512zM768 768h128v128h-128v-128zM128 768h128v128h-128v-128zM128 256v512h-128v-512h128zM768 128h128v384h-384v-128h256v-256zM256 128v128h-128v-128h128zM768 128h-512v-128h512v128z" />
    <glyph glyph-name="uni0182" unicode="&#x182;" 
d="M896 512h-128v128h-512v256h384v128h-384v128h-128v-128h-128v-128h128v-896h640v128h-512v384h512v-384h128v384z" />
    <glyph glyph-name="uni0183" unicode="&#x183;" 
d="M128 0h128v128h128v-128h256v128h-256v128h-128v256h128v128h-128v256h384v128h-512v-1024zM640 640v128h-256v-128h256zM768 512v128h-128v-128h128zM768 256h128v256h-128v-256zM640 128h128v128h-128v-128z" />
    <glyph glyph-name="uni0184" unicode="&#x184;" 
d="M896 512h-128v128h-512v384h-128v-128h-128v-128h128v-768h640v128h-512v384h512v-384h128v384z" />
    <glyph glyph-name="uni0185" unicode="&#x185;" 
d="M128 0h128v128h128v-128h256v128h-256v128h-128v256h128v128h-128v512h-128v-128h-128v-128h128v-896zM640 640v128h-256v-128h256zM768 512v128h-128v-128h128zM768 256h128v256h-128v-256zM640 128h128v128h-128v-128z" />
    <glyph glyph-name="uni0186" unicode="&#x186;" 
d="M640 896v128h-512v-128h512zM0 768h128v128h-128v-128zM768 768v128h-128v-128h128zM768 256h128v512h-128v-512zM640 128h128v128h-128v-128zM128 128v128h-128v-128h128zM640 128h-512v-128h512v128z" />
    <glyph glyph-name="uni0187" unicode="&#x187;" 
d="M640 768h128v256h128v128h-256v-128h-384v-128h-128v-128h-128v-512h128v-128h128v-128h384v128h-384v128h-128v512h128v128h384v-128zM640 128h128v128h-128v-128z" />
    <glyph glyph-name="uni0188" unicode="&#x188;" 
d="M640 512h128v256h128v128h-256v-128h-384v-128h-128v-512h128v-128h384v128h-384v512h384v-128zM640 128h128v128h-128v-128z" />
    <glyph glyph-name="uni0189" unicode="&#x189;" 
d="M768 256h128v512h-128v128h-128v128h-512v-384h-128v-128h128v-512h512v128h-384v384h256v128h-256v256h384v-128h128v-512h-128v-128h128v128z" />
    <glyph glyph-name="uni018A" unicode="&#x18a;" 
d="M768 256h128v512h-128v128h-128v128h-512v-128h128v-896h384v128h-256v768h256v-128h128v-512h-128v-128h128v128zM0 640h128v256h-128v-256z" />
    <glyph glyph-name="uni018B" unicode="&#x18b;" 
d="M896 1024h-640v-128h512v-256h-512v-128h-128v-384h128v-128h640v1024zM256 128v384h512v-384h-512z" />
    <glyph glyph-name="uni018C" unicode="&#x18c;" 
d="M256 128v128h-128v-128h128v-128h256v128h128v-128h128v1024h-512v-128h384v-256h-128v128h-256v-128h256v-128h128v-256h-128v-128h-256zM128 512h128v128h-128v-128zM128 256v256h-128v-256h128z" />
    <glyph glyph-name="uni018D" unicode="&#x18d;" 
d="M640 640v128h-384v-128h384zM640 128h128v512h-128v-512zM256 128v512h-128v-512h128zM256 128v-128h256v-128h-384v-128h640v128h-128v256h-384z" />
    <glyph glyph-name="uni018E" unicode="&#x18e;" 
d="M768 1024h-768v-128h640v-256h-512v-128h512v-384h-640v-128h768v1024z" />
    <glyph glyph-name="uni018F" unicode="&#x18f;" 
d="M640 768v128h-384v-128h384zM128 640h128v128h-128v-128zM640 128h128v640h-128v-256h-512v-384h128v256h384v-256zM640 128h-384v-128h384v128z" />
    <glyph glyph-name="uni0190" unicode="&#x190;" 
d="M640 896v128h-384v-128h384zM640 768h128v128h-128v-128zM256 640v256h-128v-256h128zM256 640v-128h256v128h-256zM256 128v384h-128v-384h128zM640 128h128v128h-128v-128zM256 128v-128h384v128h-384z" />
    <glyph glyph-name="uni0191" unicode="&#x191;" 
d="M128 -128h128v640h512v128h-512v256h640v128h-768v-1152zM0 -256h128v128h-128v-128z" />
    <glyph glyph-name="florin" unicode="&#x192;" 
d="M640 1024h-256v-128h256v128zM256 128h128v512h256v128h-256v128h-128v-128h-128v-128h128v-512zM128 -128h128v256h-128v-256zM0 -256h128v128h-128v-128z" />
    <glyph glyph-name="uni0193" unicode="&#x193;" 
d="M768 896v128h128v128h-256v-128h-384v-128h512zM768 768h128v128h-128v-128zM128 768h128v128h-128v-128zM128 256v512h-128v-512h128zM768 128h128v384h-384v-128h256v-256zM256 128v128h-128v-128h128zM768 128h-512v-128h512v128z" />
    <glyph glyph-name="uni0194" unicode="&#x194;" 
d="M768 768h128v256h-128v-256zM128 768v256h-128v-256h128zM640 512h128v256h-128v-256zM256 512v256h-128v-256h128zM512 256h128v256h-128v-256zM384 256v256h-128v-256h128zM512 128v128h-128v-128h128zM512 -128h128v256h-128v-256zM384 -128v256h-128v-256h128z
M384 -256h128v128h-128v-128z" />
    <glyph glyph-name="uni0195" unicode="&#x195;" 
d="M0 0h128v640h384v-512h128v512h-128v128h-384v256h-128v-1024zM768 128h128v640h-128v-640zM640 0h128v128h-128v-128z" />
    <glyph glyph-name="uni0196" unicode="&#x196;" 
d="M512 128v896h-128v-896h128zM512 0h128v128h-128v-128z" />
    <glyph glyph-name="uni0197" unicode="&#x197;" 
d="M384 0h128v512h128v128h-128v384h-128v-384h-128v-128h128v-512z" />
    <glyph glyph-name="uni0198" unicode="&#x198;" 
d="M512 1024h-256v-128h256v128zM128 0h128v384h256v-128h128v-128h128v128h-128v128h-128v128h-256v384h-128v-896zM768 768h128v128h-128v-128zM640 640h128v128h-128v-128zM512 512h128v128h-128v-128zM768 0h128v128h-128v-128z" />
    <glyph glyph-name="uni0199" unicode="&#x199;" 
d="M256 896h128v128h-128v-128zM128 0h128v384h128v-128h128v-128h128v128h-128v128h-128v128h-128v384h-128v-896zM512 640h128v128h-128v-128zM384 512h128v128h-128v-128zM640 0h128v128h-128v-128z" />
    <glyph glyph-name="uni019A" unicode="&#x19a;" 
d="M384 0h128v512h128v128h-128v384h-128v-384h-128v-128h128v-512z" />
    <glyph glyph-name="uni019B" unicode="&#x19b;" 
d="M384 1024v128h-128v-128h128zM512 512v384h128v128h-256v-128h-128v-128h128v-256h128zM640 384v128h-128v-128h128zM256 384h128v128h-128v-128zM768 128v256h-128v-256h128zM128 128h128v256h-128v-256zM768 0h128v128h-128v-128zM0 0h128v128h-128v-128z" />
    <glyph glyph-name="uni019C" unicode="&#x19c;" 
d="M512 128v-128h384v1024h-128v-896h-256v896h-128v-896h128zM128 128v896h-128v-896h128zM128 128v-128h256v128h-256z" />
    <glyph glyph-name="uni019D" unicode="&#x19d;" 
d="M128 -128h128v896h128v-256h128v-256h128v-256h256v1024h-128v-768h-128v256h-128v256h-128v256h-256v-1152zM0 -256h128v128h-128v-128z" />
    <glyph glyph-name="uni019E" unicode="&#x19e;" 
d="M128 0h128v512h128v128h-128v128h-128v-768zM640 640v128h-256v-128h256zM640 -256h128v896h-128v-896z" />
    <glyph glyph-name="uni019F" unicode="&#x19f;" 
d="M640 896v128h-384v-128h384zM768 768v128h-128v-128h128zM128 768h128v128h-128v-128zM768 256h128v512h-128v-128h-640v128h-128v-512h128v256h640v-256zM640 128h128v128h-128v-128zM256 128v128h-128v-128h128zM640 128h-384v-128h384v128z" />
    <glyph glyph-name="Ohorn" unicode="&#x1a0;" 
d="M768 1024h128v256h-256v-128h128v-128zM768 768v256h-512v-128h-128v-128h128v128h384v-128h128zM768 256h128v512h-128v-512zM128 256v512h-128v-512h128zM640 128h128v128h-128v-128zM256 128v128h-128v-128h128zM640 128h-384v-128h384v128z" />
    <glyph glyph-name="ohorn" unicode="&#x1a1;" 
d="M768 896h128v256h-256v-128h128v-128zM640 768h128v128h-128v-128zM640 640v128h-384v-128h384zM640 128h128v512h-128v-512zM256 128v512h-128v-512h128zM256 128v-128h384v128h-384z" />
    <glyph glyph-name="uni01A2" unicode="&#x1a2;" 
d="M896 -256h128v1280h-768v-128h-128v-128h-128v-512h128v-128h128v-128h512v896h128v-1152zM256 128v128h-128v512h128v128h384v-768h-384z" />
    <glyph glyph-name="uni01A3" unicode="&#x1a3;" 
d="M640 -256h128v1024h-640v-128h-128v-512h128v-128h384v640h128v-896zM128 128v512h256v-512h-256z" />
    <glyph glyph-name="uni01A4" unicode="&#x1a4;" 
d="M256 0h128v384h384v128h-384v384h384v-384h128v384h-128v128h-640v-128h-128v-128h128v128h128v-896z" />
    <glyph glyph-name="uni01A5" unicode="&#x1a5;" 
d="M512 1024h-256v-128h256v128zM128 -256h128v256h384v128h-384v512h384v-512h128v512h-128v128h-384v128h-128v-1152z" />
    <glyph glyph-name="uni01A6" unicode="&#x1a6;" 
d="M128 0h128v256h256v-128h128v-128h128v128h-128v256h-384v384h512v-256h-128v-128h128v128h128v256h-128v128h-512v128h-128v-1024zM768 -128h128v128h-128v-128z" />
    <glyph glyph-name="uni01A7" unicode="&#x1a7;" 
d="M768 896v128h-512v-128h512zM128 768h128v128h-128v-128zM768 640h128v256h-128v-256zM768 640h-384v-128h384v128zM256 384h128v128h-128v-128zM768 128h128v256h-128v-256zM256 128v256h-128v-256h128zM256 128v-128h512v128h-512z" />
    <glyph glyph-name="uni01A8" unicode="&#x1a8;" 
d="M512 640v128h-256v-128h256zM128 512h128v128h-128v-128zM384 384h256v256h-128v-128h-128v-128zM256 256h128v128h-128v-128zM256 128v128h-128v-128h128zM640 128h-384v-128h384v128z" />
    <glyph glyph-name="uni01A9" unicode="&#x1a9;" 
d="M384 768v128h512v128h-768v-128h128v-128h128zM512 640v128h-128v-128h128zM512 512h128v128h-128v-128zM384 384h128v128h-128v-128zM256 256h128v128h-128v-128zM896 128h-640v128h-128v-256h768v128z" />
    <glyph glyph-name="uni01AA" unicode="&#x1aa;" 
d="M256 1024v128h-128v-128h128zM384 -128v1152h-128v-128h-128v128h-128v-128h128v-128h128v-896h128zM384 -256h128v128h-128v-128z" />
    <glyph glyph-name="uni01AB" unicode="&#x1ab;" 
d="M256 0v640h128v128h-128v128h-128v-128h-128v-128h128v-640h128zM256 0v-256h128v256h-128zM128 -384h128v128h-128v-128z" />
    <glyph glyph-name="uni01AC" unicode="&#x1ac;" 
d="M384 0h128v896h384v128h-768v-128h-128v-128h128v128h256v-896z" />
    <glyph glyph-name="uni01AD" unicode="&#x1ad;" 
d="M512 1024h-256v-128h256v128zM256 128v512h128v128h-128v128h-128v-128h-128v-128h128v-512h128zM256 0h128v128h-128v-128z" />
    <glyph glyph-name="uni01AE" unicode="&#x1ae;" 
d="M512 -128v1024h384v128h-896v-128h384v-1024h128zM512 -256h128v128h-128v-128z" />
    <glyph glyph-name="Uhorn" unicode="&#x1af;" 
d="M768 1024h128v256h-256v-128h128v-128zM640 128h128v896h-128v-896zM128 128v896h-128v-896h128zM128 128v-128h512v128h-512z" />
    <glyph glyph-name="uhorn" unicode="&#x1b0;" 
d="M768 768h128v256h-256v-128h128v-128zM256 128v-128h256v128h128v-128h128v768h-128v-512h-128v-128h-256v640h-128v-640h128z" />
    <glyph glyph-name="uni01B1" unicode="&#x1b1;" 
d="M640 640v256h128v128h-256v-384h128zM256 640h128v384h-256v-128h128v-256zM768 512v128h-128v-128h128zM128 512h128v128h-128v-128zM768 256h128v256h-128v-256zM128 256v256h-128v-256h128zM640 128h128v128h-128v-128zM256 128v128h-128v-128h128zM640 128h-384v-128
h384v128z" />
    <glyph glyph-name="uni01B2" unicode="&#x1b2;" 
d="M256 128v896h-128v-896h128zM768 896v128h-256v-128h256zM768 256h128v640h-128v-640zM640 128h128v128h-128v-128zM256 128v-128h384v128h-384z" />
    <glyph glyph-name="uni01B3" unicode="&#x1b3;" 
d="M256 640v384h-256v-128h128v-256h128zM896 1024h-256v-128h256v128zM512 640h128v256h-128v-256zM384 0h128v640h-256v-128h128v-512z" />
    <glyph glyph-name="uni01B4" unicode="&#x1b4;" 
d="M896 1024h-256v-128h256v128zM512 384h128v512h-128v-512zM128 640v128h-128v-128h128zM256 384v256h-128v-256h128zM384 0h128v384h-256v-128h128v-256zM256 -128h128v128h-128v-128zM128 -256h128v128h-128v-128z" />
    <glyph glyph-name="uni01B5" unicode="&#x1b5;" 
d="M640 768h128v256h-768v-128h640v-128zM256 384h128v128h384v128h-128v128h-128v-128h-512v-128h256v-128zM128 256h128v128h-128v-128zM768 128h-640v128h-128v-256h768v128z" />
    <glyph glyph-name="uni01B6" unicode="&#x1b6;" 
d="M512 512h128v128h128v128h-640v-128h384v-128zM512 512h-128v-128h-256v-128h128v-128h-128v-128h640v128h-384v128h384v128h-256v128z" />
    <glyph glyph-name="uni01B7" unicode="&#x1b7;" 
d="M640 768h128v128h128v128h-768v-128h512v-128zM512 640h128v128h-128v-128zM512 512v128h-128v-128h128zM640 384v128h-128v-128h128zM768 256v128h-128v-128h128zM768 -128h128v384h-128v-384zM256 -128v128h-128v-128h128zM768 -128h-512v-128h512v128z" />
    <glyph glyph-name="uni01B8" unicode="&#x1b8;" 
d="M256 768v128h512v128h-640v-256h128zM384 640v128h-128v-128h128zM256 384h256v256h-128v-128h-128v-128zM256 -128v512h-128v-512h128zM768 -128h128v128h-128v-128zM256 -128v-128h512v128h-512z" />
    <glyph glyph-name="uni01B9" unicode="&#x1b9;" 
d="M384 512v128h384v128h-640v-128h128v-128h128zM256 256h256v256h-128v-128h-128v-128zM256 -128v384h-128v-384h128zM640 -128h128v128h-128v-128zM256 -128v-128h384v128h-384z" />
    <glyph glyph-name="uni01BA" unicode="&#x1ba;" 
d="M512 512h128v128h128v128h-640v-128h384v-128zM512 256v256h-128v-128h-128v-128h256zM512 128h128v128h-128v-128zM512 128h-256v-128h256v128zM256 -128v128h-128v-128h128zM768 -128h-512v-128h512v128z" />
    <glyph glyph-name="uni01BB" unicode="&#x1bb;" 
d="M640 896v128h-384v-128h384zM128 768h128v128h-128v-128zM640 640h128v256h-128v-256zM256 256h128v128h384v128h-128v128h-128v-128h-384v-128h128v-128zM256 256h-128v-256h640v128h-512v128z" />
    <glyph glyph-name="uni01BC" unicode="&#x1bc;" 
d="M640 512v128h-256v256h384v128h-640v-128h128v-384h384zM640 128h128v384h-128v-384zM256 128v128h-128v-128h128zM640 128h-384v-128h384v128z" />
    <glyph glyph-name="uni01BD" unicode="&#x1bd;" 
d="M512 384v128h-128v128h256v128h-512v-128h128v-256h256zM512 128h128v256h-128v-256zM256 128v128h-128v-128h128zM512 128h-256v-128h256v128z" />
    <glyph glyph-name="uni01BE" unicode="&#x1be;" 
d="M512 384v128h-128v128h128v128h-128v128h-128v-128h-128v-128h128v-256h256zM512 128h128v256h-128v-256zM256 128v128h-128v-128h128zM512 128h-256v-128h256v128z" />
    <glyph glyph-name="uni01BF" unicode="&#x1bf;" 
d="M128 -256h128v256h128v128h-128v384h128v128h-128v128h-128v-1024zM640 640v128h-256v-128h256zM640 384h128v256h-128v-256zM512 256h128v128h-128v-128zM384 128h128v128h-128v-128z" />
    <glyph glyph-name="uni01C0" unicode="&#x1c0;" 
d="M384 0h128v1024h-128v-1024z" />
    <glyph glyph-name="uni01C1" unicode="&#x1c1;" 
d="M512 0h128v1024h-128v-1024zM256 0h128v1024h-128v-1024z" />
    <glyph glyph-name="uni01C2" unicode="&#x1c2;" 
d="M384 0h128v256h256v128h-256v256h256v128h-256v256h-128v-256h-256v-128h256v-256h-256v-128h256v-256z" />
    <glyph glyph-name="uni01C3" unicode="&#x1c3;" 
d="M384 384h128v640h-128v-640zM384 0h128v128h-128v-128z" />
    <glyph glyph-name="uni01C4" unicode="&#x1c4;" 
d="M768 1280h128v128h-128v-128zM640 1280v128h-128v-128h128zM640 1152h128v128h-128v-128zM256 128h-128v768h128v-768h128v768h-128v128h-256v-1024h256v128zM768 640h128v384h-384v-128h256v-256zM640 384h128v256h-128v-256zM640 384h-128v-384h384v128h-256v256z" />
    <glyph glyph-name="uni01C5" unicode="&#x1c5;" 
d="M256 128h-128v768h128v-768h128v768h-128v128h-256v-1024h256v128zM768 896h128v128h-128v-128zM640 896v128h-128v-128h128zM640 768h128v128h-128v-128zM768 384h128v256h-384v-128h256v-128zM640 256h128v128h-128v-128zM896 128h-256v128h-128v-256h384v128z" />
    <glyph glyph-name="uni01C6" unicode="&#x1c6;" 
d="M768 1024h128v128h-128v-128zM640 1024v128h-128v-128h128zM640 896h128v128h-128v-128zM384 1024h-128v-384h-128v-128h-128v-384h128v-128h256v1024zM768 512h128v256h-384v-128h256v-128zM256 128h-128v384h128v-384zM640 256h128v256h-128v-256zM640 256h-128v-256
h384v128h-256v128z" />
    <glyph glyph-name="uni01C7" unicode="&#x1c7;" 
d="M384 128h-256v896h-128v-1024h384v128zM768 128h128v896h-128v-896zM640 128v128h-128v-128h128zM640 0h128v128h-128v-128z" />
    <glyph glyph-name="uni01C8" unicode="&#x1c8;" 
d="M768 896h128v128h-128v-128zM640 128h-512v896h-128v-1024h640v128zM768 -128h128v896h-128v-896zM640 -256h128v128h-128v-128z" />
    <glyph glyph-name="uni01C9" unicode="&#x1c9;" 
d="M128 0h128v1024h-128v-1024zM512 896h128v128h-128v-128zM512 -128h128v768h-128v-768zM384 -256h128v128h-128v-128z" />
    <glyph glyph-name="uni01CA" unicode="&#x1ca;" 
d="M0 0h128v768h128v-384h128v-128h128v-256h128v1024h-128v-640h-128v384h-128v128h-128v128h-128v-1024zM768 -128h128v1152h-128v-1152zM640 -256h128v128h-128v-128z" />
    <glyph glyph-name="uni01CB" unicode="&#x1cb;" 
d="M0 0h128v768h128v-384h128v-128h128v-256h128v1024h-128v-640h-128v384h-128v128h-128v128h-128v-1024zM768 896h128v128h-128v-128zM768 -128h128v896h-128v-896zM640 -256h128v128h-128v-128z" />
    <glyph glyph-name="uni01CC" unicode="&#x1cc;" 
d="M768 896h128v128h-128v-128zM0 0h128v512h128v128h-128v128h-128v-768zM768 -128h128v896h-128v-896zM512 640v128h-256v-128h256zM512 0h128v640h-128v-640zM640 -256h128v128h-128v-128z" />
    <glyph glyph-name="uni01CD" unicode="&#x1cd;" 
d="M512 1280h128v128h-128v-128zM384 1280v128h-128v-128h128zM384 1152h128v128h-128v-128zM512 768v256h-256v-256h256zM640 0h128v384h-128v384h-128v-384h-256v384h-128v-384h-128v-384h128v256h512v-256z" />
    <glyph glyph-name="uni01CE" unicode="&#x1ce;" 
d="M512 1024h128v128h-128v-128zM384 1024v128h-128v-128h128zM384 896h128v128h-128v-128zM512 640v128h-256v-128h256zM256 512v-128h-128v-256h128v-128h512v128h-128v512h-128v-128h-256v128h-128v-128h128zM256 128v256h256v-256h-256z" />
    <glyph glyph-name="uni01CF" unicode="&#x1cf;" 
d="M512 1280h128v128h-128v-128zM384 1280v128h-128v-128h128zM384 1152h128v128h-128v-128zM768 128h-256v768h256v128h-640v-128h256v-768h-256v-128h640v128z" />
    <glyph glyph-name="uni01D0" unicode="&#x1d0;" 
d="M256 1024h128v128h-128v-128zM128 1024v128h-128v-128h128zM128 896h128v128h-128v-128zM128 0h128v768h-128v-768z" />
    <glyph glyph-name="uni01D1" unicode="&#x1d1;" 
d="M512 1280h128v128h-128v-128zM384 1280v128h-128v-128h128zM384 1152h128v128h-128v-128zM640 896v128h-384v-128h384zM768 768v128h-128v-128h128zM128 768h128v128h-128v-128zM768 256h128v512h-128v-512zM128 256v512h-128v-512h128zM640 128h128v128h-128v-128z
M256 128v128h-128v-128h128zM640 128h-384v-128h384v128z" />
    <glyph glyph-name="uni01D2" unicode="&#x1d2;" 
d="M512 1024h128v128h-128v-128zM384 1024v128h-128v-128h128zM384 896h128v128h-128v-128zM640 640v128h-384v-128h384zM640 128h128v512h-128v-512zM256 128v512h-128v-512h128zM256 128v-128h384v128h-384z" />
    <glyph glyph-name="uni01D3" unicode="&#x1d3;" 
d="M384 1152h128v128h-128v-128zM256 1152v128h-128v-128h128zM256 1024h128v128h-128v-128zM640 128h128v896h-128v-896zM128 128v896h-128v-896h128zM128 128v-128h512v128h-512z" />
    <glyph glyph-name="uni01D4" unicode="&#x1d4;" 
d="M512 1024h128v128h-128v-128zM384 1024v128h-128v-128h128zM384 896h128v128h-128v-128zM256 128v-128h256v128h128v-128h128v768h-128v-512h-128v-128h-256v640h-128v-640h128z" />
    <glyph glyph-name="uni01D5" unicode="&#x1d5;" 
d="M640 1408h-384v-128h384v128zM256 1024h128v128h-128v-128zM640 1024v128h-128v-128h128zM640 128h128v896h-128v-896zM128 128v896h-128v-896h128zM128 128v-128h512v128h-512z" />
    <glyph glyph-name="uni01D6" unicode="&#x1d6;" 
d="M640 1280h-384v-128h384v128zM512 896h128v128h-128v-128zM256 896h128v128h-128v-128zM256 128v-128h256v128h128v-128h128v768h-128v-512h-128v-128h-256v640h-128v-640h128z" />
    <glyph glyph-name="uni01D7" unicode="&#x1d7;" 
d="M512 1408h128v128h-128v-128zM384 1280h128v128h-128v-128zM256 1024h128v128h-128v-128zM640 1024v128h-128v-128h128zM640 128h128v896h-128v-896zM128 128v896h-128v-896h128zM128 128v-128h512v128h-512z" />
    <glyph glyph-name="uni01D8" unicode="&#x1d8;" 
d="M512 1280h128v128h-128v-128zM384 1152h128v128h-128v-128zM512 896h128v128h-128v-128zM256 896h128v128h-128v-128zM256 128v-128h256v128h128v-128h128v768h-128v-512h-128v-128h-256v640h-128v-640h128z" />
    <glyph glyph-name="uni01D9" unicode="&#x1d9;" 
d="M512 1408h128v128h-128v-128zM384 1408v128h-128v-128h128zM384 1280h128v128h-128v-128zM256 1024h128v128h-128v-128zM640 1024v128h-128v-128h128zM640 128h128v896h-128v-896zM128 128v896h-128v-896h128zM128 128v-128h512v128h-512z" />
    <glyph glyph-name="uni01DA" unicode="&#x1da;" 
d="M512 1280h128v128h-128v-128zM384 1280v128h-128v-128h128zM384 1152h128v128h-128v-128zM512 896h128v128h-128v-128zM256 896h128v128h-128v-128zM256 128v-128h256v128h128v-128h128v768h-128v-512h-128v-128h-256v640h-128v-640h128z" />
    <glyph glyph-name="uni01DB" unicode="&#x1db;" 
d="M384 1408v128h-128v-128h128zM384 1280h128v128h-128v-128zM256 1024h128v128h-128v-128zM640 1024v128h-128v-128h128zM640 128h128v896h-128v-896zM128 128v896h-128v-896h128zM128 128v-128h512v128h-512z" />
    <glyph glyph-name="uni01DC" unicode="&#x1dc;" 
d="M384 1280v128h-128v-128h128zM384 1152h128v128h-128v-128zM512 896h128v128h-128v-128zM256 896h128v128h-128v-128zM256 128v-128h256v128h128v-128h128v768h-128v-512h-128v-128h-256v640h-128v-640h128z" />
    <glyph glyph-name="uni01DD" unicode="&#x1dd;" 
d="M512 640v128h-256v-128h256zM128 512h128v128h-128v-128zM512 128h128v512h-128v-256h-384v-256h128v128h256v-128zM512 128h-256v-128h256v128z" />
    <glyph glyph-name="uni01DE" unicode="&#x1de;" 
d="M640 1536h-384v-128h384v128zM512 1152h128v128h-128v-128zM256 1152h128v128h-128v-128zM512 768v256h-256v-256h256zM640 0h128v384h-128v384h-128v-384h-256v384h-128v-384h-128v-384h128v256h512v-256z" />
    <glyph glyph-name="uni01DF" unicode="&#x1df;" 
d="M640 1280h-384v-128h384v128zM512 896h128v128h-128v-128zM256 896h128v128h-128v-128zM512 640v128h-256v-128h256zM256 512v-128h-128v-256h128v-128h512v128h-128v512h-128v-128h-256v128h-128v-128h128zM256 128v256h256v-256h-256z" />
    <glyph glyph-name="uni01E0" unicode="&#x1e0;" 
d="M640 1536h-384v-128h384v128zM384 1152h128v128h-128v-128zM512 768v256h-256v-256h256zM640 0h128v384h-128v384h-128v-384h-256v384h-128v-384h-128v-384h128v256h512v-256z" />
    <glyph glyph-name="uni01E1" unicode="&#x1e1;" 
d="M640 1280h-384v-128h384v128zM384 896h128v128h-128v-128zM512 640v128h-256v-128h256zM256 512v-128h-128v-256h128v-128h512v128h-128v512h-128v-128h-256v128h-128v-128h128zM256 128v256h256v-256h-256z" />
    <glyph glyph-name="uni01E2" unicode="&#x1e2;" 
d="M768 1280h-384v-128h384v128zM896 128h-384v384h384v128h-384v256h384v128h-640v-256h-128v-384h128v384h128v-768h512v128zM0 0h128v384h-128v-384z" />
    <glyph glyph-name="uni01E3" unicode="&#x1e3;" 
d="M640 1024h-384v-128h384v128zM768 640v128h-256v-128h256zM384 640v128h-256v-128h256zM0 512h128v128h-128v-128zM512 128v256h384v256h-128v-128h-256v128h-128v-256h-256v-128h-128v-128h128v128h256v-128h128zM768 128h128v128h-128v-128zM512 128v-128h256v128h-256
zM384 128h-256v-128h256v128z" />
    <glyph glyph-name="uni01E4" unicode="&#x1e4;" 
d="M640 896v128h-384v-128h384zM640 768h128v128h-128v-128zM128 768h128v128h-128v-128zM128 256v512h-128v-512h128zM640 128h128v128h128v128h-128v256h-384v-128h256v-128h-128v-128h128v-128zM256 128v128h-128v-128h128zM640 128h-384v-128h384v128z" />
    <glyph glyph-name="uni01E5" unicode="&#x1e5;" 
d="M640 640v128h-384v-128h384zM256 128v-128h256v128h128v-384h128v640h128v128h-128v128h-128v-128h-128v-128h128v-128h-128v-128h-256v512h-128v-512h128zM256 -256v128h-128v-128h128zM640 -256h-384v-128h384v128z" />
    <glyph glyph-name="Gcaron" unicode="&#x1e6;" 
d="M512 1280h128v128h-128v-128zM384 1280v128h-128v-128h128zM384 1152h128v128h-128v-128zM768 896v128h-512v-128h512zM768 768h128v128h-128v-128zM128 768h128v128h-128v-128zM128 256v512h-128v-512h128zM768 128h128v384h-384v-128h256v-256zM256 128v128h-128v-128
h128zM768 128h-512v-128h512v128z" />
    <glyph glyph-name="gcaron" unicode="&#x1e7;" 
d="M512 1024h128v128h-128v-128zM384 1024v128h-128v-128h128zM384 896h128v128h-128v-128zM640 640v128h-384v-128h384zM256 128v-128h256v128h128v-384h128v896h-128v-384h-128v-128h-256v512h-128v-512h128zM256 -256v128h-128v-128h128zM640 -256h-384v-128h384v128z
" />
    <glyph glyph-name="uni01E8" unicode="&#x1e8;" 
d="M512 1152h128v128h-128v-128zM384 1152v128h-128v-128h128zM384 1024h128v128h-128v-128zM128 0h128v512h128v-128h128v-128h128v-128h128v128h-128v128h-128v128h-128v128h-128v384h-128v-1024zM640 896h128v128h-128v-128zM512 768h128v128h-128v-128zM384 640h128v128
h-128v-128zM768 0h128v128h-128v-128z" />
    <glyph glyph-name="uni01E9" unicode="&#x1e9;" 
d="M384 1152h128v128h-128v-128zM256 1152v128h-128v-128h128zM256 1024h128v128h-128v-128zM128 0h128v384h128v-128h128v-128h128v128h-128v128h-128v128h-128v512h-128v-1024zM512 640h128v128h-128v-128zM384 512h128v128h-128v-128zM640 0h128v128h-128v-128z" />
    <glyph glyph-name="uni01EA" unicode="&#x1ea;" 
d="M640 896v128h-384v-128h384zM768 768v128h-128v-128h128zM128 768h128v128h-128v-128zM768 256h128v512h-128v-512zM128 256v512h-128v-512h128zM640 128h128v128h-128v-128zM256 128v128h-128v-128h128zM384 -128h128v128h128v128h-384v-128h128v-128zM384 -256v128
h-128v-128h128zM640 -256h-256v-128h256v128z" />
    <glyph glyph-name="uni01EB" unicode="&#x1eb;" 
d="M640 640v128h-384v-128h384zM640 128h128v512h-128v-512zM256 128v512h-128v-512h128zM256 128v-128h128v-128h128v128h128v128h-384zM384 -256v128h-128v-128h128zM640 -256h-256v-128h256v128z" />
    <glyph glyph-name="uni01EC" unicode="&#x1ec;" 
d="M640 1280h-384v-128h384v128zM640 896v128h-384v-128h384zM768 768v128h-128v-128h128zM128 768h128v128h-128v-128zM768 256h128v512h-128v-512zM128 256v512h-128v-512h128zM640 128h128v128h-128v-128zM256 128v128h-128v-128h128zM384 -128h128v128h128v128h-384
v-128h128v-128zM384 -256v128h-128v-128h128zM640 -256h-256v-128h256v128z" />
    <glyph glyph-name="uni01ED" unicode="&#x1ed;" 
d="M640 1024h-384v-128h384v128zM640 640v128h-384v-128h384zM640 128h128v512h-128v-512zM256 128v512h-128v-512h128zM256 128v-128h128v-128h128v128h128v128h-384zM384 -256v128h-128v-128h128zM640 -256h-256v-128h256v128z" />
    <glyph glyph-name="uni01EE" unicode="&#x1ee;" 
d="M384 1280h128v128h-128v-128zM256 1280v128h-128v-128h128zM256 1152h128v128h-128v-128zM512 768h128v128h128v128h-768v-128h512v-128zM384 640h128v128h-128v-128zM384 512v128h-128v-128h128zM512 384v128h-128v-128h128zM640 256v128h-128v-128h128zM640 0h128v256
h-128v-256zM512 -128h128v128h-128v-128zM128 -128v128h-128v-128h128zM512 -128h-384v-128h384v128z" />
    <glyph glyph-name="uni01EF" unicode="&#x1ef;" 
d="M384 1024h128v128h-128v-128zM256 1024v128h-128v-128h128zM256 896h128v128h-128v-128zM384 512h128v128h128v128h-640v-128h384v-128zM384 384v128h-128v-128h128zM512 256v128h-128v-128h128zM512 -128h128v384h-128v-384zM128 -128v128h-128v-128h128zM512 -128h-384
v-128h384v128z" />
    <glyph glyph-name="uni01F0" unicode="&#x1f0;" 
d="M512 1024h128v128h-128v-128zM384 1024v128h-128v-128h128zM384 896h128v128h-128v-128zM384 -256h128v1024h-128v-1024zM384 -256h-256v-128h256v128z" />
    <glyph glyph-name="uni01F1" unicode="&#x1f1;" 
d="M768 1280h128v128h-128v-128zM640 1280v128h-128v-128h128zM640 1152h128v128h-128v-128zM256 128h-128v768h128v-768h128v768h-128v128h-256v-1024h256v128zM768 640h128v384h-384v-128h256v-256zM640 384h128v256h-128v-256zM640 384h-128v-384h384v128h-256v256z" />
    <glyph glyph-name="uni01F2" unicode="&#x1f2;" 
d="M256 128h-128v768h128v-768h128v768h-128v128h-256v-1024h256v128zM768 896h128v128h-128v-128zM640 896v128h-128v-128h128zM640 768h128v128h-128v-128zM768 384h128v256h-384v-128h256v-128zM640 256h128v128h-128v-128zM896 128h-256v128h-128v-256h384v128z" />
    <glyph glyph-name="uni01F3" unicode="&#x1f3;" 
d="M768 1024h128v128h-128v-128zM640 1024v128h-128v-128h128zM640 896h128v128h-128v-128zM384 1024h-128v-384h-128v-128h-128v-384h128v-128h256v1024zM768 512h128v256h-384v-128h256v-128zM256 128h-128v384h128v-384zM640 256h128v256h-128v-256zM640 256h-128v-256
h384v128h-256v128z" />
    <glyph glyph-name="uni01F4" unicode="&#x1f4;" 
d="M512 1280h128v128h-128v-128zM384 1152h128v128h-128v-128zM768 896v128h-512v-128h512zM768 768h128v128h-128v-128zM128 768h128v128h-128v-128zM128 256v512h-128v-512h128zM768 128h128v384h-384v-128h256v-256zM256 128v128h-128v-128h128zM768 128h-512v-128h512
v128z" />
    <glyph glyph-name="uni01F5" unicode="&#x1f5;" 
d="M384 1024h128v128h-128v-128zM256 896h128v128h-128v-128zM640 640v128h-384v-128h384zM256 128v-128h256v128h128v-384h128v896h-128v-384h-128v-128h-256v512h-128v-512h128zM256 -256v128h-128v-128h128zM640 -256h-384v-128h384v128z" />
    <glyph glyph-name="uni01F6" unicode="&#x1f6;" 
d="M0 0h128v512h384v-384h128v896h-128v-384h-384v384h-128v-1024zM768 128h128v640h-128v-640zM640 0h128v128h-128v-128z" />
    <glyph glyph-name="uni01F7" unicode="&#x1f7;" 
d="M128 -256h128v256h128v128h-128v640h128v128h-128v128h-128v-1280zM640 896v128h-256v-128h256zM640 384h128v512h-128v-512zM512 256h128v128h-128v-128zM384 128h128v128h-128v-128z" />
    <glyph glyph-name="uni01F8" unicode="&#x1f8;" 
d="M0 0h128v768h128v-256h128v-256h128v-128h128v-128h128v1024h-128v-768h-128v256h-128v256h-128v128h-128v128h-128v-1024z" />
    <glyph glyph-name="uni01F9" unicode="&#x1f9;" 
d="M384 1024v128h-128v-128h128zM384 896h128v128h-128v-128zM128 0h128v512h128v128h-128v128h-128v-768zM640 640v128h-256v-128h256zM640 0h128v640h-128v-640z" />
    <glyph glyph-name="Aringacute" unicode="&#x1fa;" 
d="M384 1408h128v128h-128v-128zM512 1152v128h-128v128h-128v-256h256zM512 1024h128v128h-128v-128zM256 1024v128h-128v-128h128zM512 768v256h-256v-256h256zM640 0h128v384h-128v384h-128v-384h-256v384h-128v-384h-128v-384h128v256h512v-256z" />
    <glyph glyph-name="aringacute" unicode="&#x1fb;" 
d="M512 1408h128v128h-128v-128zM384 1280h128v128h-128v-128zM512 1024v128h-128v-128h128zM512 896h128v128h-128v-128zM384 896v128h-128v-128h128zM640 640v128h-128v128h-128v-128h-128v-128h384zM256 512v-128h-128v-256h128v-128h256v128h-256v256h384v-128h-128
v-128h128v-128h128v640h-128v-128h-384v128h-128v-128h128z" />
    <glyph glyph-name="AEacute" unicode="&#x1fc;" 
d="M640 1280h128v128h-128v-128zM512 1152h128v128h-128v-128zM896 128h-384v384h384v128h-384v256h384v128h-640v-256h-128v-384h128v384h128v-768h512v128zM0 0h128v384h-128v-384z" />
    <glyph glyph-name="aeacute" unicode="&#x1fd;" 
d="M512 1024h128v128h-128v-128zM384 896h128v128h-128v-128zM768 640v128h-256v-128h256zM384 640v128h-256v-128h256zM0 512h128v128h-128v-128zM512 128v256h384v256h-128v-128h-256v128h-128v-256h-256v-128h-128v-128h128v128h256v-128h128zM768 128h128v128h-128v-128
zM512 128v-128h256v128h-256zM384 128h-256v-128h256v128z" />
    <glyph glyph-name="Oslashacute" unicode="&#x1fe;" 
d="M512 1280h128v128h-128v-128zM384 1152h128v128h-128v-128zM768 896h128v128h-128v-128zM640 896v128h-384v-128h384zM768 768v128h-128v-128h128zM128 768h128v128h-128v-128zM768 256h128v512h-128v-512zM128 256v512h-128v-512h128zM512 640h128v128h-128v-128z
M384 384h128v256h-128v-256zM256 256h128v128h-128v-128zM640 128h128v128h-128v-128zM256 128v128h-128v-128h128zM0 0h128v128h-128v-128zM640 128h-384v-128h384v128z" />
    <glyph glyph-name="oslashacute" unicode="&#x1ff;" 
d="M512 1024h128v128h-128v-128zM384 896h128v128h-128v-128zM768 768h128v128h-128v-128zM640 128h128v640h-512v-128h-128v-512h128v128h128v128h-128v256h256v-128h-128v-128h128v128h128v-384zM0 0h128v128h-128v-128zM640 128h-384v-128h384v128z" />
    <glyph glyph-name="uni0200" unicode="&#x200;" 
d="M512 1280v128h-128v-128h128zM256 1280v128h-128v-128h128zM512 1152h128v128h-128v-128zM256 1152h128v128h-128v-128zM512 768v256h-256v-256h256zM640 0h128v384h-128v384h-128v-384h-256v384h-128v-384h-128v-384h128v256h512v-256z" />
    <glyph glyph-name="uni0201" unicode="&#x201;" 
d="M512 1024v128h-128v-128h128zM256 1024v128h-128v-128h128zM512 896h128v128h-128v-128zM256 896h128v128h-128v-128zM512 640v128h-256v-128h256zM256 512v-128h-128v-256h128v-128h512v128h-128v512h-128v-128h-256v128h-128v-128h128zM256 128v256h256v-256h-256z" />
    <glyph glyph-name="uni0202" unicode="&#x202;" 
d="M512 1280v128h-256v-128h256zM512 1152h128v128h-128v-128zM128 1152h128v128h-128v-128zM512 768v256h-256v-256h256zM640 0h128v384h-128v384h-128v-384h-256v384h-128v-384h-128v-384h128v256h512v-256z" />
    <glyph glyph-name="uni0203" unicode="&#x203;" 
d="M512 1024v128h-256v-128h256zM512 896h128v128h-128v-128zM128 896h128v128h-128v-128zM512 640v128h-256v-128h256zM256 512v-128h-128v-256h128v-128h512v128h-128v512h-128v-128h-256v128h-128v-128h128zM256 128v256h256v-256h-256z" />
    <glyph glyph-name="uni0204" unicode="&#x204;" 
d="M512 1280v128h-128v-128h128zM256 1280v128h-128v-128h128zM512 1152h128v128h-128v-128zM256 1152h128v128h-128v-128zM768 128h-512v384h384v128h-384v256h512v128h-640v-1024h640v128z" />
    <glyph glyph-name="uni0205" unicode="&#x205;" 
d="M512 1024v128h-128v-128h128zM256 1024v128h-128v-128h128zM512 896h128v128h-128v-128zM256 896h128v128h-128v-128zM640 640v128h-384v-128h384zM256 128v256h512v256h-128v-128h-384v128h-128v-512h128zM640 128h128v128h-128v-128zM256 128v-128h384v128h-384z" />
    <glyph glyph-name="uni0206" unicode="&#x206;" 
d="M512 1280v128h-256v-128h256zM512 1152h128v128h-128v-128zM128 1152h128v128h-128v-128zM768 128h-512v384h384v128h-384v256h512v128h-640v-1024h640v128z" />
    <glyph glyph-name="uni0207" unicode="&#x207;" 
d="M512 1024v128h-256v-128h256zM512 896h128v128h-128v-128zM128 896h128v128h-128v-128zM640 640v128h-384v-128h384zM256 128v256h512v256h-128v-128h-384v128h-128v-512h128zM640 128h128v128h-128v-128zM256 128v-128h384v128h-384z" />
    <glyph glyph-name="uni0208" unicode="&#x208;" 
d="M512 1280v128h-128v-128h128zM256 1280v128h-128v-128h128zM512 1152h128v128h-128v-128zM256 1152h128v128h-128v-128zM768 128h-256v768h256v128h-640v-128h256v-768h-256v-128h640v128z" />
    <glyph glyph-name="uni0209" unicode="&#x209;" 
d="M512 1024v128h-128v-128h128zM256 1024v128h-128v-128h128zM512 896h128v128h-128v-128zM256 896h128v128h-128v-128zM640 128h-128v640h-256v-128h128v-512h-128v-128h384v128z" />
    <glyph glyph-name="uni020A" unicode="&#x20a;" 
d="M512 1280v128h-256v-128h256zM512 1152h128v128h-128v-128zM128 1152h128v128h-128v-128zM768 128h-256v768h256v128h-640v-128h256v-768h-256v-128h640v128z" />
    <glyph glyph-name="uni020B" unicode="&#x20b;" 
d="M512 1024v128h-256v-128h256zM512 896h128v128h-128v-128zM128 896h128v128h-128v-128zM640 128h-128v640h-256v-128h128v-512h-128v-128h384v128z" />
    <glyph glyph-name="uni020C" unicode="&#x20c;" 
d="M512 1280v128h-128v-128h128zM256 1280v128h-128v-128h128zM512 1152h128v128h-128v-128zM256 1152h128v128h-128v-128zM640 896v128h-384v-128h384zM768 768v128h-128v-128h128zM128 768h128v128h-128v-128zM768 256h128v512h-128v-512zM128 256v512h-128v-512h128z
M640 128h128v128h-128v-128zM256 128v128h-128v-128h128zM640 128h-384v-128h384v128z" />
    <glyph glyph-name="uni020D" unicode="&#x20d;" 
d="M512 1024v128h-128v-128h128zM256 1024v128h-128v-128h128zM512 896h128v128h-128v-128zM256 896h128v128h-128v-128zM640 640v128h-384v-128h384zM640 128h128v512h-128v-512zM256 128v512h-128v-512h128zM256 128v-128h384v128h-384z" />
    <glyph glyph-name="uni020E" unicode="&#x20e;" 
d="M640 1280v128h-256v-128h256zM640 1152h128v128h-128v-128zM256 1152h128v128h-128v-128zM640 896v128h-384v-128h384zM768 768v128h-128v-128h128zM128 768h128v128h-128v-128zM768 256h128v512h-128v-512zM128 256v512h-128v-512h128zM640 128h128v128h-128v-128z
M256 128v128h-128v-128h128zM640 128h-384v-128h384v128z" />
    <glyph glyph-name="uni020F" unicode="&#x20f;" 
d="M640 1024v128h-256v-128h256zM640 896h128v128h-128v-128zM256 896h128v128h-128v-128zM640 640v128h-384v-128h384zM640 128h128v512h-128v-512zM256 128v512h-128v-512h128zM256 128v-128h384v128h-384z" />
    <glyph glyph-name="uni0210" unicode="&#x210;" 
d="M512 1280v128h-128v-128h128zM256 1280v128h-128v-128h128zM512 1152h128v128h-128v-128zM256 1152h128v128h-128v-128zM128 0h128v384h256v-128h128v-128h128v128h-128v256h-384v384h384v-384h128v384h-128v128h-512v-1024zM768 0h128v128h-128v-128z" />
    <glyph glyph-name="uni0211" unicode="&#x211;" 
d="M512 1024v128h-128v-128h128zM256 1024v128h-128v-128h128zM512 896h128v128h-128v-128zM256 896h128v128h-128v-128zM128 0h128v512h128v128h-128v128h-128v-768zM640 640v128h-256v-128h256zM640 512h128v128h-128v-128z" />
    <glyph glyph-name="uni0212" unicode="&#x212;" 
d="M512 1280v128h-256v-128h256zM512 1152h128v128h-128v-128zM128 1152h128v128h-128v-128zM128 0h128v384h256v-128h128v-128h128v128h-128v256h-384v384h384v-384h128v384h-128v128h-512v-1024zM768 0h128v128h-128v-128z" />
    <glyph glyph-name="uni0213" unicode="&#x213;" 
d="M512 1024v128h-256v-128h256zM512 896h128v128h-128v-128zM128 896h128v128h-128v-128zM128 0h128v512h128v128h-128v128h-128v-768zM640 640v128h-256v-128h256zM640 512h128v128h-128v-128z" />
    <glyph glyph-name="uni0214" unicode="&#x214;" 
d="M512 1280v128h-128v-128h128zM256 1280v128h-128v-128h128zM512 1152h128v128h-128v-128zM256 1152h128v128h-128v-128zM640 128h128v896h-128v-896zM256 128v896h-128v-896h128zM256 128v-128h384v128h-384z" />
    <glyph glyph-name="uni0215" unicode="&#x215;" 
d="M512 1024v128h-128v-128h128zM256 1024v128h-128v-128h128zM512 896h128v128h-128v-128zM256 896h128v128h-128v-128zM256 128v-128h256v128h128v-128h128v768h-128v-512h-128v-128h-256v640h-128v-640h128z" />
    <glyph glyph-name="uni0216" unicode="&#x216;" 
d="M512 1280v128h-256v-128h256zM512 1152h128v128h-128v-128zM128 1152h128v128h-128v-128zM640 128h128v896h-128v-896zM256 128v896h-128v-896h128zM256 128v-128h384v128h-384z" />
    <glyph glyph-name="uni0217" unicode="&#x217;" 
d="M512 1024v128h-256v-128h256zM512 896h128v128h-128v-128zM128 896h128v128h-128v-128zM256 128v-128h256v128h128v-128h128v768h-128v-512h-128v-128h-256v640h-128v-640h128z" />
    <glyph glyph-name="Scommaaccent" unicode="&#x218;" 
d="M640 896v128h-384v-128h384zM640 768h128v128h-128v-128zM256 640v256h-128v-256h128zM256 640v-128h256v128h-256zM640 384v128h-128v-128h128zM640 128h128v256h-128v-256zM256 128v128h-128v-128h128zM640 128h-384v-128h384v128zM384 -384h128v256h-256v-128h128
v-128zM256 -512h128v128h-128v-128z" />
    <glyph glyph-name="scommaaccent" unicode="&#x219;" 
d="M512 640v128h-256v-128h256zM512 512h128v128h-128v-128zM256 512v128h-128v-128h128zM384 384v128h-128v-128h128zM512 256v128h-128v-128h128zM512 128h128v128h-128v-128zM256 128v128h-128v-128h128zM512 128h-256v-128h256v128zM384 -384h128v256h-256v-128h128
v-128zM256 -512h128v128h-128v-128z" />
    <glyph glyph-name="uni021A" unicode="&#x21a;" 
d="M384 0h128v896h256v128h-640v-128h256v-896zM384 -384h128v256h-256v-128h128v-128zM256 -512h128v128h-128v-128z" />
    <glyph glyph-name="uni021B" unicode="&#x21b;" 
d="M384 128v512h256v128h-256v256h-128v-256h-256v-128h256v-512h128zM384 128v-128h256v128h-256zM384 -384h128v256h-256v-128h128v-128zM256 -512h128v128h-128v-128z" />
    <glyph glyph-name="uni021C" unicode="&#x21c;" 
d="M640 896v128h-384v-128h384zM128 768h128v128h-128v-128zM640 640h128v256h-128v-256zM640 384v256h-128v-128h-128v-128h256zM640 128h128v256h-128v-256zM384 384h-256v-128h256v128zM512 0h128v128h-128v-128zM384 -128h128v128h-128v-128zM384 -128h-256v-128h256
v128z" />
    <glyph glyph-name="uni021D" unicode="&#x21d;" 
d="M512 640v128h-256v-128h256zM128 512h128v128h-128v-128zM512 384h128v256h-128v-256zM512 128v256h-128v-128h-256v-128h384zM512 0h128v128h-128v-128zM384 -128h128v128h-128v-128zM384 -128h-256v-128h256v128z" />
    <glyph glyph-name="uni021E" unicode="&#x21e;" 
d="M512 1280h128v128h-128v-128zM384 1280v128h-128v-128h128zM384 1152h128v128h-128v-128zM768 0h128v1024h-128v-384h-512v384h-128v-1024h128v512h512v-512z" />
    <glyph glyph-name="uni021F" unicode="&#x21f;" 
d="M640 1280h128v128h-128v-128zM512 1280v128h-128v-128h128zM512 1152h128v128h-128v-128zM256 0h128v512h128v128h-128v512h-128v-1152zM768 640v128h-256v-128h256zM768 0h128v640h-128v-640z" />
    <glyph glyph-name="uni0220" unicode="&#x220;" 
d="M0 0h128v768h128v128h-128v128h-128v-1024zM640 896v128h-384v-128h384zM640 -256h128v1152h-128v-1152z" />
    <glyph glyph-name="uni0221" unicode="&#x221;" 
d="M128 128v512h-128v-512h128v-128h256v-128h128v-128h256v128h-128v128h128v-128h128v128h-128v128h-128v1024h-128v-512h-128v128h-256v-128h256v-128h128v-256h-128v-128h-256zM512 0h-128v128h128v-128zM256 -256h128v128h-128v-128z" />
    <glyph glyph-name="uni0222" unicode="&#x222;" 
d="M768 896v128h-256v-128h256zM768 640h128v256h-128v-256zM384 896h-256v-128h256v128zM128 640v128h-128v-128h128zM768 512v128h-640v-128h640zM768 128h128v384h-128v-384zM128 128v384h-128v-384h128zM128 128v-128h640v128h-640z" />
    <glyph glyph-name="uni0223" unicode="&#x223;" 
d="M640 896v128h-128v-128h128zM256 896h128v128h-128v-128zM640 640h128v256h-128v-256zM256 640v256h-128v-256h128zM256 640v-128h384v128h-384zM640 128h128v384h-128v-384zM256 128v384h-128v-384h128zM256 128v-128h384v128h-384z" />
    <glyph glyph-name="uni0224" unicode="&#x224;" 
d="M640 768h128v256h-768v-128h640v-128zM512 640h128v128h-128v-128zM384 512h128v128h-128v-128zM256 384h128v128h-128v-128zM128 256h128v128h-128v-128zM768 128h-640v128h-128v-256h768v128z" />
    <glyph glyph-name="uni0225" unicode="&#x225;" 
d="M640 512h128v256h-640v-128h512v-128zM640 512h-256v-128h256v128zM256 256h128v128h-128v-128zM768 0v128h-512v128h-128v-256h640zM768 -128h128v128h-128v-128zM640 -256h128v128h-128v-128z" />
    <glyph glyph-name="uni0226" unicode="&#x226;" 
d="M256 1152h128v128h-128v-128zM512 768v256h-256v-256h256zM640 0h128v384h-128v384h-128v-384h-256v384h-128v-384h-128v-384h128v256h512v-256z" />
    <glyph glyph-name="uni0227" unicode="&#x227;" 
d="M256 896h128v128h-128v-128zM512 640v128h-256v-128h256zM256 512v-128h-128v-256h128v-128h512v128h-128v512h-128v-128h-256v128h-128v-128h128zM256 128v256h256v-256h-256z" />
    <glyph glyph-name="uni0228" unicode="&#x228;" 
d="M384 -128v128h384v128h-512v384h384v128h-384v256h512v128h-640v-1024h128v-128h128zM384 -256h128v128h-128v-128zM384 -256h-256v-128h256v128z" />
    <glyph glyph-name="uni0229" unicode="&#x229;" 
d="M640 640v128h-384v-128h384zM256 128v256h512v256h-128v-128h-384v128h-128v-512h128zM640 128h128v128h-128v-128zM256 128v-256h128v128h256v128h-384zM384 -256h128v128h-128v-128zM384 -256h-256v-128h256v128z" />
    <glyph glyph-name="uni022A" unicode="&#x22a;" 
d="M640 1408h-384v-128h384v128zM640 896v256h-128v-128h-128v128h-128v-256h384zM768 768v128h-128v-128h128zM128 768h128v128h-128v-128zM768 256h128v512h-128v-512zM128 256v512h-128v-512h128zM640 128h128v128h-128v-128zM256 128v128h-128v-128h128zM640 128h-384
v-128h384v128z" />
    <glyph glyph-name="uni022B" unicode="&#x22b;" 
d="M640 1280h-384v-128h384v128zM512 896h128v128h-128v-128zM256 896h128v128h-128v-128zM640 640v128h-384v-128h384zM640 128h128v512h-128v-512zM256 128v512h-128v-512h128zM256 128v-128h384v128h-384z" />
    <glyph glyph-name="uni022C" unicode="&#x22c;" 
d="M640 1536h-384v-128h384v128zM640 896v256h-128v128h-256v-128h-128v-128h128v-128h384zM640 1152h128v128h-128v-128zM384 1024h-128v128h128v-128zM768 768v128h-128v-128h128zM128 768h128v128h-128v-128zM768 256h128v512h-128v-512zM128 256v512h-128v-512h128z
M640 128h128v128h-128v-128zM256 128v128h-128v-128h128zM640 128h-384v-128h384v128z" />
    <glyph glyph-name="uni022D" unicode="&#x22d;" 
d="M640 1408h-384v-128h384v128zM640 1024h-128v128h-256v-128h128v-128h256v128zM640 1024h128v128h-128v-128zM128 896h128v128h-128v-128zM640 640v128h-384v-128h384zM640 128h128v512h-128v-512zM256 128v512h-128v-512h128zM256 128v-128h384v128h-384z" />
    <glyph glyph-name="uni022E" unicode="&#x22e;" 
d="M384 1152h128v128h-128v-128zM640 896v128h-384v-128h384zM768 768v128h-128v-128h128zM128 768h128v128h-128v-128zM768 256h128v512h-128v-512zM128 256v512h-128v-512h128zM640 128h128v128h-128v-128zM256 128v128h-128v-128h128zM640 128h-384v-128h384v128z" />
    <glyph glyph-name="uni022F" unicode="&#x22f;" 
d="M384 896h128v128h-128v-128zM640 640v128h-384v-128h384zM640 128h128v512h-128v-512zM256 128v512h-128v-512h128zM256 128v-128h384v128h-384z" />
    <glyph glyph-name="uni0230" unicode="&#x230;" 
d="M640 1408h-384v-128h384v128zM640 896v128h-128v128h-128v-128h-128v-128h384zM768 768v128h-128v-128h128zM128 768h128v128h-128v-128zM768 256h128v512h-128v-512zM128 256v512h-128v-512h128zM640 128h128v128h-128v-128zM256 128v128h-128v-128h128zM640 128h-384
v-128h384v128z" />
    <glyph glyph-name="uni0231" unicode="&#x231;" 
d="M640 1280h-384v-128h384v128zM384 896h128v128h-128v-128zM640 640v128h-384v-128h384zM640 128h128v512h-128v-512zM256 128v512h-128v-512h128zM256 128v-128h384v128h-384z" />
    <glyph glyph-name="uni0232" unicode="&#x232;" 
d="M640 1280h-384v-128h384v128zM768 896h128v128h-128v-128zM128 896v128h-128v-128h128zM640 640h128v256h-128v-256zM256 640v256h-128v-256h128zM512 512h128v128h-128v-128zM384 512v128h-128v-128h128zM384 0h128v512h-128v-512z" />
    <glyph glyph-name="uni0233" unicode="&#x233;" 
d="M640 1024h-384v-128h384v128zM768 512h128v256h-128v-256zM256 640v128h-128v-128h128zM384 384v256h-128v-256h128zM640 256h128v256h-128v-256zM512 256v128h-128v-128h128zM512 0h128v256h-128v-256zM384 -256h128v256h-128v-256zM256 -384h128v128h-128v-128z" />
    <glyph glyph-name="uni0234" unicode="&#x234;" 
d="M384 -384h128v128h128v128h-128v128h-128v1024h-128v-1152h128v-256zM640 0v128h-128v-128h128zM640 -128h128v128h-128v-128z" />
    <glyph glyph-name="uni0235" unicode="&#x235;" 
d="M0 0h128v512h128v128h-128v128h-128v-768zM512 640v128h-256v-128h256zM640 -128v128h128v128h-128v512h-128v-640h-128v-128h256zM768 -128h128v128h-128v-128zM640 -256h128v128h-128v-128zM256 -256h128v128h-128v-128z" />
    <glyph glyph-name="uni0236" unicode="&#x236;" 
d="M512 128v128h128v128h-128v256h256v128h-256v256h-128v-256h-256v-128h256v-384h-128v-128h256zM640 128h128v128h-128v-128zM512 0h128v128h-128v-128zM128 0h128v128h-128v-128z" />
    <glyph glyph-name="uni0237" unicode="&#x237;" 
d="M128 -128h128v896h-128v-896zM0 -256h128v128h-128v-128z" />
    <glyph glyph-name="uni0238" unicode="&#x238;" 
d="M896 640h-128v128h-256v256h-128v-256h-256v-128h-128v-512h128v-128h640v128h-256v512h256v-512h128v512zM128 128v512h256v-512h-256z" />
    <glyph glyph-name="uni0239" unicode="&#x239;" 
d="M384 -256h128v256h256v128h-256v512h256v-512h128v512h-128v128h-640v-128h-128v-512h128v-128h256v-256zM128 128v512h256v-512h-256z" />
    <glyph glyph-name="uni023A" unicode="&#x23a;" 
d="M640 0h128v384h-128v512h-128v128h-256v-256h-128v-384h-128v-384h128v128h128v128h384v-256zM640 896h128v128h-128v-128zM512 384h-128v128h-128v256h256v-128h-128v-128h128v-128z" />
    <glyph glyph-name="uni023B" unicode="&#x23b;" 
d="M768 1024h128v128h-128v-128zM512 640h128v128h128v256h-512v-128h-128v-128h128v128h256v-256zM128 256v512h-128v-512h128zM384 512h128v128h-128v-128zM256 256h128v256h-128v-256zM640 128h128v128h-128v-128zM256 128v128h-128v-128h128zM0 0h128v128h-128v-128z
M640 128h-384v-128h384v128z" />
    <glyph glyph-name="uni023C" unicode="&#x23c;" 
d="M640 896h128v128h-128v-128zM384 384h128v256h128v256h-128v-128h-256v-128h128v-256zM640 512h128v128h-128v-128zM384 384h-128v256h-128v-640h512v128h-384v128h128v128zM640 128h128v128h-128v-128zM0 -128h128v128h-128v-128z" />
    <glyph glyph-name="uni023D" unicode="&#x23d;" 
d="M768 128h-512v384h256v128h-256v384h-128v-384h-128v-128h128v-512h640v128z" />
    <glyph glyph-name="uni023E" unicode="&#x23e;" 
d="M384 0h128v512h128v128h-128v256h256v-128h-128v-128h128v128h128v128h-128v128h-640v-128h256v-512h-128v-128h-128v-128h128v128h128v-256z" />
    <glyph glyph-name="uni023F" unicode="&#x23f;" 
d="M512 640v128h-256v-128h256zM512 512h128v128h-128v-128zM256 512v128h-128v-128h128zM384 384v128h-128v-128h128zM512 128h128v256h-256v-128h128v-128zM384 -128v128h128v128h-384v-128h128v-128h128zM384 -128v-128h256v128h-256z" />
    <glyph glyph-name="uni0240" unicode="&#x240;" 
d="M512 512h128v256h-512v-128h384v-128zM384 384h128v128h-128v-128zM256 256h128v128h-128v-128zM384 0v128h-128v128h-128v-256h256zM512 -128v128h-128v-128h128zM768 -128h-256v-128h256v128z" />
    <glyph glyph-name="uni0241" unicode="&#x241;" 
d="M640 896v128h-384v-128h384zM128 768h128v128h-128v-128zM640 384h128v512h-128v-512zM384 0h128v256h128v128h-256v-384z" />
    <glyph glyph-name="uni0242" unicode="&#x242;" 
d="M512 640v128h-256v-128h256zM128 512h128v128h-128v-128zM512 384h128v256h-128v-256zM384 256h128v128h-128v-128zM256 0h128v256h-128v-256z" />
    <glyph glyph-name="uni0243" unicode="&#x243;" 
d="M896 512h-128v384h-128v-256h-384v256h384v128h-512v-640h-128v-128h128v-256h640v128h-512v128h256v128h-256v128h512v-384h128v384z" />
    <glyph glyph-name="uni0244" unicode="&#x244;" 
d="M640 128h128v384h128v128h-128v384h-128v-384h-384v384h-128v-384h-128v-128h128v-384h128v384h384v-384zM640 128h-384v-128h384v128z" />
    <glyph glyph-name="uni0245" unicode="&#x245;" 
d="M512 768v256h-256v-256h256zM640 384v384h-128v-384h128zM128 384h128v384h-128v-384zM640 0h128v384h-128v-384zM0 0h128v384h-128v-384z" />
    <glyph glyph-name="uni0246" unicode="&#x246;" 
d="M768 1024h128v128h-128v-128zM768 128h-512v128h128v128h-128v128h128v-128h128v128h128v256h-128v-128h-256v256h384v-128h128v256h-640v-1024h640v128zM0 -128h128v128h-128v-128z" />
    <glyph glyph-name="uni0247" unicode="&#x247;" 
d="M768 768h128v128h-128v-128zM640 128h-256v128h-128v128h128v-128h128v128h256v384h-512v-128h-128v-512h128v-128h384v128zM256 512v128h256v-128h-256zM640 128h128v128h-128v-128zM128 -128h128v128h-128v-128z" />
    <glyph glyph-name="uni0248" unicode="&#x248;" 
d="M512 128h128v384h128v128h-128v256h128v128h-512v-128h256v-256h-128v-128h128v-384zM256 128v128h-128v-128h128zM512 128h-256v-128h256v128z" />
    <glyph glyph-name="uni0249" unicode="&#x249;" 
d="M512 896h128v128h-128v-128zM512 -256h128v640h128v128h-128v256h-128v-256h-128v-128h128v-640zM256 -256v128h-128v-128h128zM512 -256h-256v-128h256v128z" />
    <glyph glyph-name="uni024A" unicode="&#x24a;" 
d="M768 -128v1152h-512v-128h-128v-128h-128v-512h128v-128h128v-128h384v-128h128zM256 128v128h-128v512h128v128h384v-768h-384zM768 -256h128v128h-128v-128z" />
    <glyph glyph-name="uni024B" unicode="&#x24b;" 
d="M128 128v512h-128v-512h128v-128h256v128h128v-256h128v896h-128v-128h-128v128h-256v-128h256v-128h128v-256h-128v-128h-256zM640 -128v-128h256v128h-256z" />
    <glyph glyph-name="uni024C" unicode="&#x24c;" 
d="M128 0h128v384h256v-128h128v-128h128v128h-128v256h-384v384h384v-384h128v384h-128v128h-512v-512h-128v-128h128v-384zM768 0h128v128h-128v-128z" />
    <glyph glyph-name="uni024D" unicode="&#x24d;" 
d="M128 0h128v256h128v128h-128v128h128v128h-128v128h-128v-384h-128v-128h128v-256zM640 640v128h-256v-128h256zM640 512h128v128h-128v-128z" />
    <glyph glyph-name="uni024E" unicode="&#x24e;" 
d="M640 640h128v128h128v256h-128v-128h-640v128h-128v-256h128v-128h128v128h384v-128zM512 512h128v128h-128v-128zM384 512v128h-128v-128h128zM384 0h128v512h-128v-512z" />
    <glyph glyph-name="uni024F" unicode="&#x24f;" 
d="M512 256h128v128h128v384h-128v-256h-384v256h-128v-256h-128v-128h256v-128h128v128h128v-128zM384 0h128v256h-128v-256zM256 -256h128v256h-128v-256zM128 -384h128v128h-128v-128z" />
    <glyph glyph-name="uni0250" unicode="&#x250;" 
d="M256 128v128h256v128h-256v128h128v128h-128v128h-128v-640h128zM640 640v128h-256v-128h256zM512 384h256v256h-128v-128h-128v-128zM640 128h128v128h-128v-128zM256 128v-128h384v128h-384z" />
    <glyph glyph-name="uni0251" unicode="&#x251;" 
d="M256 128v512h-128v-512h128v-128h256v128h128v-128h128v768h-128v-128h-128v128h-256v-128h256v-128h128v-256h-128v-128h-256z" />
    <glyph glyph-name="uni0252" unicode="&#x252;" 
d="M128 0h128v128h128v-128h256v128h-256v128h-128v256h128v128h-128v128h-128v-768zM640 640v128h-256v-128h256zM640 128h128v512h-128v-512z" />
    <glyph glyph-name="uni0253" unicode="&#x253;" 
d="M768 640h-128v128h-384v128h128v128h-256v-1024h512v128h-384v512h384v-512h128v512z" />
    <glyph glyph-name="uni0254" unicode="&#x254;" 
d="M512 640v128h-256v-128h256zM128 512h128v128h-128v-128zM512 128h128v512h-128v-512zM256 128v128h-128v-128h128zM512 128h-256v-128h256v128z" />
    <glyph glyph-name="uni0255" unicode="&#x255;" 
d="M640 640v128h-384v-128h384zM640 512h128v128h-128v-128zM640 128h-256v128h-128v384h-128v-640h512v128zM640 256v128h-256v-128h256zM640 128h128v128h-128v-128zM0 -128h128v128h-128v-128z" />
    <glyph glyph-name="uni0256" unicode="&#x256;" 
d="M128 128v512h-128v-512h128v-128h256v128h128v-256h128v1152h-128v-384h-128v128h-256v-128h256v-128h128v-256h-128v-128h-256zM640 -256h128v128h-128v-128z" />
    <glyph glyph-name="uni0257" unicode="&#x257;" 
d="M640 896h128v128h-128v-128zM128 128v512h-128v-512h128v-128h256v128h128v-128h128v896h-128v-256h-128v128h-256v-128h256v-128h128v-256h-128v-128h-256z" />
    <glyph glyph-name="uni0258" unicode="&#x258;" 
d="M640 640v128h-384v-128h384zM640 128h128v512h-128v-128h-384v128h-128v-256h512v-256zM256 128v128h-128v-128h128zM640 128h-384v-128h384v128z" />
    <glyph glyph-name="uni0259" unicode="&#x259;" 
d="M640 640v128h-384v-128h384zM128 512h128v128h-128v-128zM640 128h128v512h-128v-256h-512v-256h128v128h384v-128zM640 128h-384v-128h384v128z" />
    <glyph glyph-name="uni025A" unicode="&#x25a;" 
d="M384 640v128h-256v-128h256zM0 512h128v128h-128v-128zM384 128h128v256h128v-128h256v128h-128v128h-256v128h-128v-256h-256v-128h-128v-128h128v128h256v-128zM384 128h-256v-128h256v128z" />
    <glyph glyph-name="uni025B" unicode="&#x25b;" 
d="M512 640v128h-256v-128h256zM512 512h128v128h-128v-128zM256 512v128h-128v-128h128zM256 384h128v128h-128v-128zM256 128v256h-128v-256h128zM512 128h128v128h-128v-128zM256 128v-128h256v128h-256z" />
    <glyph glyph-name="uni025C" unicode="&#x25c;" 
d="M384 640v128h-256v-128h256zM0 512h128v128h-128v-128zM384 512h128v128h-128v-128zM384 384v128h-128v-128h128zM384 128h128v256h-128v-256zM128 128v128h-128v-128h128zM384 128h-256v-128h256v128z" />
    <glyph glyph-name="uni025D" unicode="&#x25d;" 
d="M768 640h128v128h-128v-128zM640 640v128h-128v-128h128zM384 640v128h-256v-128h256zM640 512h128v128h-128v-128zM0 512h128v128h-128v-128zM384 512h128v128h-128v-128zM384 384v128h-128v-128h128zM384 128h128v256h-128v-256zM128 128v128h-128v-128h128zM384 128
h-256v-128h256v128z" />
    <glyph glyph-name="uni025E" unicode="&#x25e;" 
d="M512 640v128h-256v-128h256zM256 128v512h-128v-512h128zM640 384v256h-128v-128h-128v-128h256zM640 128h128v256h-128v-256zM256 128v-128h384v128h-384z" />
    <glyph glyph-name="uni025F" unicode="&#x25f;" 
d="M384 -128h128v128h128v128h-128v512h-128v-512h-128v-128h128v-128zM384 -128h-256v-128h256v128z" />
    <glyph glyph-name="uni0260" unicode="&#x260;" 
d="M768 896h128v128h-128v-128zM256 128v512h-128v-512h128v-128h256v128h128v-256h128v1024h-128v-256h-128v128h-256v-128h256v-128h128v-256h-128v-128h-256zM640 -128h-384v-128h384v128z" />
    <glyph glyph-name="uni0261" unicode="&#x261;" 
d="M128 128v512h-128v-512h128v-128h256v128h128v-256h128v896h-128v-128h-128v128h-256v-128h256v-128h128v-256h-128v-128h-256zM512 -128h-512v-128h512v128z" />
    <glyph glyph-name="uni0262" unicode="&#x262;" 
d="M640 640v128h-384v-128h384zM640 512h128v128h-128v-128zM256 128v512h-128v-512h128zM640 128h128v256h-384v-128h256v-128zM256 128v-128h384v128h-384z" />
    <glyph glyph-name="uni0263" unicode="&#x263;" 
d="M640 512h128v256h-128v-256zM256 512v256h-128v-256h128zM512 256h128v256h-128v-256zM384 256v256h-128v-256h128zM512 128v128h-128v-128h128zM512 -128h128v256h-128v-256zM384 -128v256h-128v-256h128zM384 -256h128v128h-128v-128z" />
    <glyph glyph-name="uni0264" unicode="&#x264;" 
d="M768 640v128h-128v-128h128zM256 640v128h-128v-128h128zM768 512h128v128h-128v-128zM0 512h128v128h-128v-128zM512 384h128v256h-128v-256zM384 384v256h-128v-256h128zM512 256v128h-128v-128h128zM512 128h128v128h-128v-128zM384 128v128h-128v-128h128zM384 0h128
v128h-128v-128z" />
    <glyph glyph-name="uni0265" unicode="&#x265;" 
d="M256 128v-128h384v-256h128v1024h-128v-640h-384v640h-128v-640h128z" />
    <glyph glyph-name="uni0266" unicode="&#x266;" 
d="M128 0h128v640h384v128h-384v128h128v128h-256v-1024zM640 0h128v640h-128v-640z" />
    <glyph glyph-name="uni0267" unicode="&#x267;" 
d="M256 896h128v128h-128v-128zM128 0h128v640h384v-768h128v768h-128v128h-384v128h-128v-896zM512 -256h128v128h-128v-128z" />
    <glyph glyph-name="uni0268" unicode="&#x268;" 
d="M384 896h128v128h-128v-128zM384 0h128v384h128v128h-128v256h-128v-256h-128v-128h128v-384z" />
    <glyph glyph-name="uni0269" unicode="&#x269;" 
d="M512 128v640h-128v-640h128zM512 0h128v128h-128v-128z" />
    <glyph glyph-name="uni026A" unicode="&#x26a;" 
d="M640 128h-128v512h128v128h-384v-128h128v-512h-128v-128h384v128z" />
    <glyph glyph-name="uni026B" unicode="&#x26b;" 
d="M384 0h128v512h128v128h-128v384h-128v-384h-128v-128h128v-512z" />
    <glyph glyph-name="uni026C" unicode="&#x26c;" 
d="M384 0h128v1024h-128v-256h-128v-128h-128v-128h128v-128h128v-384zM384 512h-128v128h128v-128z" />
    <glyph glyph-name="uni026D" unicode="&#x26d;" 
d="M512 -128v1152h-128v-1152h128zM512 -256h128v128h-128v-128z" />
    <glyph glyph-name="uni026E" unicode="&#x26e;" 
d="M128 0h128v640h256v-128h-128v-256h256v-384h-384v-128h384v128h128v384h-128v128h-128v128h128v128h128v128h-512v256h-128v-1024z" />
    <glyph glyph-name="uni026F" unicode="&#x26f;" 
d="M512 128v-128h384v768h-128v-640h-256v512h-128v-512h128zM128 128v640h-128v-640h128zM128 128v-128h256v128h-256z" />
    <glyph glyph-name="uni0270" unicode="&#x270;" 
d="M512 128v-128h256v-256h128v1024h-128v-640h-256v512h-128v-512h128zM128 128v640h-128v-640h128zM128 128v-128h256v128h-256z" />
    <glyph glyph-name="uni0271" unicode="&#x271;" 
d="M0 0h128v640h256v128h-384v-768zM768 640v128h-256v-128h256zM384 0h128v640h-128v-640zM768 -128h128v768h-128v-768zM640 -256h128v128h-128v-128z" />
    <glyph glyph-name="uni0272" unicode="&#x272;" 
d="M128 -128h128v640h128v128h-128v128h-128v-896zM640 640v128h-256v-128h256zM640 0h128v640h-128v-640zM0 -256h128v128h-128v-128z" />
    <glyph glyph-name="uni0273" unicode="&#x273;" 
d="M128 0h128v512h128v128h-128v128h-128v-768zM640 640v128h-256v-128h256zM768 -128v768h-128v-768h128zM768 -256h128v128h-128v-128z" />
    <glyph glyph-name="uni0274" unicode="&#x274;" 
d="M128 0h128v512h128v-256h128v-256h256v768h-128v-512h-128v256h-128v256h-256v-768z" />
    <glyph glyph-name="uni0275" unicode="&#x275;" 
d="M640 640v128h-384v-128h384zM640 128h128v512h-128v-128h-384v128h-128v-512h128v256h384v-256zM640 128h-384v-128h384v128z" />
    <glyph glyph-name="uni0276" unicode="&#x276;" 
d="M128 128v512h-128v-512h128v-128h256v128h128v-128h384v128h-256v256h256v128h-256v128h256v128h-384v-128h-128v128h-256v-128h256v-128h128v-256h-128v-128h-256z" />
    <glyph glyph-name="uni0277" unicode="&#x277;" 
d="M768 640v128h-640v-128h640zM768 128h128v512h-128v-512zM128 128v512h-128v-512h128zM512 128v256h-128v-256h128zM512 128v-128h256v128h-256zM128 128v-128h256v128h-256z" />
    <glyph glyph-name="uni0278" unicode="&#x278;" 
d="M384 -256h128v256h128v128h-128v512h128v-512h128v512h-128v128h-128v256h-128v-256h-128v-128h-128v-512h128v-128h128v-256zM384 128h-128v512h128v-512z" />
    <glyph glyph-name="uni0279" unicode="&#x279;" 
d="M256 128v-128h128v128h128v-128h128v640h-128v-384h-128v-128h-128v128h-128v-128h128z" />
    <glyph glyph-name="uni027A" unicode="&#x27a;" 
d="M256 128v-128h128v128h128v-128h128v1024h-128v-768h-128v-128h-128v128h-128v-128h128z" />
    <glyph glyph-name="uni027B" unicode="&#x27b;" 
d="M640 -128v768h-128v-384h-128v-128h128v-256h128zM256 128v128h-128v-128h128zM256 0h128v128h-128v-128zM640 -256h128v128h-128v-128z" />
    <glyph glyph-name="uni027C" unicode="&#x27c;" 
d="M256 -256h128v768h128v128h-128v128h-128v-1024zM640 640v128h-128v-128h128zM640 512h128v128h-128v-128z" />
    <glyph glyph-name="uni027D" unicode="&#x27d;" 
d="M384 -128v640h128v128h-128v128h-128v-896h128zM768 768h-256v-128h256v128zM384 -256h128v128h-128v-128z" />
    <glyph glyph-name="uni027E" unicode="&#x27e;" 
d="M768 768h-256v-128h256v128zM384 0h128v640h-128v-640z" />
    <glyph glyph-name="uni027F" unicode="&#x27f;" 
d="M384 640v128h-256v-128h256zM384 0h128v640h-128v-640z" />
    <glyph glyph-name="uni0280" unicode="&#x280;" 
d="M128 0h128v256h256v-128h128v256h-384v256h384v-256h128v256h-128v128h-512v-768zM640 0h128v128h-128v-128z" />
    <glyph glyph-name="uni0281" unicode="&#x281;" 
d="M768 384h-128v256h-128v-128h-256v256h-128v-768h512v128h-384v256h256v-128h128v-128h128v256zM640 640h128v128h-128v-128z" />
    <glyph glyph-name="uni0282" unicode="&#x282;" 
d="M512 640v128h-256v-128h256zM512 512h128v128h-128v-128zM256 512v128h-128v-128h128zM384 384v128h-128v-128h128zM512 256v128h-128v-128h128zM256 -128v128h256v128h-256v128h-128v-384h128zM512 128h128v128h-128v-128zM256 -256h128v128h-128v-128z" />
    <glyph glyph-name="uni0283" unicode="&#x283;" 
d="M384 896h128v128h-128v-128zM256 -128h128v1024h-128v-1024zM128 -256h128v128h-128v-128z" />
    <glyph glyph-name="uni0284" unicode="&#x284;" 
d="M384 896h128v128h-128v-128zM256 -128h128v256h128v128h-128v640h-128v-640h-128v-128h128v-256zM128 -256h128v128h-128v-128z" />
    <glyph glyph-name="uni0285" unicode="&#x285;" 
d="M256 896v128h-128v-128h128zM384 128v768h-128v-768h128zM384 0h128v128h-128v-128z" />
    <glyph glyph-name="uni0286" unicode="&#x286;" 
d="M768 1024h-256v-128h256v128zM256 0v-128h128v-128h128v1152h-128v-896h-128v128h-128v-128h128zM128 -128v128h-128v-128h128zM128 -256h128v128h-128v-128zM512 -384h128v128h-128v-128z" />
    <glyph glyph-name="uni0287" unicode="&#x287;" 
d="M384 768v128h-128v-128h128zM384 0h128v128h128v128h-128v512h-128v-512h-128v-128h128v-128z" />
    <glyph glyph-name="uni0288" unicode="&#x288;" 
d="M512 -128v768h128v128h-128v128h-128v-128h-128v-128h128v-768h128zM512 -256h128v128h-128v-128z" />
    <glyph glyph-name="uni0289" unicode="&#x289;" 
d="M640 0h128v384h128v128h-128v256h-128v-256h-384v256h-128v-256h-128v-128h128v-256h128v-128h256v128h-256v256h384v-128h-128v-128h128v-128z" />
    <glyph glyph-name="uni028A" unicode="&#x28a;" 
d="M640 512v128h128v128h-256v-256h128zM256 512h128v256h-256v-128h128v-128zM640 128h128v384h-128v-384zM256 128v384h-128v-384h128zM256 128v-128h384v128h-384z" />
    <glyph glyph-name="uni028B" unicode="&#x28b;" 
d="M256 128v640h-128v-640h128zM640 640v128h-256v-128h256zM640 256h128v384h-128v-384zM512 128h128v128h-128v-128zM256 128v-128h256v128h-256z" />
    <glyph glyph-name="uni028C" unicode="&#x28c;" 
d="M512 512v256h-128v-256h128zM640 256v256h-128v-256h128zM256 256h128v256h-128v-256zM640 0h128v256h-128v-256zM128 0h128v256h-128v-256z" />
    <glyph glyph-name="uni028D" unicode="&#x28d;" 
d="M768 512v256h-128v-256h128zM256 512v256h-128v-256h128zM768 0h128v512h-128v-512zM0 0h128v512h-128v-512zM512 384h128v128h-128v-128zM384 384v128h-128v-128h128zM384 128h128v256h-128v-256z" />
    <glyph glyph-name="uni028E" unicode="&#x28e;" 
d="M512 896h128v128h-128v-128zM384 640h128v256h-128v-256zM512 384v128h-128v128h-128v-256h256zM512 384v-256h128v256h-128zM128 128h128v256h-128v-256zM640 0h128v128h-128v-128zM0 0h128v128h-128v-128z" />
    <glyph glyph-name="uni028F" unicode="&#x28f;" 
d="M640 640h128v128h-128v-128zM256 640v128h-128v-128h128zM512 512h128v128h-128v-128zM384 512v128h-128v-128h128zM384 0h128v512h-128v-512z" />
    <glyph glyph-name="uni0290" unicode="&#x290;" 
d="M512 512h128v256h-512v-128h384v-128zM384 384h128v128h-128v-128zM256 256h128v128h-128v-128zM768 -128v256h-512v128h-128v-256h512v-128h128zM768 -256h128v128h-128v-128z" />
    <glyph glyph-name="uni0291" unicode="&#x291;" 
d="M512 512h128v256h-512v-128h384v-128zM512 384v128h-128v-128h128zM640 256v128h-128v-128h128zM384 256v128h-128v-128h128zM256 -128h128v128h384v256h-128v-128h-128v128h-128v-128h-128v128h-128v-256h128v-128z" />
    <glyph glyph-name="uni0292" unicode="&#x292;" 
d="M512 512h128v128h128v128h-640v-128h384v-128zM640 256v128h-128v128h-128v-256h256zM640 -128h128v384h-128v-384zM256 -128v128h-128v-128h128zM640 -128h-384v-128h384v128z" />
    <glyph glyph-name="uni0293" unicode="&#x293;" 
d="M512 512h128v128h128v128h-640v-128h384v-128zM640 256v128h-128v128h-128v-256h256zM640 -128h128v384h-128v-384zM384 0v128h-128v-128h128zM256 -128v-128h256v-128h128v256h-128v128h-128v-128h-128v128h-128v-128h128z" />
    <glyph glyph-name="uni0294" unicode="&#x294;" 
d="M512 896v128h-256v-128h256zM128 768h128v128h-128v-128zM512 384h128v512h-128v-512zM256 0h128v256h128v128h-256v-384z" />
    <glyph glyph-name="uni0295" unicode="&#x295;" 
d="M512 896v128h-256v-128h256zM512 768h128v128h-128v-128zM256 384v512h-128v-512h128zM384 0h128v384h-256v-128h128v-256z" />
    <glyph glyph-name="uni0296" unicode="&#x296;" 
d="M512 640v128h-128v256h-128v-384h256zM512 128h128v512h-128v-512zM256 128v128h-128v-128h128zM512 128h-256v-128h256v128z" />
    <glyph glyph-name="uni0297" unicode="&#x297;" 
d="M512 640v128h-384v-128h384zM512 512h128v128h-128v-128zM128 -128v768h-128v-768h128zM512 -128h128v128h-128v-128zM128 -128v-128h384v128h-384z" />
    <glyph glyph-name="uni0298" unicode="&#x298;" 
d="M640 896v128h-384v-128h384zM768 768v128h-128v-128h128zM128 768h128v128h-128v-128zM768 256h128v512h-128v-512zM128 256v512h-128v-512h128zM384 384h128v256h-128v-256zM640 128h128v128h-128v-128zM256 128v128h-128v-128h128zM640 128h-384v-128h384v128z" />
    <glyph glyph-name="uni0299" unicode="&#x299;" 
d="M768 384h-128v256h-128v-128h-256v128h256v128h-384v-768h512v128h-384v256h384v-256h128v256z" />
    <glyph glyph-name="uni029A" unicode="&#x29a;" 
d="M512 640v128h-256v-128h256zM512 128h128v512h-128v-512zM256 512v128h-128v-128h128zM256 384h128v128h-128v-128zM256 128v256h-128v-256h128zM256 128v-128h256v128h-256z" />
    <glyph glyph-name="uni029B" unicode="&#x29b;" 
d="M640 128h-384v512h384v-128h128v256h128v128h-256v-128h-384v-128h-128v-512h128v-128h384v128zM640 128h128v256h-384v-128h256v-128z" />
    <glyph glyph-name="uni029C" unicode="&#x29c;" 
d="M640 0h128v768h-128v-256h-384v256h-128v-768h128v384h384v-384z" />
    <glyph glyph-name="uni029D" unicode="&#x29d;" 
d="M384 896h128v128h-128v-128zM512 -128h128v128h-128v768h-128v-640h-256v-128h-128v-128h128v-128h384v128zM128 -128v128h256v-128h-256zM640 -256h128v128h-128v-128z" />
    <glyph glyph-name="uni029E" unicode="&#x29e;" 
d="M384 384v-128h-128v-128h-128v-128h128v128h128v128h128v-512h128v1024h-128v-384h-128v128h-128v-128h128zM256 512v256h-128v-256h128z" />
    <glyph glyph-name="uni029F" unicode="&#x29f;" 
d="M640 128h-256v640h-128v-768h384v128z" />
    <glyph glyph-name="uni02A0" unicode="&#x2a0;" 
d="M640 896h128v128h-128v-128zM128 128v512h-128v-512h128v-128h256v128h128v-384h128v1152h-128v-256h-128v128h-256v-128h256v-128h128v-256h-128v-128h-256z" />
    <glyph glyph-name="uni02A1" unicode="&#x2a1;" 
d="M640 896v128h-256v-128h256zM256 768h128v128h-128v-128zM640 512h128v384h-128v-384zM384 0h128v128h128v128h-128v128h128v128h-256v-256h-128v-128h128v-128z" />
    <glyph glyph-name="uni02A2" unicode="&#x2a2;" 
d="M640 896v128h-256v-128h256zM640 768h128v128h-128v-128zM384 512v384h-128v-384h128zM384 0h128v128h128v128h-128v128h128v128h-256v-256h-128v-128h128v-128z" />
    <glyph glyph-name="uni02A3" unicode="&#x2a3;" 
d="M896 128h-256v128h-128v256h256v-128h-128v-128h128v128h128v256h-384v384h-128v-384h-256v-128h-128v-384h128v-128h768v128zM128 128v384h256v-384h-256z" />
    <glyph glyph-name="uni02A4" unicode="&#x2a4;" 
d="M512 -128v640h256v-128h-128v-128h128v128h128v256h-384v384h-128v-384h-256v-128h-128v-384h128v-128h256v-128h128zM128 128v384h256v-384h-256zM768 -128h128v384h-128v-384zM512 -128v-128h256v128h-256z" />
    <glyph glyph-name="uni02A5" unicode="&#x2a5;" 
d="M512 -128h128v128h256v256h-256v-128h-128v128h-128v256h256v-128h-128v-128h128v128h128v256h-384v384h-128v-384h-128v-128h-128v-384h128v-128h384v-128zM256 128h-128v384h128v-384z" />
    <glyph glyph-name="uni02A6" unicode="&#x2a6;" 
d="M256 128v512h128v-128h128v-128h128v-128h128v128h-128v128h-128v128h-128v128h-128v128h-128v-128h-128v-128h128v-512h128zM768 640v128h-256v-128h256zM768 512h128v128h-128v-128zM768 128h128v128h-128v-128zM256 128v-128h512v128h-512z" />
    <glyph glyph-name="uni02A7" unicode="&#x2a7;" 
d="M896 1024h-256v-128h256v128zM256 128v-128h256v-128h128v1024h-128v-768h-256v512h128v128h-128v128h-128v-128h-128v-128h128v-512h128zM512 -128h-256v-128h256v128z" />
    <glyph glyph-name="uni02A8" unicode="&#x2a8;" 
d="M256 128v-128h512v128h-128v128h-128v384h-128v-512h-128v512h128v128h-128v128h-128v-128h-128v-128h128v-512h128zM768 640v128h-256v-128h256zM768 512h128v128h-128v-128zM768 128h128v256h-256v-128h128v-128z" />
    <glyph glyph-name="uni02A9" unicode="&#x2a9;" 
d="M512 1024h-256v-128h256v128zM384 0h128v640h256v-768h128v768h-128v128h-512v128h-128v-128h-128v-128h128v-640h128v640h128v-640zM640 -256h128v128h-128v-128z" />
    <glyph glyph-name="uni02AA" unicode="&#x2aa;" 
d="M0 0h128v128h128v-128h384v128h-384v128h-128v768h-128v-1024zM640 640v128h-256v-128h256zM640 512h128v128h-128v-128zM384 512v128h-128v-128h128zM512 384v128h-128v-128h128zM640 256v128h-128v-128h128zM640 128h128v128h-128v-128z" />
    <glyph glyph-name="uni02AB" unicode="&#x2ab;" 
d="M896 128h-384v128h-128v-128h-128v512h512v-128h-128v-128h-128v-128h128v128h128v128h128v256h-640v256h-128v-1024h768v128z" />
    <glyph glyph-name="uni02AC" unicode="&#x2ac;" 
d="M640 640h128v384h-128v-384zM256 640v384h-128v-384h128zM512 640v256h-128v-256h128zM640 512v128h-128v-128h128zM256 512h128v128h-128v-128zM640 128h128v384h-128v-384zM256 128v384h-128v-384h128zM512 128v256h-128v-256h128zM512 0h128v128h-128v-128zM256 0h128
v128h-128v-128z" />
    <glyph glyph-name="uni02AD" unicode="&#x2ad;" 
d="M640 640h128v384h-640v-384h128v256h384v-256zM640 0h128v384h-640v-384h128v256h384v-256z" />
    <glyph glyph-name="uni02AE" unicode="&#x2ae;" 
d="M384 128v-128h256v-256h128v1024h-128v-640h-256v512h-128v-512h128zM256 640v128h-128v-128h128z" />
    <glyph glyph-name="uni02AF" unicode="&#x2af;" 
d="M384 128v-128h256v-128h128v896h-128v-640h-256v512h-128v-512h128zM256 640v128h-128v-128h128zM768 -256h128v128h-128v-128z" />
    <glyph glyph-name="uni02B0" unicode="&#x2b0;" 
d="M128 384h128v384h256v128h-256v128h-128v-640zM512 384h128v384h-128v-384z" />
    <glyph glyph-name="uni02B1" unicode="&#x2b1;" 
d="M256 1024h128v128h-128v-128zM128 384h128v384h256v128h-256v128h-128v-640zM512 384h128v384h-128v-384z" />
    <glyph glyph-name="uni02B2" unicode="&#x2b2;" 
d="M384 896h128v128h-128v-128zM384 256h128v512h-128v-512zM256 128h128v128h-128v-128z" />
    <glyph glyph-name="uni02B3" unicode="&#x2b3;" 
d="M640 896h-256v-128h256v128zM256 384h128v384h-128v-384z" />
    <glyph glyph-name="uni02B4" unicode="&#x2b4;" 
d="M384 384h128v384h-128v-384zM384 384h-256v-128h256v128z" />
    <glyph glyph-name="uni02B5" unicode="&#x2b5;" 
d="M512 128v640h-128v-384h-256v-128h256v-128h128zM512 128v-128h256v128h-256z" />
    <glyph glyph-name="uni02B6" unicode="&#x2b6;" 
d="M640 512h-128v256h-128v-128h-128v256h-128v-640h384v128h-256v128h256v-128h128v128zM512 768h128v128h-128v-128z" />
    <glyph glyph-name="uni02B7" unicode="&#x2b7;" 
d="M640 512h128v256h-128v-256zM512 512v256h-128v-256h128zM256 512v256h-128v-256h128zM512 384h128v128h-128v-128zM256 384h128v128h-128v-128z" />
    <glyph glyph-name="uni02B8" unicode="&#x2b8;" 
d="M512 512h128v256h-128v-256zM256 512v256h-128v-256h128zM384 256h128v256h-256v-128h128v-128zM384 256h-256v-128h256v128z" />
    <glyph glyph-name="uni02B9" unicode="&#x2b9;" 
d="M256 640h128v384h-128v-384z" />
    <glyph glyph-name="uni02BA" unicode="&#x2ba;" 
d="M512 768h128v256h-128v-256zM256 768h128v256h-128v-256z" />
    <glyph glyph-name="uni02BB" unicode="&#x2bb;" 
d="M256 1024h128v128h-128v-128zM384 896h-128v128h-128v-256h256v128z" />
    <glyph glyph-name="afii57929" unicode="&#x2bc;" 
d="M256 896h128v256h-256v-128h128v-128zM128 768h128v128h-128v-128z" />
    <glyph glyph-name="afii64937" unicode="&#x2bd;" 
d="M256 768v128h128v128h-256v-256h128zM256 640h128v128h-128v-128z" />
    <glyph glyph-name="uni02BE" unicode="&#x2be;" 
d="M384 1024v128h-128v-128h128zM384 896h128v128h-128v-128zM256 768h128v128h-128v-128z" />
    <glyph glyph-name="uni02BF" unicode="&#x2bf;" 
d="M384 1024h128v128h-128v-128zM384 896v128h-128v-128h128zM384 768h128v128h-128v-128z" />
    <glyph glyph-name="uni02C0" unicode="&#x2c0;" 
d="M512 896v128h-256v-128h256zM128 768h128v128h-128v-128zM512 640h128v256h-128v-256zM256 384h128v128h128v128h-256v-256z" />
    <glyph glyph-name="uni02C1" unicode="&#x2c1;" 
d="M512 896v128h-256v-128h256zM512 768h128v128h-128v-128zM256 640v256h-128v-256h128zM384 384h128v256h-256v-128h128v-128z" />
    <glyph glyph-name="uni02C2" unicode="&#x2c2;" 
d="M640 768h128v128h-128v-128zM640 768h-256v-128h256v128zM384 384v256h-256v-256h256zM384 384v-128h256v128h-256zM640 128h128v128h-128v-128z" />
    <glyph glyph-name="uni02C3" unicode="&#x2c3;" 
d="M256 768v128h-128v-128h128zM512 640v128h-256v-128h256zM512 384h256v256h-256v-256zM512 384h-256v-128h256v128zM128 128h128v128h-128v-128z" />
    <glyph glyph-name="uni02C4" unicode="&#x2c4;" 
d="M512 768v128h-128v-128h128zM640 512v256h-128v-256h128zM256 512h128v256h-128v-256zM640 256h128v256h-128v-256zM128 256h128v256h-128v-256z" />
    <glyph glyph-name="uni02C5" unicode="&#x2c5;" 
d="M640 640h128v256h-128v-256zM256 640v256h-128v-256h128zM512 384h128v256h-128v-256zM384 384v256h-128v-256h128zM384 256h128v128h-128v-128z" />
    <glyph glyph-name="circumflex" unicode="&#x2c6;" 
d="M256 896v128h-128v-128h128zM256 768h128v128h-128v-128zM0 768h128v128h-128v-128z" />
    <glyph glyph-name="caron" unicode="&#x2c7;" 
d="M256 896h128v128h-128v-128zM128 896v128h-128v-128h128zM128 768h128v128h-128v-128z" />
    <glyph glyph-name="uni02C8" unicode="&#x2c8;" 
d="M384 768h128v256h-128v-256z" />
    <glyph glyph-name="uni02C9" unicode="&#x2c9;" 
d="M640 1024h-384v-128h384v128z" />
    <glyph glyph-name="uni02CA" unicode="&#x2ca;" 
d="M384 896h128v128h-128v-128zM256 768h128v128h-128v-128z" />
    <glyph glyph-name="uni02CB" unicode="&#x2cb;" 
d="M384 896v128h-128v-128h128zM384 768h128v128h-128v-128z" />
    <glyph glyph-name="uni02CC" unicode="&#x2cc;" 
d="M256 -256h128v256h-128v-256z" />
    <glyph glyph-name="uni02CD" unicode="&#x2cd;" 
d="M640 -128h-384v-128h384v128z" />
    <glyph glyph-name="uni02CE" unicode="&#x2ce;" 
d="M384 -128v128h-128v-128h128zM384 -256h128v128h-128v-128z" />
    <glyph glyph-name="uni02CF" unicode="&#x2cf;" 
d="M384 -128h128v128h-128v-128zM256 -256h128v128h-128v-128z" />
    <glyph glyph-name="uni02D0" unicode="&#x2d0;" 
d="M384 640h128v128h128v128h-384v-128h128v-128zM640 128h-128v128h-128v-128h-128v-128h384v128z" />
    <glyph glyph-name="uni02D1" unicode="&#x2d1;" 
d="M384 512h128v128h128v128h-384v-128h128v-128z" />
    <glyph glyph-name="uni02D2" unicode="&#x2d2;" 
d="M384 256v128h-128v-128h128zM384 128h128v128h-128v-128zM256 0h128v128h-128v-128z" />
    <glyph glyph-name="uni02D3" unicode="&#x2d3;" 
d="M384 256h128v128h-128v-128zM384 128v128h-128v-128h128zM384 0h128v128h-128v-128z" />
    <glyph glyph-name="uni02D4" unicode="&#x2d4;" 
d="M640 256h-128v128h-128v-128h-128v-128h384v128z" />
    <glyph glyph-name="uni02D5" unicode="&#x2d5;" 
d="M384 128h128v128h128v128h-384v-128h128v-128z" />
    <glyph glyph-name="uni02D6" unicode="&#x2d6;" 
d="M384 128h128v128h128v128h-128v128h-128v-128h-128v-128h128v-128z" />
    <glyph glyph-name="uni02D7" unicode="&#x2d7;" 
d="M640 384h-384v-128h384v128z" />
    <glyph glyph-name="breve" unicode="&#x2d8;" 
d="M256 896h128v128h-128v-128zM0 896v128h-128v-128h128zM256 896h-256v-128h256v128z" />
    <glyph glyph-name="dotaccent" unicode="&#x2d9;" 
d="M128 896h128v128h-128v-128z" />
    <glyph glyph-name="ring" unicode="&#x2da;" 
d="M256 896v128h-128v-128h128zM256 768h128v128h-128v-128zM128 768v128h-128v-128h128zM128 640h128v128h-128v-128z" />
    <glyph glyph-name="ogonek" unicode="&#x2db;" 
d="M0 -128h128v128h-128v-128zM0 -256v128h-128v-128h128zM256 -256h-256v-128h256v128z" />
    <glyph glyph-name="tilde" unicode="&#x2dc;" 
d="M384 896h128v128h-128v-128zM256 896v128h-256v-128h256zM256 768h128v128h-128v-128zM-128 768h128v128h-128v-128z" />
    <glyph glyph-name="hungarumlaut" unicode="&#x2dd;" 
d="M384 896h128v128h-128v-128zM256 896v128h-128v-128h128zM256 768h128v128h-128v-128zM0 768h128v128h-128v-128z" />
    <glyph glyph-name="uni02DE" unicode="&#x2de;" 
d="M384 384v128h-128v-128h128zM128 256h128v128h-128v-128zM640 384h-256v-128h256v128z" />
    <glyph glyph-name="uni02DF" unicode="&#x2df;" 
d="M512 768h128v128h-128v-128zM384 768v128h-128v-128h128zM512 640v128h-128v-128h128zM512 512h128v128h-128v-128zM256 512h128v128h-128v-128z" />
    <glyph glyph-name="uni02E0" unicode="&#x2e0;" 
d="M640 768h128v256h-128v-256zM256 768v256h-128v-256h128zM512 512h128v256h-128v-256zM384 512v256h-128v-256h128zM512 384v128h-128v-128h128zM512 128h128v256h-128v-256zM384 128v256h-128v-256h128zM384 0h128v128h-128v-128z" />
    <glyph glyph-name="uni02E1" unicode="&#x2e1;" 
d="M384 384h128v640h-128v-640z" />
    <glyph glyph-name="uni02E2" unicode="&#x2e2;" 
d="M512 768v128h-256v-128h256zM512 640h128v128h-128v-128zM256 640v128h-128v-128h128zM512 512v128h-256v-128h256zM512 384h128v128h-128v-128zM512 384h-384v-128h384v128z" />
    <glyph glyph-name="uni02E3" unicode="&#x2e3;" 
d="M512 768h128v128h-128v-128zM256 768v128h-128v-128h128zM512 512v256h-256v-256h256zM512 384h128v128h-128v-128zM128 384h128v128h-128v-128z" />
    <glyph glyph-name="uni02E4" unicode="&#x2e4;" 
d="M512 896v128h-256v-128h256zM512 768h128v128h-128v-128zM256 640v256h-128v-256h128zM384 256h128v384h-256v-128h128v-256z" />
    <glyph glyph-name="uni02E5" unicode="&#x2e5;" 
d="M512 0h128v1024h-384v-128h256v-896z" />
    <glyph glyph-name="uni02E6" unicode="&#x2e6;" 
d="M512 0h128v1024h-128v-256h-256v-128h256v-640z" />
    <glyph glyph-name="uni02E7" unicode="&#x2e7;" 
d="M512 0h128v1024h-128v-384h-256v-128h256v-512z" />
    <glyph glyph-name="uni02E8" unicode="&#x2e8;" 
d="M512 0h128v1024h-128v-640h-256v-128h256v-256z" />
    <glyph glyph-name="uni02E9" unicode="&#x2e9;" 
d="M640 1024h-128v-896h-256v-128h384v1024z" />
    <glyph glyph-name="uni02EA" unicode="&#x2ea;" 
d="M512 128h-256v512h-128v-640h384v128z" />
    <glyph glyph-name="uni02EB" unicode="&#x2eb;" 
d="M128 0h128v256h256v128h-256v256h-128v-640z" />
    <glyph glyph-name="uni02EC" unicode="&#x2ec;" 
d="M512 -128h128v128h-128v-128zM384 -128v128h-128v-128h128zM384 -256h128v128h-128v-128z" />
    <glyph glyph-name="uni02ED" unicode="&#x2ed;" 
d="M640 1152h-384v-128h384v128zM640 896h-384v-128h384v128z" />
    <glyph glyph-name="uni02EE" unicode="&#x2ee;" 
d="M640 896h128v256h-256v-128h128v-128zM256 896h128v256h-256v-128h128v-128zM512 768h128v128h-128v-128zM128 768h128v128h-128v-128z" />
    <glyph glyph-name="uni02EF" unicode="&#x2ef;" 
d="M512 -128h128v128h-128v-128zM384 -128v128h-128v-128h128zM384 -256h128v128h-128v-128z" />
    <glyph glyph-name="uni02F0" unicode="&#x2f0;" 
d="M512 -128v128h-128v-128h128zM512 -256h128v128h-128v-128zM256 -256h128v128h-128v-128z" />
    <glyph glyph-name="uni02F1" unicode="&#x2f1;" 
d="M384 -128h128v128h-128v-128zM384 -256v128h-128v-128h128zM384 -384h128v128h-128v-128z" />
    <glyph glyph-name="uni02F2" unicode="&#x2f2;" 
d="M512 -128v128h-128v-128h128zM512 -256h128v128h-128v-128zM384 -384h128v128h-128v-128z" />
    <glyph glyph-name="uni02F3" unicode="&#x2f3;" 
d="M512 -128v128h-128v-128h128zM512 -256h128v128h-128v-128zM384 -256v128h-128v-128h128zM384 -384h128v128h-128v-128z" />
    <glyph glyph-name="uni02F4" unicode="&#x2f4;" 
d="M384 256v128h-128v-128h128zM384 128h128v128h-128v-128z" />
    <glyph glyph-name="uni02F5" unicode="&#x2f5;" 
d="M512 256v128h-128v-128h128zM256 256v128h-128v-128h128zM512 128h128v128h-128v-128zM256 128h128v128h-128v-128z" />
    <glyph glyph-name="uni02F6" unicode="&#x2f6;" 
d="M512 256h128v128h-128v-128zM384 256v128h-128v-128h128zM384 128h128v128h-128v-128zM128 128h128v128h-128v-128z" />
    <glyph glyph-name="uni02F7" unicode="&#x2f7;" 
d="M640 -128h-128v128h-256v-128h128v-128h256v128zM640 -128h128v128h-128v-128zM128 -256h128v128h-128v-128z" />
    <glyph glyph-name="uni02F8" unicode="&#x2f8;" 
d="M256 896h128v128h-128v-128zM256 256h128v128h-128v-128z" />
    <glyph glyph-name="uni02F9" unicode="&#x2f9;" 
d="M256 768h128v128h128v128h-256v-256z" />
    <glyph glyph-name="uni02FA" unicode="&#x2fa;" 
d="M384 768h128v256h-256v-128h128v-128z" />
    <glyph glyph-name="uni02FB" unicode="&#x2fb;" 
d="M512 -128h-128v128h-128v-256h256v128z" />
    <glyph glyph-name="uni02FC" unicode="&#x2fc;" 
d="M512 0h-128v-128h-128v-128h256v256z" />
    <glyph glyph-name="uni02FD" unicode="&#x2fd;" 
d="M768 0h-128v-128h-384v128h-128v-256h640v256z" />
    <glyph glyph-name="uni02FE" unicode="&#x2fe;" 
d="M640 -128h-384v128h-128v-256h512v128z" />
    <glyph glyph-name="uni02FF" unicode="&#x2ff;" 
d="M256 -256h128v128h256v128h-256v128h-128v-128h-128v-128h128v-128z" />
    <glyph glyph-name="uni0370" unicode="&#x370;" 
d="M640 128h-128v384h128v128h-128v256h128v128h-384v-128h128v-768h-128v-128h384v128z" />
    <glyph glyph-name="uni0371" unicode="&#x371;" 
d="M640 128h-128v128h128v128h-128v128h128v128h-384v-128h128v-384h-128v-128h384v128z" />
    <glyph glyph-name="uni0372" unicode="&#x372;" 
d="M768 768h128v256h-896v-256h128v128h256v-768h-128v-128h384v128h-128v768h256v-128z" />
    <glyph glyph-name="uni0373" unicode="&#x373;" 
d="M640 768h128v256h-640v-256h128v128h128v-768h-128v-128h384v128h-128v768h128v-128z" />
    <glyph glyph-name="uni0374" unicode="&#x374;" 
d="M256 896h128v128h-128v-128zM128 768h128v128h-128v-128z" />
    <glyph glyph-name="uni0375" unicode="&#x375;" 
d="M128 -128h128v128h-128v-128zM0 -256h128v128h-128v-128z" />
    <glyph glyph-name="uni0376" unicode="&#x376;" 
d="M768 128h-256v768h256v128h-640v-128h256v-768h-256v-128h640v128z" />
    <glyph glyph-name="uni0377" unicode="&#x377;" 
d="M640 0h128v640h-256v-128h-128v-256h128v128h128v-384zM256 128h128v128h-128v384h-128v-640h128v128z" />
    <glyph glyph-name="uni037A" unicode="&#x37a;" 
d="M384 -256h128v256h-128v-256z" />
    <glyph glyph-name="uni037B" unicode="&#x37b;" 
d="M640 640v128h-384v-128h384zM640 512h128v128h-128v-128zM256 128v512h-128v-512h128zM640 128h128v128h-128v-128zM256 128v-128h384v128h-384z" />
    <glyph glyph-name="uni037C" unicode="&#x37c;" 
d="M640 640v128h-384v-128h384zM640 512h128v128h-128v-128zM256 128v512h-128v-512h128zM640 128h128v128h-128v-128zM256 128v-128h384v128h-384z" />
    <glyph glyph-name="uni037D" unicode="&#x37d;" 
d="M640 640v128h-384v-128h384zM640 512h128v128h-128v-128zM256 128v512h-128v-512h128zM640 128h128v128h-128v-128zM256 128v-128h384v128h-384z" />
    <glyph glyph-name="uni037E" unicode="&#x37e;" 
d="M384 512h128v128h-128v-128zM512 -128h128v256h-256v-128h128v-128zM384 -256h128v128h-128v-128z" />
    <glyph glyph-name="tonos" unicode="&#x384;" 
d="M256 896h128v128h-128v-128zM128 768h128v128h-128v-128z" />
    <glyph glyph-name="dieresistonos" unicode="&#x385;" 
d="M384 1024h128v128h-128v-128zM640 896h128v128h-128v-128zM256 896h128v128h-128v-128zM0 896h128v128h-128v-128z" />
    <glyph glyph-name="Alphatonos" unicode="&#x386;" 
d="M256 1024v128h-128v-128h128zM0 896h128v128h-128v-128zM512 768v256h-256v-256h256zM640 0h128v384h-128v384h-128v-384h-256v384h-128v-384h-128v-384h128v256h512v-256z" />
    <glyph glyph-name="anoteleia" unicode="&#x387;" 
d="M384 640h128v128h-128v-128z" />
    <glyph glyph-name="Epsilontonos" unicode="&#x388;" 
d="M256 1024v128h-128v-128h128zM0 896h128v128h-128v-128zM896 128h-512v384h384v128h-384v256h512v128h-640v-1024h640v128z" />
    <glyph glyph-name="Etatonos" unicode="&#x389;" 
d="M128 1024h128v128h-128v-128zM128 896v128h-128v-128h128zM768 0h128v896h-128v-256h-512v256h-128v-896h128v512h512v-512z" />
    <glyph glyph-name="Iotatonos" unicode="&#x38a;" 
d="M256 1024v128h-128v-128h128zM0 896h128v128h-128v-128zM896 128h-256v768h256v128h-640v-128h256v-768h-256v-128h640v128z" />
    <glyph glyph-name="Omicrontonos" unicode="&#x38c;" 
d="M256 1024v128h-128v-128h128zM640 896v128h-384v-128h384zM128 896v128h-128v-128h128zM768 768v128h-128v-128h128zM128 768h128v128h-128v-128zM768 256h128v512h-128v-512zM128 256v512h-128v-512h128zM640 128h128v128h-128v-128zM256 128v128h-128v-128h128z
M640 128h-384v-128h384v128z" />
    <glyph glyph-name="Upsilontonos" unicode="&#x38e;" 
d="M128 896h128v128h-128v-128zM0 768h128v128h-128v-128zM768 512h128v256h-128v-256zM384 512v256h-128v-256h128zM640 384h128v128h-128v-128zM512 384v128h-128v-128h128zM512 0h128v384h-128v-384z" />
    <glyph glyph-name="Omegatonos" unicode="&#x38f;" 
d="M256 1152v128h-128v-128h128zM640 1024v128h-384v-128h384zM128 1024v128h-128v-128h128zM768 896v128h-128v-128h128zM128 896h128v128h-128v-128zM768 384h128v512h-128v-512zM128 384v512h-128v-512h128zM640 256h128v128h-128v-128zM256 256v128h-128v-128h128z
M896 128h-256v128h-128v-256h384v128zM384 256h-128v-128h-256v-128h384v256z" />
    <glyph glyph-name="iotadieresistonos" unicode="&#x390;" 
d="M640 1024v128h-128v-128h128zM640 896h128v128h-128v-128zM384 896h128v128h-128v-128zM128 896h128v128h-128v-128zM384 0h128v768h-128v-768z" />
    <glyph glyph-name="Alpha" unicode="&#x391;" 
d="M512 768v256h-256v-256h256zM640 0h128v384h-128v384h-128v-384h-256v384h-128v-384h-128v-384h128v256h512v-256z" />
    <glyph glyph-name="Beta" unicode="&#x392;" 
d="M896 512h-128v384h-128v-256h-384v256h384v128h-512v-1024h640v128h-512v384h512v-384h128v384z" />
    <glyph glyph-name="Gamma" unicode="&#x393;" 
d="M128 0h128v896h512v128h-640v-1024z" />
    <glyph glyph-name="Delta" unicode="&#x394;" 
d="M512 1024v128h-128v-128h128zM640 768v256h-128v-256h128zM256 768h128v256h-128v-256zM768 384v384h-128v-384h128zM128 384h128v384h-128v-384zM128 384h-128v-384h896v384h-128v-256h-640v256z" />
    <glyph glyph-name="Epsilon" unicode="&#x395;" 
d="M768 128h-512v384h384v128h-384v256h512v128h-640v-1024h640v128z" />
    <glyph glyph-name="Zeta" unicode="&#x396;" 
d="M640 768h128v256h-768v-128h640v-128zM512 640h128v128h-128v-128zM384 512h128v128h-128v-128zM256 384h128v128h-128v-128zM128 256h128v128h-128v-128zM768 128h-640v128h-128v-256h768v128z" />
    <glyph glyph-name="Eta" unicode="&#x397;" 
d="M768 0h128v1024h-128v-384h-512v384h-128v-1024h128v512h512v-512z" />
    <glyph glyph-name="Theta" unicode="&#x398;" 
d="M640 896v128h-384v-128h384zM768 768v128h-128v-128h128zM128 768h128v128h-128v-128zM768 256h128v512h-128v-512zM128 256v512h-128v-512h128zM640 128h128v128h-128v-128zM256 128v128h-128v-128h128zM640 128h-384v-128h384v128z" />
    <glyph glyph-name="Iota" unicode="&#x399;" 
d="M768 128h-256v768h256v128h-640v-128h256v-768h-256v-128h640v128z" />
    <glyph glyph-name="Kappa" unicode="&#x39a;" 
d="M128 0h128v512h128v-128h128v-128h128v-128h128v128h-128v128h-128v128h-128v128h-128v384h-128v-1024zM640 896h128v128h-128v-128zM512 768h128v128h-128v-128zM384 640h128v128h-128v-128zM768 0h128v128h-128v-128z" />
    <glyph glyph-name="Lambda" unicode="&#x39b;" 
d="M512 768v256h-256v-256h256zM640 0h128v384h-128v384h-128v-384h-256v384h-128v-384h-128v-384h128v256h512v-256z" />
    <glyph glyph-name="Mu" unicode="&#x39c;" 
d="M0 0h128v768h128v-256h128v-128h128v128h128v256h128v-768h128v1024h-128v-128h-128v-128h-128v-256h-128v256h-128v128h-128v128h-128v-1024z" />
    <glyph glyph-name="Nu" unicode="&#x39d;" 
d="M0 0h128v768h128v-256h128v-128h128v-256h128v-128h128v1024h-128v-640h-128v128h-128v256h-128v256h-256v-1024z" />
    <glyph glyph-name="Xi" unicode="&#x39e;" 
d="M768 1024h-640v-128h640v128zM768 640h-640v-128h640v128zM768 128h-640v-128h640v128z" />
    <glyph glyph-name="Omicron" unicode="&#x39f;" 
d="M640 896v128h-384v-128h384zM768 768v128h-128v-128h128zM128 768h128v128h-128v-128zM768 256h128v512h-128v-512zM128 256v512h-128v-512h128zM640 128h128v128h-128v-128zM256 128v128h-128v-128h128zM640 128h-384v-128h384v128z" />
    <glyph glyph-name="Pi" unicode="&#x3a0;" 
d="M640 0h128v1024h-768v-1024h128v896h512v-896z" />
    <glyph glyph-name="Rho" unicode="&#x3a1;" 
d="M768 128h-256v768h256v128h-640v-128h256v-768h-256v-128h640v128z" />
    <glyph glyph-name="Sigma" unicode="&#x3a3;" 
d="M256 768v128h512v128h-768v-128h128v-128h128zM384 640v128h-128v-128h128zM384 512h128v128h-128v-128zM256 384h128v128h-128v-128zM128 256h128v128h-128v-128zM768 128h-640v128h-128v-256h768v128z" />
    <glyph glyph-name="Tau" unicode="&#x3a4;" 
d="M768 128h-256v768h256v128h-640v-128h256v-768h-256v-128h640v128z" />
    <glyph glyph-name="Upsilon" unicode="&#x3a5;" 
d="M768 896h128v128h-128v-128zM128 896v128h-128v-128h128zM640 640h128v256h-128v-256zM256 640v256h-128v-256h128zM512 512h128v128h-128v-128zM384 512v128h-128v-128h128zM384 0h128v512h-128v-512z" />
    <glyph glyph-name="Phi" unicode="&#x3a6;" 
d="M384 0h128v128h256v128h-256v512h256v-512h128v512h-128v128h-256v128h-128v-128h-256v-128h-128v-512h128v-128h256v-128zM128 256v512h256v-512h-256z" />
    <glyph glyph-name="Chi" unicode="&#x3a7;" 
d="M640 768h128v256h-128v-256zM128 768v256h-128v-256h128zM512 640h128v128h-128v-128zM256 640v128h-128v-128h128zM512 384v256h-256v-256h256zM640 256v128h-128v-128h128zM128 256h128v128h-128v-128zM640 0h128v256h-128v-256zM0 0h128v256h-128v-256z" />
    <glyph glyph-name="Psi" unicode="&#x3a8;" 
d="M384 0h128v384h256v128h-256v512h-128v-512h-256v512h-128v-512h128v-128h256v-384zM768 512h128v512h-128v-512z" />
    <glyph glyph-name="Omega" unicode="&#x3a9;" 
d="M640 1024v128h-384v-128h384zM768 896v128h-128v-128h128zM128 896h128v128h-128v-128zM768 384h128v512h-128v-512zM128 384v512h-128v-512h128zM640 256h128v128h-128v-128zM256 256v128h-128v-128h128zM896 128h-256v128h-128v-256h384v128zM384 256h-128v-128h-256
v-128h384v256z" />
    <glyph glyph-name="Iotadieresis" unicode="&#x3aa;" 
d="M768 128h-256v768h256v128h-640v-128h256v-768h-256v-128h640v128z" />
    <glyph glyph-name="Upsilondieresis" unicode="&#x3ab;" 
d="M512 1152h128v128h-128v-128zM256 1152h128v128h-128v-128zM640 768h128v256h-128v-256zM256 768v256h-128v-256h128zM512 512h128v256h-128v-256zM384 512v256h-128v-256h128zM384 0h128v512h-128v-512z" />
    <glyph glyph-name="alphatonos" unicode="&#x3ac;" 
d="M640 640h128v128h-128v-128zM512 640v128h-256v-128h256zM640 128v512h-128v-512h128zM256 128v512h-128v-512h128zM640 0h128v128h-128v-128zM256 128v-128h256v128h-256z" />
    <glyph glyph-name="epsilontonos" unicode="&#x3ad;" 
d="M512 1024h128v128h-128v-128zM384 896h128v128h-128v-128zM640 768h-384v-128h384v128zM256 512v128h-128v-128h128zM512 512h-256v-128h256v128zM256 128v256h-128v-256h128zM256 128v-128h384v128h-384z" />
    <glyph glyph-name="etatonos" unicode="&#x3ae;" 
d="M512 1024h128v128h-128v-128zM384 896h128v128h-128v-128zM128 0h128v512h128v128h-128v128h-128v-768zM640 640v128h-256v-128h256zM640 -256h128v896h-128v-896z" />
    <glyph glyph-name="iotatonos" unicode="&#x3af;" 
d="M512 1024h128v128h-128v-128zM384 896h128v128h-128v-128zM384 0h128v768h-128v-768z" />
    <glyph glyph-name="upsilondieresistonos" unicode="&#x3b0;" 
d="M512 1280h128v128h-128v-128zM384 1152h128v128h-128v-128zM512 896h128v128h-128v-128zM256 896h128v128h-128v-128zM640 128h128v640h-128v-640zM256 128v640h-128v-640h128zM256 128v-128h384v128h-384z" />
    <glyph glyph-name="alpha" unicode="&#x3b1;" 
d="M640 640h128v128h-128v-128zM512 640v128h-256v-128h256zM640 128v512h-128v-512h128zM256 128v512h-128v-512h128zM640 0h128v128h-128v-128zM256 128v-128h256v128h-256z" />
    <glyph glyph-name="beta" unicode="&#x3b2;" 
d="M640 896v128h-384v-128h384zM128 -256h128v256h384v128h-384v768h-128v-1152zM640 640h128v256h-128v-256zM640 512v128h-256v-128h256zM640 128h128v384h-128v-384z" />
    <glyph glyph-name="gamma" unicode="&#x3b3;" 
d="M768 640h128v128h-128v-128zM128 640v128h-128v-128h128zM640 384h128v256h-128v-256zM256 384v256h-128v-256h128zM512 128h128v256h-128v-256zM384 128v256h-128v-256h128zM384 128v-384h128v384h-128z" />
    <glyph glyph-name="delta" unicode="&#x3b4;" 
d="M640 640v128h-256v128h384v128h-640v-128h128v-256h384zM640 128h128v512h-128v-512zM256 128v512h-128v-512h128zM256 128v-128h384v128h-384z" />
    <glyph glyph-name="epsilon" unicode="&#x3b5;" 
d="M640 768h-384v-128h384v128zM256 512v128h-128v-128h128zM512 512h-256v-128h256v128zM256 128v256h-128v-256h128zM256 128v-128h384v128h-384z" />
    <glyph glyph-name="zeta" unicode="&#x3b6;" 
d="M384 768h128v128h128v128h-384v-128h128v-128zM256 640h128v128h-128v-128zM256 128v512h-128v-512h128zM256 128v-128h256v128h-256zM512 -128h128v128h-128v-128zM384 -256h128v128h-128v-128z" />
    <glyph glyph-name="eta" unicode="&#x3b7;" 
d="M128 0h128v512h128v128h-128v128h-128v-768zM640 640v128h-256v-128h256zM640 -256h128v896h-128v-896z" />
    <glyph glyph-name="theta" unicode="&#x3b8;" 
d="M640 896v128h-384v-128h384zM640 128h128v768h-128v-256h-384v256h-128v-768h128v384h384v-384zM640 128h-384v-128h384v128z" />
    <glyph glyph-name="iota" unicode="&#x3b9;" 
d="M384 0h128v768h-128v-768z" />
    <glyph glyph-name="kappa" unicode="&#x3ba;" 
d="M128 0h128v384h128v-128h128v-128h128v128h-128v128h-128v128h-128v256h-128v-768zM512 640h128v128h-128v-128zM384 512h128v128h-128v-128zM640 0h128v128h-128v-128z" />
    <glyph glyph-name="lambda" unicode="&#x3bb;" 
d="M256 1024v128h-128v-128h128zM384 768v256h-128v-256h128zM512 512v256h-128v-256h128zM640 256v256h-128v-256h128zM256 256h128v256h-128v-256zM640 0h128v256h-128v-256zM128 0h128v256h-128v-256z" />
    <glyph glyph-name="mu" unicode="&#x3bc;" 
d="M0 -256h128v256h384v128h-384v640h-128v-1024zM512 128h128v640h-128v-640z" />
    <glyph glyph-name="nu" unicode="&#x3bd;" 
d="M640 384h128v384h-128v-384zM256 384v384h-128v-384h128zM512 128h128v256h-128v-256zM384 128v256h-128v-256h128zM384 0h128v128h-128v-128z" />
    <glyph glyph-name="xi" unicode="&#x3be;" 
d="M512 1024h-256v-128h256v128zM256 640v256h-128v-256h128zM256 640v-128h256v128h-256zM256 128v384h-128v-384h128zM256 128v-128h256v128h-256zM512 -128h128v128h-128v-128zM384 -256h128v128h-128v-128z" />
    <glyph glyph-name="omicron" unicode="&#x3bf;" 
d="M640 640v128h-384v-128h384zM640 128h128v512h-128v-512zM256 128v512h-128v-512h128zM256 128v-128h384v128h-384z" />
    <glyph glyph-name="pi" unicode="&#x3c0;" 
d="M512 0h128v640h128v128h-768v-128h128v-640h128v640h256v-640z" />
    <glyph glyph-name="rho" unicode="&#x3c1;" 
d="M640 640v128h-384v-128h384zM128 -256h128v256h384v128h-384v512h-128v-896zM640 128h128v512h-128v-512z" />
    <glyph glyph-name="sigma1" unicode="&#x3c2;" 
d="M512 768h-256v-128h256v128zM128 512h128v128h-128v-128zM128 128v384h-128v-384h128zM128 128v-128h256v128h-256zM384 -128h128v128h-128v-128zM256 -256h128v128h-128v-128z" />
    <glyph glyph-name="sigma" unicode="&#x3c3;" 
d="M512 128h128v512h128v128h-640v-128h-128v-512h128v512h384v-512zM512 128h-384v-128h384v128z" />
    <glyph glyph-name="tau" unicode="&#x3c4;" 
d="M384 0h128v640h128v128h-384v-128h128v-640z" />
    <glyph glyph-name="upsilon" unicode="&#x3c5;" 
d="M640 128h128v640h-128v-640zM256 128v640h-128v-640h128zM256 128v-128h384v128h-384z" />
    <glyph glyph-name="phi" unicode="&#x3c6;" 
d="M256 128v-128h256v-256h128v256h128v128h-128v512h128v-512h128v512h-128v128h-256v-640h-256v512h-128v-512h128zM256 640h128v128h-128v-128z" />
    <glyph glyph-name="chi" unicode="&#x3c7;" 
d="M640 512h128v256h-128v-256zM256 512v256h-128v-256h128zM512 384h128v128h-128v-128zM384 384v128h-128v-128h128zM512 128v256h-128v-256h128zM640 0v128h-128v-128h128zM256 0h128v128h-128v-128zM640 -256h128v256h-128v-256zM128 -256h128v256h-128v-256z" />
    <glyph glyph-name="psi" unicode="&#x3c8;" 
d="M128 128v-128h256v-256h128v256h256v128h-256v640h-128v-640h-256v640h-128v-640h128zM768 128h128v640h-128v-640z" />
    <glyph glyph-name="omega" unicode="&#x3c9;" 
d="M768 640v128h-128v-128h128zM128 640h128v128h-128v-128zM768 128h128v512h-128v-512zM128 128v512h-128v-512h128zM512 128v384h-128v-384h128zM512 128v-128h256v128h-256zM128 128v-128h256v128h-256z" />
    <glyph glyph-name="iotadieresis" unicode="&#x3ca;" 
d="M512 896h128v128h-128v-128zM256 896h128v128h-128v-128zM384 0h128v768h-128v-768z" />
    <glyph glyph-name="upsilondieresis" unicode="&#x3cb;" 
d="M512 896h128v128h-128v-128zM256 896h128v128h-128v-128zM640 128h128v640h-128v-640zM256 128v640h-128v-640h128zM256 128v-128h384v128h-384z" />
    <glyph glyph-name="omicrontonos" unicode="&#x3cc;" 
d="M640 1024h-256v-128h256v128zM640 640v128h-384v-128h384zM640 128h128v512h-128v-512zM256 128v512h-128v-512h128zM256 128v-128h384v128h-384z" />
    <glyph glyph-name="upsilontonos" unicode="&#x3cd;" 
d="M512 1024h128v128h-128v-128zM384 896h128v128h-128v-128zM640 128h128v640h-128v-640zM256 128v640h-128v-640h128zM256 128v-128h384v128h-384z" />
    <glyph glyph-name="omegatonos" unicode="&#x3ce;" 
d="M512 1024h128v128h-128v-128zM384 896h128v128h-128v-128zM768 640v128h-128v-128h128zM128 640h128v128h-128v-128zM768 128h128v512h-128v-512zM128 128v512h-128v-512h128zM512 128v384h-128v-384h128zM512 128v-128h256v128h-256zM128 128v-128h256v128h-256z" />
    <glyph glyph-name="uni03CF" unicode="&#x3cf;" 
d="M128 0h128v256h128v-128h128v-128h128v-128h-128v-128h-384v-128h384v128h128v128h128v128h-128v128h-128v128h-128v128h-128v256h-128v-640zM512 512h128v128h-128v-128zM384 384h128v128h-128v-128z" />
    <glyph glyph-name="uni03D0" unicode="&#x3d0;" 
d="M640 896v128h-384v-128h384zM256 128v768h-128v-768h128zM640 640h128v256h-128v-256zM640 512v128h-256v-128h256zM640 128h128v384h-128v-384zM256 128v-128h384v128h-384z" />
    <glyph glyph-name="theta1" unicode="&#x3d1;" 
d="M512 896v128h-128v-128h128zM512 128h128v384h128v128h-128v256h-128v-256h-128v256h-128v-256h128v-128h128v-384zM128 128v640h-128v-640h128zM128 128v-128h384v128h-384z" />
    <glyph glyph-name="Upsilon1" unicode="&#x3d2;" 
d="M896 1024h-256v-128h256v128zM128 896v128h-128v-128h128zM512 640h128v256h-128v-256zM256 640v256h-128v-256h128zM384 0h128v640h-256v-128h128v-512z" />
    <glyph glyph-name="uni03D3" unicode="&#x3d3;" 
d="M512 640v384h-128v-384h128zM768 896h128v128h-128v-128zM128 896h128v128h-128v-128zM0 768h128v128h-128v-128zM640 640h128v256h-128v-256zM512 0h128v640h-128v-640z" />
    <glyph glyph-name="uni03D4" unicode="&#x3d4;" 
d="M512 1152h128v128h-128v-128zM256 1152h128v128h-128v-128zM896 1024h-256v-128h256v128zM128 896v128h-128v-128h128zM512 640h128v256h-128v-256zM256 640v256h-128v-256h128zM384 0h128v640h-256v-128h128v-512z" />
    <glyph glyph-name="phi1" unicode="&#x3d5;" 
d="M384 -256h128v256h128v128h-128v512h128v-512h128v512h-128v128h-128v256h-128v-256h-128v-128h-128v-512h128v-128h128v-256zM384 128h-128v512h128v-512z" />
    <glyph glyph-name="omega1" unicode="&#x3d6;" 
d="M768 512v128h128v128h-896v-128h128v-128h128v128h384v-128h128zM512 128v-128h384v512h-128v-384h-256v384h-128v-384h128zM128 128v384h-128v-384h128zM128 128v-128h256v128h-256z" />
    <glyph glyph-name="uni03D7" unicode="&#x3d7;" 
d="M512 640h128v128h-128v-128zM128 640v128h-128v-128h128zM512 128v512h-128v-256h-128v256h-128v-512h128v128h128v-128h128zM0 0h128v128h-128v-128zM640 0v128h-128v-128h128zM640 -128h128v128h-128v-128zM512 -256h128v128h-128v-128z" />
    <glyph glyph-name="uni03D8" unicode="&#x3d8;" 
d="M640 896v128h-384v-128h384zM768 768v128h-128v-128h128zM128 768h128v128h-128v-128zM768 256h128v512h-128v-512zM128 256v512h-128v-512h128zM640 128h128v128h-128v-128zM256 128v128h-128v-128h128zM384 -256h128v256h128v128h-384v-128h128v-256z" />
    <glyph glyph-name="uni03D9" unicode="&#x3d9;" 
d="M640 640v128h-384v-128h384zM640 128h128v512h-128v-512zM256 128v512h-128v-512h128zM256 128v-128h128v-256h128v256h128v128h-384z" />
    <glyph glyph-name="uni03DA" unicode="&#x3da;" 
d="M768 1024h-512v-128h512v128zM128 768h128v128h-128v-128zM128 256v512h-128v-512h128zM128 256v-128h256v128h-256zM384 128v-128h256v128h-256zM640 -128h128v128h-128v-128zM640 -128h-384v-128h384v128z" />
    <glyph glyph-name="uni03DB" unicode="&#x3db;" 
d="M512 768h-384v-128h384v128zM128 128v512h-128v-512h128zM128 128v-128h256v128h-256zM384 -128h128v128h-128v-128zM384 -128h-256v-128h256v128z" />
    <glyph glyph-name="uni03DC" unicode="&#x3dc;" 
d="M128 0h128v512h384v-128h128v256h-512v256h640v128h-768v-1024z" />
    <glyph glyph-name="uni03DD" unicode="&#x3dd;" 
d="M256 -256h128v640h128v-128h128v256h-256v128h256v128h-384v-1024z" />
    <glyph glyph-name="uni03DE" unicode="&#x3de;" 
d="M256 896v128h-128v-128h128zM768 128v640h-128v-128h-128v-128h-128v384h-128v-512h256v128h128v-384h128zM128 256h128v128h-128v-128zM768 0h128v128h-128v-128z" />
    <glyph glyph-name="uni03DF" unicode="&#x3df;" 
d="M384 768h128v256h-128v-256zM512 256h128v256h-256v256h-128v-256h-128v-128h384v-128zM384 0h128v256h-128v-256z" />
    <glyph glyph-name="uni03E0" unicode="&#x3e0;" 
d="M640 896v128h-512v-128h512zM0 768h128v128h-128v-128zM768 -128h128v896h-128v128h-128v-128h-128v-128h-128v-128h128v128h256v-128h-128v-128h-128v-128h128v128h128v-512zM256 384h128v128h-128v-128zM384 128h128v128h-128v-128zM768 -128h-384v-128h384v128z" />
    <glyph glyph-name="uni03E1" unicode="&#x3e1;" 
d="M256 896v128h-256v-128h256zM384 768v128h-128v-128h128zM512 512v256h-128v-128h-128v-128h256zM512 -256h128v768h-128v-128h-128v-128h-128v-128h128v128h128v-512zM128 384h128v128h-128v-128z" />
    <glyph glyph-name="uni03F0" unicode="&#x3f0;" 
d="M512 512h128v256h-128v-256zM128 640v128h-128v-128h128zM512 128v384h-128v-128h-128v256h-128v-512h128v128h128v-128h128zM640 128h128v128h-128v-128zM512 0h128v128h-128v-128zM0 0h128v128h-128v-128z" />
    <glyph glyph-name="uni03F1" unicode="&#x3f1;" 
d="M640 640v128h-384v-128h384zM256 -128v128h384v128h-384v512h-128v-768h128zM640 128h128v512h-128v-512zM256 -128v-128h512v128h-512z" />
    <glyph glyph-name="uni03F2" unicode="&#x3f2;" 
d="M640 640v128h-384v-128h384zM640 512h128v128h-128v-128zM256 128v512h-128v-512h128zM640 128h128v128h-128v-128zM256 128v-128h384v128h-384z" />
    <glyph glyph-name="uni03F3" unicode="&#x3f3;" 
d="M512 896h128v128h-128v-128zM512 -256h128v1024h-128v-1024zM256 -256v128h-128v-128h128zM512 -256h-256v-128h256v128z" />
    <glyph glyph-name="uni03F4" unicode="&#x3f4;" 
d="M640 896v128h-384v-128h384zM768 768v128h-128v-128h128zM128 768h128v128h-128v-128zM768 256h128v512h-128v-512zM128 256v512h-128v-512h128zM640 128h128v128h-128v-128zM256 128v128h-128v-128h128zM640 128h-384v-128h384v128z" />
    <glyph glyph-name="uni03F5" unicode="&#x3f5;" 
d="M640 768h-384v-128h384v128zM256 128v256h256v128h-256v128h-128v-128h-128v-128h128v-256h128zM256 128v-128h384v128h-384z" />
    <glyph glyph-name="uni03F6" unicode="&#x3f6;" 
d="M512 640v128h-384v-128h384zM512 128h128v256h128v128h-128v128h-128v-128h-256v-128h256v-256zM512 128h-384v-128h384v128z" />
    <glyph glyph-name="uni03F7" unicode="&#x3f7;" 
d="M0 0h128v256h512v128h-512v256h512v-256h128v256h-128v128h-512v256h-128v-1024z" />
    <glyph glyph-name="uni03F8" unicode="&#x3f8;" 
d="M0 -256h128v256h384v128h-384v512h384v-512h128v512h-128v128h-384v256h-128v-1280z" />
    <glyph glyph-name="uni03F9" unicode="&#x3f9;" 
d="M640 896v128h-384v-128h384zM768 768v128h-128v-128h128zM128 768h128v128h-128v-128zM768 256h128v512h-128v-512zM128 256v512h-128v-512h128zM640 128h128v128h-128v-128zM256 128v128h-128v-128h128zM640 128h-384v-128h384v128z" />
    <glyph glyph-name="uni03FA" unicode="&#x3fa;" 
d="M0 0h128v768h128v-256h128v-128h128v128h128v256h128v-768h128v1024h-128v-128h-128v-128h-128v-256h-128v256h-128v128h-128v128h-128v-1024z" />
    <glyph glyph-name="uni03FB" unicode="&#x3fb;" 
d="M0 -256h128v640h128v-256h128v-128h128v128h-128v256h-128v256h-128v128h-128v-1024zM768 0h128v768h-128v-128h-128v-256h-128v-256h128v256h128v-384z" />
    <glyph glyph-name="uni03FC" unicode="&#x3fc;" 
d="M640 640v128h-384v-128h384zM128 -384h128v128h128v128h-128v128h384v128h-384v512h-128v-768h-128v-128h128v-128zM640 128h128v512h-128v-512z" />
    <glyph glyph-name="uni03FD" unicode="&#x3fd;" 
d="M640 896v128h-384v-128h384zM768 768v128h-128v-128h128zM128 768h128v128h-128v-128zM0 640h128v128h-128v-128zM768 256h128v512h-128v-512zM128 256v128h-128v-128h128zM640 128h128v128h-128v-128zM256 128v128h-128v-128h128zM640 128h-384v-128h384v128z" />
    <glyph glyph-name="uni03FE" unicode="&#x3fe;" 
d="M640 896v128h-384v-128h384zM768 768v128h-128v-128h128zM128 768h128v128h-128v-128zM768 256h128v512h-128v-512zM128 256v512h-128v-512h128zM384 512h128v128h-128v-128zM640 128h128v128h-128v-128zM256 128v128h-128v-128h128zM640 128h-384v-128h384v128z" />
    <glyph glyph-name="uni03FF" unicode="&#x3ff;" 
d="M640 896v128h-384v-128h384zM768 768v128h-128v-128h128zM128 768h128v128h-128v-128zM768 256h128v512h-128v-512zM128 256v512h-128v-512h128zM384 512h128v128h-128v-128zM640 128h128v128h-128v-128zM256 128v128h-128v-128h128zM640 128h-384v-128h384v128z" />
    <glyph glyph-name="uni1E00" unicode="&#x1e00;" 
d="M512 768v256h-256v-256h256zM640 0h128v384h-128v384h-128v-384h-256v384h-128v-384h-128v-384h128v256h512v-256zM384 -128v128h-128v-128h128zM384 -256h128v128h-128v-128zM256 -256v128h-128v-128h128zM256 -384h128v128h-128v-128z" />
    <glyph glyph-name="uni1E01" unicode="&#x1e01;" 
d="M640 640v128h-384v-128h384zM256 512v-128h-128v-256h128v-128h128v-128h-128v-128h128v128h128v-128h128v128h-128v256h-256v256h384v-128h-128v-128h128v-128h128v640h-128v-128h-384v128h-128v-128h128zM384 -384h128v128h-128v-128z" />
    <glyph glyph-name="uni1E02" unicode="&#x1e02;" 
d="M384 1152h128v128h-128v-128zM896 512h-128v384h-128v-256h-384v256h384v128h-512v-1024h640v128h-512v384h512v-384h128v384z" />
    <glyph glyph-name="uni1E03" unicode="&#x1e03;" 
d="M128 0h128v128h128v-128h256v128h-256v128h-128v256h128v128h-128v512h-128v-1152zM384 896h128v128h-128v-128zM640 640v128h-256v-128h256zM768 512v128h-128v-128h128zM768 256h128v256h-128v-256zM640 128h128v128h-128v-128z" />
    <glyph glyph-name="uni1E04" unicode="&#x1e04;" 
d="M896 512h-128v384h-128v-256h-384v256h384v128h-512v-1024h640v128h-512v384h512v-384h128v384zM384 -256h128v128h-128v-128z" />
    <glyph glyph-name="uni1E05" unicode="&#x1e05;" 
d="M128 0h128v128h128v-128h256v128h-256v128h-128v256h128v128h-128v512h-128v-1152zM640 640v128h-256v-128h256zM768 512v128h-128v-128h128zM768 256h128v256h-128v-256zM640 128h128v128h-128v-128zM384 -256h128v128h-128v-128z" />
    <glyph glyph-name="uni1E06" unicode="&#x1e06;" 
d="M896 512h-128v384h-128v-256h-384v256h384v128h-512v-1024h640v128h-512v384h512v-384h128v384zM640 -128h-384v-128h384v128z" />
    <glyph glyph-name="uni1E07" unicode="&#x1e07;" 
d="M128 0h128v128h128v-128h256v128h-256v128h-128v256h128v128h-128v512h-128v-1152zM640 640v128h-256v-128h256zM768 512v128h-128v-128h128zM768 256h128v256h-128v-256zM640 128h128v128h-128v-128zM640 -128h-384v-128h384v128z" />
    <glyph glyph-name="uni1E08" unicode="&#x1e08;" 
d="M512 1280h128v128h-128v-128zM384 1152h128v128h-128v-128zM640 896v128h-384v-128h384zM640 768h128v128h-128v-128zM128 768h128v128h-128v-128zM128 256v512h-128v-512h128zM640 128h128v128h-128v-128zM256 128v128h-128v-128h128zM512 -128v128h128v128h-384v-128
h128v-128h128zM512 -256h128v128h-128v-128zM512 -256h-256v-128h256v128z" />
    <glyph glyph-name="uni1E09" unicode="&#x1e09;" 
d="M512 1024h128v128h-128v-128zM384 896h128v128h-128v-128zM640 640v128h-384v-128h384zM640 512h128v128h-128v-128zM256 128v512h-128v-512h128zM640 128h128v128h-128v-128zM256 128v-128h128v-128h128v128h128v128h-384zM512 -256h128v128h-128v-128zM512 -256h-256
v-128h256v128z" />
    <glyph glyph-name="uni1E0A" unicode="&#x1e0a;" 
d="M512 1152h128v128h-128v-128zM768 256h128v512h-128v128h-128v128h-384v-1024h384v128h-256v768h256v-128h128v-512h-128v-128h128v128z" />
    <glyph glyph-name="uni1E0B" unicode="&#x1e0b;" 
d="M256 128v512h-128v-512h128v-128h256v128h128v-128h128v1152h-128v-512h-128v128h-256v-128h256v-128h128v-256h-128v-128h-256zM384 896h128v128h-128v-128z" />
    <glyph glyph-name="uni1E0C" unicode="&#x1e0c;" 
d="M768 256h128v512h-128v128h-128v128h-384v-1024h384v128h-256v768h256v-128h128v-512h-128v-128h128v128zM384 -256h128v128h-128v-128z" />
    <glyph glyph-name="uni1E0D" unicode="&#x1e0d;" 
d="M256 128v512h-128v-512h128v-128h256v128h128v-128h128v1152h-128v-512h-128v128h-256v-128h256v-128h128v-256h-128v-128h-256zM384 -256h128v128h-128v-128z" />
    <glyph glyph-name="uni1E0E" unicode="&#x1e0e;" 
d="M768 256h128v512h-128v128h-128v128h-384v-1024h384v128h-256v768h256v-128h128v-512h-128v-128h128v128zM640 -128h-384v-128h384v128z" />
    <glyph glyph-name="uni1E0F" unicode="&#x1e0f;" 
d="M256 128v512h-128v-512h128v-128h256v128h128v-128h128v1152h-128v-512h-128v128h-256v-128h256v-128h128v-256h-128v-128h-256zM640 -128h-384v-128h384v128z" />
    <glyph glyph-name="uni1E10" unicode="&#x1e10;" 
d="M512 -256h128v384h-256v768h256v-128h128v-512h-128v-128h128v128h128v512h-128v128h-128v128h-384v-1024h128v-128h128v-128zM384 -384h128v128h-128v-128z" />
    <glyph glyph-name="uni1E11" unicode="&#x1e11;" 
d="M640 0h128v1152h-128v-512h-128v128h-256v-128h256v-128h128v-256h-128v-128h128v-128zM256 128v512h-128v-512h128zM256 128v-128h128v-128h128v-128h128v256h-128v128h-256zM384 -384h128v128h-128v-128z" />
    <glyph glyph-name="uni1E12" unicode="&#x1e12;" 
d="M512 -128v128h128v128h-256v768h256v-128h128v-512h-128v-128h128v128h128v512h-128v128h-128v128h-384v-1024h128v-128h128zM512 -256h128v128h-128v-128zM256 -256h128v128h-128v-128z" />
    <glyph glyph-name="uni1E13" unicode="&#x1e13;" 
d="M256 128v512h-128v-512h128v-128h128v-128h128v256h128v-128h128v1152h-128v-512h-128v128h-256v-128h256v-128h128v-256h-128v-128h-256zM512 -256h128v128h-128v-128zM256 -256h128v128h-128v-128z" />
    <glyph glyph-name="uni1E14" unicode="&#x1e14;" 
d="M384 1408v128h-128v-128h128zM640 1280h-128v128h-128v-128h-128v-128h384v128zM768 128h-512v384h384v128h-384v256h512v128h-640v-1024h640v128z" />
    <glyph glyph-name="uni1E15" unicode="&#x1e15;" 
d="M384 1152v128h-128v-128h128zM640 1024h-128v128h-128v-128h-128v-128h384v128zM640 640v128h-384v-128h384zM256 128v256h512v256h-128v-128h-384v128h-128v-512h128zM640 128h128v128h-128v-128zM256 128v-128h384v128h-384z" />
    <glyph glyph-name="uni1E16" unicode="&#x1e16;" 
d="M512 1408h128v128h-128v-128zM640 1280h-128v128h-128v-128h-128v-128h384v128zM768 128h-512v384h384v128h-384v256h512v128h-640v-1024h640v128z" />
    <glyph glyph-name="uni1E17" unicode="&#x1e17;" 
d="M512 1152h128v128h-128v-128zM640 1024h-128v128h-128v-128h-128v-128h384v128zM640 640v128h-384v-128h384zM256 128v256h512v256h-128v-128h-384v128h-128v-512h128zM640 128h128v128h-128v-128zM256 128v-128h384v128h-384z" />
    <glyph glyph-name="uni1E18" unicode="&#x1e18;" 
d="M512 -128v128h256v128h-512v384h384v128h-384v256h512v128h-640v-1024h256v-128h128zM512 -256h128v128h-128v-128zM256 -256h128v128h-128v-128z" />
    <glyph glyph-name="uni1E19" unicode="&#x1e19;" 
d="M384 896h128v128h-128v-128zM640 640v128h-384v-128h384zM256 128v256h512v256h-128v-128h-384v128h-128v-512h128zM640 128h128v128h-128v-128zM256 128v-128h128v-128h128v128h128v128h-384zM512 -256h128v128h-128v-128zM256 -256h128v128h-128v-128z" />
    <glyph glyph-name="uni1E1A" unicode="&#x1e1a;" 
d="M384 1280v128h-128v-128h128zM384 1152h128v128h-128v-128zM768 128h-512v384h384v128h-384v256h512v128h-640v-1024h640v128zM640 -256h-128v128h-256v-128h128v-128h256v128zM640 -256h128v128h-128v-128zM128 -384h128v128h-128v-128z" />
    <glyph glyph-name="uni1E1B" unicode="&#x1e1b;" 
d="M384 896h128v128h-128v-128zM640 640v128h-384v-128h384zM256 128v256h512v256h-128v-128h-384v128h-128v-512h128zM640 128h128v128h-128v-128zM256 128v-128h384v128h-384zM640 -256h-128v128h-256v-128h128v-128h256v128zM640 -256h128v128h-128v-128zM128 -384h128
v128h-128v-128z" />
    <glyph glyph-name="uni1E1C" unicode="&#x1e1c;" 
d="M640 1280h128v128h-128v-128zM384 1280v128h-128v-128h128zM640 1280h-256v-128h256v128zM512 -128v128h256v128h-512v384h384v128h-384v256h512v128h-640v-1024h256v-128h128zM512 -256h128v128h-128v-128zM512 -256h-256v-128h256v128z" />
    <glyph glyph-name="uni1E1D" unicode="&#x1e1d;" 
d="M640 1024h128v128h-128v-128zM384 1024v128h-128v-128h128zM640 1024h-256v-128h256v128zM640 640v128h-384v-128h384zM256 128v256h512v256h-128v-128h-384v128h-128v-512h128zM640 128h128v128h-128v-128zM256 128v-128h256v-128h128v256h-384zM512 -128h-256v-128h256
v128z" />
    <glyph glyph-name="uni1E1E" unicode="&#x1e1e;" 
d="M384 1152h128v128h-128v-128zM128 0h128v512h384v128h-384v256h512v128h-640v-1024z" />
    <glyph glyph-name="uni1E1F" unicode="&#x1e1f;" 
d="M384 1152h128v128h-128v-128zM640 896v128h-256v-128h256zM256 0h128v512h256v128h-256v256h-128v-256h-128v-128h128v-512zM640 768h128v128h-128v-128z" />
    <glyph glyph-name="uni1E20" unicode="&#x1e20;" 
d="M768 1280h-384v-128h384v128zM768 896v128h-512v-128h512zM768 768h128v128h-128v-128zM128 768h128v128h-128v-128zM128 256v512h-128v-512h128zM768 128h128v384h-384v-128h256v-256zM256 128v128h-128v-128h128zM768 128h-512v-128h512v128z" />
    <glyph glyph-name="uni1E21" unicode="&#x1e21;" 
d="M640 1024h-384v-128h384v128zM256 128v512h-128v-512h128v-128h256v128h128v-256h128v896h-128v-128h-128v128h-256v-128h256v-128h128v-256h-128v-128h-256zM640 -128h-384v-128h384v128z" />
    <glyph glyph-name="uni1E22" unicode="&#x1e22;" 
d="M384 1152h128v128h-128v-128zM768 0h128v1024h-128v-384h-512v384h-128v-1024h128v512h512v-512z" />
    <glyph glyph-name="uni1E23" unicode="&#x1e23;" 
d="M512 1152h128v128h-128v-128zM256 0h128v512h128v128h-128v512h-128v-1152zM768 640v128h-256v-128h256zM768 0h128v640h-128v-640z" />
    <glyph glyph-name="uni1E24" unicode="&#x1e24;" 
d="M768 0h128v1024h-128v-384h-512v384h-128v-1024h128v512h512v-512zM384 -256h128v128h-128v-128z" />
    <glyph glyph-name="uni1E25" unicode="&#x1e25;" 
d="M256 0h128v512h128v128h-128v512h-128v-1152zM768 640v128h-256v-128h256zM768 0h128v640h-128v-640zM512 -256h128v128h-128v-128z" />
    <glyph glyph-name="uni1E26" unicode="&#x1e26;" 
d="M640 1152h128v128h-128v-128zM384 1152h128v128h-128v-128zM768 0h128v1024h-128v-384h-512v384h-128v-1024h128v512h512v-512z" />
    <glyph glyph-name="uni1E27" unicode="&#x1e27;" 
d="M768 1152h128v128h-128v-128zM512 1152h128v128h-128v-128zM256 0h128v512h128v128h-128v512h-128v-1152zM768 640v128h-256v-128h256zM768 0h128v640h-128v-640z" />
    <glyph glyph-name="uni1E28" unicode="&#x1e28;" 
d="M768 0h128v1024h-128v-384h-512v384h-128v-1024h128v-128h128v-128h-256v-128h256v128h128v128h-128v128h-128v512h512v-512z" />
    <glyph glyph-name="uni1E29" unicode="&#x1e29;" 
d="M384 0v512h128v128h-128v512h-128v-1152h128zM768 640v128h-256v-128h256zM768 0h128v640h-128v-640zM384 -128h128v128h-128v-128zM384 -128h-256v-128h256v128z" />
    <glyph glyph-name="uni1E2A" unicode="&#x1e2a;" 
d="M768 0h128v1024h-128v-384h-512v384h-128v-1024h128v512h512v-512zM640 -256h128v128h-128v-128zM384 -256v128h-128v-128h128zM640 -256h-256v-128h256v128z" />
    <glyph glyph-name="uni1E2B" unicode="&#x1e2b;" 
d="M256 0h128v512h128v128h-128v512h-128v-1152zM768 640v128h-256v-128h256zM768 0h128v640h-128v-640zM768 -256h128v128h-128v-128zM512 -256v128h-128v-128h128zM768 -256h-256v-128h256v128z" />
    <glyph glyph-name="uni1E2C" unicode="&#x1e2c;" 
d="M768 128h-256v768h256v128h-640v-128h256v-768h-256v-128h640v128zM640 -256h-128v128h-256v-128h128v-128h256v128zM640 -256h128v128h-128v-128zM128 -384h128v128h-128v-128z" />
    <glyph glyph-name="uni1E2D" unicode="&#x1e2d;" 
d="M384 896h128v128h-128v-128zM640 128h-128v640h-256v-128h128v-512h-128v-128h384v128zM640 -256h-128v128h-256v-128h128v-128h256v128zM640 -256h128v128h-128v-128zM128 -384h128v128h-128v-128z" />
    <glyph glyph-name="uni1E2E" unicode="&#x1e2e;" 
d="M512 1408h128v128h-128v-128zM384 1280h128v128h-128v-128zM640 1152h128v128h-128v-128zM256 1152h128v128h-128v-128zM768 128h-256v768h256v128h-640v-128h256v-768h-256v-128h640v128z" />
    <glyph glyph-name="uni1E2F" unicode="&#x1e2f;" 
d="M512 1280h128v128h-128v-128zM384 1152h128v128h-128v-128zM512 896h128v128h-128v-128zM256 896h128v128h-128v-128zM640 128h-128v640h-256v-128h128v-512h-128v-128h384v128z" />
    <glyph glyph-name="uni1E30" unicode="&#x1e30;" 
d="M512 1152h128v128h-128v-128zM384 1024h128v128h-128v-128zM128 0h128v512h128v-128h128v-128h128v-128h128v128h-128v128h-128v128h-128v128h-128v384h-128v-1024zM640 896h128v128h-128v-128zM512 768h128v128h-128v-128zM384 640h128v128h-128v-128zM768 0h128v128
h-128v-128z" />
    <glyph glyph-name="uni1E31" unicode="&#x1e31;" 
d="M512 1152h128v128h-128v-128zM128 0h128v384h128v-128h128v-128h128v128h-128v128h-128v128h-128v640h-128v-1152zM384 1024h128v128h-128v-128zM512 640h128v128h-128v-128zM384 512h128v128h-128v-128zM640 0h128v128h-128v-128z" />
    <glyph glyph-name="uni1E32" unicode="&#x1e32;" 
d="M128 0h128v512h128v-128h128v-128h128v-128h128v128h-128v128h-128v128h-128v128h-128v384h-128v-1024zM640 896h128v128h-128v-128zM512 768h128v128h-128v-128zM384 640h128v128h-128v-128zM768 0h128v128h-128v-128zM384 -128h128v128h-128v-128z" />
    <glyph glyph-name="uni1E33" unicode="&#x1e33;" 
d="M128 0h128v384h128v-128h128v-128h128v128h-128v128h-128v128h-128v640h-128v-1152zM512 640h128v128h-128v-128zM384 512h128v128h-128v-128zM640 0h128v128h-128v-128zM384 -128h128v128h-128v-128z" />
    <glyph glyph-name="uni1E34" unicode="&#x1e34;" 
d="M128 0h128v512h128v-128h128v-128h128v-128h128v128h-128v128h-128v128h-128v128h-128v384h-128v-1024zM640 896h128v128h-128v-128zM512 768h128v128h-128v-128zM384 640h128v128h-128v-128zM768 0h128v128h-128v-128zM640 -128h-384v-128h384v128z" />
    <glyph glyph-name="uni1E35" unicode="&#x1e35;" 
d="M128 0h128v384h128v-128h128v-128h128v128h-128v128h-128v128h-128v640h-128v-1152zM512 640h128v128h-128v-128zM384 512h128v128h-128v-128zM640 0h128v128h-128v-128zM640 -128h-384v-128h384v128z" />
    <glyph glyph-name="uni1E36" unicode="&#x1e36;" 
d="M768 128h-512v896h-128v-1024h640v128zM384 -256h128v128h-128v-128z" />
    <glyph glyph-name="uni1E37" unicode="&#x1e37;" 
d="M640 128h-128v896h-256v-128h128v-768h-128v-128h384v128zM384 -256h128v128h-128v-128z" />
    <glyph glyph-name="uni1E38" unicode="&#x1e38;" 
d="M640 1280h-384v-128h384v128zM768 128h-512v896h-128v-1024h640v128zM384 -256h128v128h-128v-128z" />
    <glyph glyph-name="uni1E39" unicode="&#x1e39;" 
d="M640 1280h-384v-128h384v128zM640 128h-128v896h-256v-128h128v-768h-128v-128h384v128zM384 -256h128v128h-128v-128z" />
    <glyph glyph-name="uni1E3A" unicode="&#x1e3a;" 
d="M768 128h-512v896h-128v-1024h640v128zM640 -128h-384v-128h384v128z" />
    <glyph glyph-name="uni1E3B" unicode="&#x1e3b;" 
d="M640 128h-128v896h-256v-128h128v-768h-128v-128h384v128zM640 -128h-384v-128h384v128z" />
    <glyph glyph-name="uni1E3C" unicode="&#x1e3c;" 
d="M768 128h-512v896h-128v-1024h640v128zM512 -256v128h-128v-128h128zM512 -384h128v128h-128v-128zM256 -384h128v128h-128v-128z" />
    <glyph glyph-name="uni1E3D" unicode="&#x1e3d;" 
d="M640 128h-128v896h-256v-128h128v-768h-128v-128h384v128zM512 -256v128h-128v-128h128zM512 -384h128v128h-128v-128zM256 -384h128v128h-128v-128z" />
    <glyph glyph-name="uni1E3E" unicode="&#x1e3e;" 
d="M512 1152h128v128h-128v-128zM384 1024h128v128h-128v-128zM0 0h128v768h128v-256h128v-128h128v128h128v256h128v-768h128v1024h-128v-128h-128v-128h-128v-256h-128v256h-128v128h-128v128h-128v-1024z" />
    <glyph glyph-name="uni1E3F" unicode="&#x1e3f;" 
d="M512 1024h128v128h-128v-128zM384 896h128v128h-128v-128zM384 0h128v640h256v128h-768v-768h128v640h256v-640zM768 0h128v640h-128v-640z" />
    <glyph glyph-name="uni1E40" unicode="&#x1e40;" 
d="M384 1024h128v128h-128v-128zM0 0h128v768h128v-256h128v-128h128v128h128v256h128v-768h128v1024h-128v-128h-128v-128h-128v-256h-128v256h-128v128h-128v128h-128v-1024z" />
    <glyph glyph-name="uni1E41" unicode="&#x1e41;" 
d="M384 896h128v128h-128v-128zM384 0h128v640h256v128h-768v-768h128v640h256v-640zM768 0h128v640h-128v-640z" />
    <glyph glyph-name="uni1E42" unicode="&#x1e42;" 
d="M0 0h128v768h128v-256h128v-128h128v128h128v256h128v-768h128v1024h-128v-128h-128v-128h-128v-256h-128v256h-128v128h-128v128h-128v-1024zM384 -128h128v128h-128v-128z" />
    <glyph glyph-name="uni1E43" unicode="&#x1e43;" 
d="M384 0h128v640h256v128h-768v-768h128v640h256v-640zM768 0h128v640h-128v-640zM384 -256h128v128h-128v-128z" />
    <glyph glyph-name="uni1E44" unicode="&#x1e44;" 
d="M384 1024h128v128h-128v-128zM0 0h128v768h128v-256h128v-256h128v-128h128v-128h128v1024h-128v-768h-128v256h-128v256h-128v128h-128v128h-128v-1024z" />
    <glyph glyph-name="uni1E45" unicode="&#x1e45;" 
d="M384 896h128v128h-128v-128zM128 0h128v512h128v128h-128v128h-128v-768zM640 640v128h-256v-128h256zM640 0h128v640h-128v-640z" />
    <glyph glyph-name="uni1E46" unicode="&#x1e46;" 
d="M0 0h128v768h128v-256h128v-256h128v-128h128v-128h128v1024h-128v-768h-128v256h-128v256h-128v128h-128v128h-128v-1024zM384 -128h128v128h-128v-128z" />
    <glyph glyph-name="uni1E47" unicode="&#x1e47;" 
d="M128 0h128v512h128v128h-128v128h-128v-768zM640 640v128h-256v-128h256zM640 0h128v640h-128v-640zM384 -128h128v128h-128v-128z" />
    <glyph glyph-name="uni1E48" unicode="&#x1e48;" 
d="M0 0h128v768h128v-256h128v-256h128v-128h128v-128h128v1024h-128v-768h-128v256h-128v256h-128v128h-128v128h-128v-1024zM640 -128h-384v-128h384v128z" />
    <glyph glyph-name="uni1E49" unicode="&#x1e49;" 
d="M128 0h128v512h128v128h-128v128h-128v-768zM640 640v128h-256v-128h256zM640 0h128v640h-128v-640zM640 -128h-384v-128h384v128z" />
    <glyph glyph-name="uni1E4A" unicode="&#x1e4a;" 
d="M0 0h128v768h128v-256h128v-256h128v-128h128v-128h128v1024h-128v-768h-128v256h-128v256h-128v128h-128v128h-128v-1024zM512 -128v128h-128v-128h128zM512 -256h128v128h-128v-128zM256 -256h128v128h-128v-128z" />
    <glyph glyph-name="uni1E4B" unicode="&#x1e4b;" 
d="M640 640v128h-384v-128h384zM640 128h128v512h-128v-512zM256 128v512h-128v-512h128zM256 128v-128h384v128h-384zM512 -256v128h-128v-128h128zM512 -384h128v128h-128v-128zM256 -384h128v128h-128v-128z" />
    <glyph glyph-name="uni1E4C" unicode="&#x1e4c;" 
d="M512 1408h128v128h-128v-128zM640 896v256h-128v256h-128v-128h-128v-128h-128v-128h128v-128h384zM640 1152h128v128h-128v-128zM384 1024h-128v128h128v-128zM768 768v128h-128v-128h128zM128 768h128v128h-128v-128zM768 256h128v512h-128v-512zM128 256v512h-128
v-512h128zM640 128h128v128h-128v-128zM256 128v128h-128v-128h128zM640 128h-384v-128h384v128z" />
    <glyph glyph-name="uni1E4D" unicode="&#x1e4d;" 
d="M512 1408h128v128h-128v-128zM384 1280h128v128h-128v-128zM640 1024h-128v128h-256v-128h128v-128h256v128zM640 1024h128v128h-128v-128zM128 896h128v128h-128v-128zM640 640v128h-384v-128h384zM640 128h128v512h-128v-512zM256 128v512h-128v-512h128zM256 128v-128
h384v128h-384z" />
    <glyph glyph-name="uni1E4E" unicode="&#x1e4e;" 
d="M512 1408h128v128h-128v-128zM256 1408h128v128h-128v-128zM640 896v256h-128v128h-256v-128h-128v-128h128v-128h384zM640 1152h128v128h-128v-128zM384 1024h-128v128h128v-128zM768 768v128h-128v-128h128zM128 768h128v128h-128v-128zM768 256h128v512h-128v-512z
M128 256v512h-128v-512h128zM640 128h128v128h-128v-128zM256 128v128h-128v-128h128zM640 128h-384v-128h384v128z" />
    <glyph glyph-name="uni1E4F" unicode="&#x1e4f;" 
d="M512 1280h128v128h-128v-128zM256 1280h128v128h-128v-128zM640 1024h-128v128h-256v-128h128v-128h256v128zM640 1024h128v128h-128v-128zM128 896h128v128h-128v-128zM640 640v128h-384v-128h384zM640 128h128v512h-128v-512zM256 128v512h-128v-512h128zM256 128v-128
h384v128h-384z" />
    <glyph glyph-name="Wgrave" unicode="&#x1e80;" 
d="M384 1152v128h-128v-128h128zM384 1024h128v128h-128v-128zM768 512h128v512h-128v-512zM128 512v512h-128v-512h128zM512 256v-128h128v-128h128v512h-128v-256h-128v384h-128v-384h128zM128 0h128v128h128v128h-128v256h-128v-512z" />
    <glyph glyph-name="Wacute" unicode="&#x1e82;" 
d="M512 1152h128v128h-128v-128zM384 1024h128v128h-128v-128zM768 512h128v512h-128v-512zM128 512v512h-128v-512h128zM512 256v-128h128v-128h128v512h-128v-256h-128v384h-128v-384h128zM128 0h128v128h128v128h-128v256h-128v-512z" />
    <glyph glyph-name="Wdieresis" unicode="&#x1e84;" 
d="M512 1024h128v128h-128v-128zM256 1024h128v128h-128v-128zM768 512h128v512h-128v-512zM128 512v512h-128v-512h128zM512 256v-128h128v-128h128v512h-128v-256h-128v384h-128v-384h128zM128 0h128v128h128v128h-128v256h-128v-512z" />
    <glyph glyph-name="uni1EA0" unicode="&#x1ea0;" 
d="M512 768v256h-256v-256h256zM640 0h128v384h-128v384h-128v-384h-256v384h-128v-384h-128v-384h128v256h512v-256zM256 -256h128v128h-128v-128z" />
    <glyph glyph-name="uni1EA1" unicode="&#x1ea1;" 
d="M512 640v128h-256v-128h256zM256 512v-128h-128v-256h128v-128h512v128h-128v512h-128v-128h-256v128h-128v-128h128zM256 128v256h256v-256h-256zM384 -256h128v128h-128v-128z" />
    <glyph glyph-name="uni1EA2" unicode="&#x1ea2;" 
d="M512 1280v128h-256v-128h256zM512 1152h128v128h-128v-128zM512 768v384h-128v-128h-128v-256h256zM640 0h128v384h-128v384h-128v-384h-256v384h-128v-384h-128v-384h128v256h512v-256z" />
    <glyph glyph-name="uni1EA3" unicode="&#x1ea3;" 
d="M512 1024v128h-256v-128h256zM512 896h128v128h-128v-128zM512 640v256h-128v-128h-128v-128h256zM256 512v-128h-128v-256h128v-128h512v128h-128v512h-128v-128h-256v128h-128v-128h128zM256 128v256h256v-256h-256z" />
    <glyph glyph-name="uni1EA4" unicode="&#x1ea4;" 
d="M384 1408h128v128h-128v-128zM512 1152v128h-128v128h-128v-256h256zM512 1024h128v128h-128v-128zM256 1024v128h-128v-128h128zM512 768v256h-256v-256h256zM640 0h128v384h-128v384h-128v-384h-256v384h-128v-384h-128v-384h128v256h512v-256z" />
    <glyph glyph-name="uni1EA5" unicode="&#x1ea5;" 
d="M512 1408h128v128h-128v-128zM384 1280h128v128h-128v-128zM512 1024v128h-128v-128h128zM512 896h128v128h-128v-128zM256 896h128v128h-128v-128zM512 640v128h-256v-128h256zM256 512v-128h-128v-256h128v-128h512v128h-128v512h-128v-128h-256v128h-128v-128h128z
M256 128v256h256v-256h-256z" />
    <glyph glyph-name="uni1EA6" unicode="&#x1ea6;" 
d="M384 1408v128h-128v-128h128zM512 1152v256h-128v-128h-128v-128h256zM512 1024h128v128h-128v-128zM256 1024v128h-128v-128h128zM512 768v256h-256v-256h256zM640 0h128v384h-128v384h-128v-384h-256v384h-128v-384h-128v-384h128v256h512v-256z" />
    <glyph glyph-name="uni1EA7" unicode="&#x1ea7;" 
d="M256 1408v128h-128v-128h128zM256 1280h128v128h-128v-128zM384 1024v128h-128v-128h128zM384 896h128v128h-128v-128zM128 896h128v128h-128v-128zM512 640v128h-256v-128h256zM256 512v-128h-128v-256h128v-128h512v128h-128v512h-128v-128h-256v128h-128v-128h128z
M256 128v256h256v-256h-256z" />
    <glyph glyph-name="uni1EA8" unicode="&#x1ea8;" 
d="M512 1408v128h-256v-128h256zM512 1280h128v128h-128v-128zM512 1152v128h-256v-128h256zM512 1024h128v128h-128v-128zM256 1024v128h-128v-128h128zM512 768v256h-256v-256h256zM640 0h128v384h-128v384h-128v-384h-256v384h-128v-384h-128v-384h128v256h512v-256z" />
    <glyph glyph-name="uni1EA9" unicode="&#x1ea9;" 
d="M384 1408v128h-256v-128h256zM384 1280h128v128h-128v-128zM384 1024v256h-128v-256h128zM384 896h128v128h-128v-128zM128 896h128v128h-128v-128zM512 640v128h-256v-128h256zM256 512v-128h-128v-256h128v-128h512v128h-128v512h-128v-128h-256v128h-128v-128h128z
M256 128v256h256v-256h-256z" />
    <glyph glyph-name="uni1EAA" unicode="&#x1eaa;" 
d="M512 1152v128h128v128h-128v128h-256v-128h128v-256h128zM640 1408h128v128h-128v-128zM128 1280h128v128h-128v-128zM640 1024v128h-128v-128h128zM256 1024h128v128h-128v-128zM640 896h128v128h-128v-128zM256 896v128h-128v-128h128zM512 768v128h-256v-128h256z
M640 0h128v384h-128v384h-128v-384h-256v384h-128v-384h-128v-384h128v256h512v-256z" />
    <glyph glyph-name="uni1EAB" unicode="&#x1eab;" 
d="M640 1408h-128v128h-256v-128h128v-128h256v128zM640 1408h128v128h-128v-128zM128 1280h128v128h-128v-128zM512 1024v128h-128v-128h128zM512 896h128v128h-128v-128zM256 896h128v128h-128v-128zM512 640v128h-256v-128h256zM256 512v-128h-128v-256h128v-128h512v128
h-128v512h-128v-128h-256v128h-128v-128h128zM256 128v256h256v-256h-256z" />
    <glyph glyph-name="uni1EAC" unicode="&#x1eac;" 
d="M512 1280v128h-256v-128h256zM640 1152v128h-128v-128h128zM128 1152h128v128h-128v-128zM640 1024h128v128h-128v-128zM0 1024h128v128h-128v-128zM512 768v256h-256v-256h256zM640 0h128v384h-128v384h-128v-384h-256v384h-128v-384h-128v-384h128v256h512v-256z
M384 -256h128v128h-128v-128z" />
    <glyph glyph-name="uni1EAD" unicode="&#x1ead;" 
d="M512 1024v128h-128v-128h128zM512 896h128v128h-128v-128zM256 896h128v128h-128v-128zM512 640v128h-256v-128h256zM256 512v-128h-128v-256h128v-128h512v128h-128v512h-128v-128h-256v128h-128v-128h128zM256 128v256h256v-256h-256z" />
    <glyph glyph-name="uni1EAE" unicode="&#x1eae;" 
d="M384 1408h128v128h-128v-128zM256 1280h128v128h-128v-128zM640 1152h128v128h-128v-128zM128 1152v128h-128v-128h128zM512 768v256h128v128h-512v-128h128v-256h256zM640 0h128v384h-128v384h-128v-384h-256v384h-128v-384h-128v-384h128v256h512v-256z" />
    <glyph glyph-name="uni1EAF" unicode="&#x1eaf;" 
d="M384 1408h128v128h-128v-128zM256 1280h128v128h-128v-128zM512 1024h128v128h-128v-128zM256 1024v128h-128v-128h128zM512 1024h-256v-128h256v128zM512 640v128h-256v-128h256zM256 512v-128h-128v-256h128v-128h512v128h-128v512h-128v-128h-256v128h-128v-128h128z
M256 128v256h256v-256h-256z" />
    <glyph glyph-name="uni1EB0" unicode="&#x1eb0;" 
d="M384 1408v128h-128v-128h128zM384 1280h128v128h-128v-128zM640 1152h128v128h-128v-128zM128 1152v128h-128v-128h128zM512 768v256h128v128h-512v-128h128v-256h256zM640 0h128v384h-128v384h-128v-384h-256v384h-128v-384h-128v-384h128v256h512v-256z" />
    <glyph glyph-name="uni1EB1" unicode="&#x1eb1;" 
d="M384 1408v128h-128v-128h128zM384 1280h128v128h-128v-128zM512 1024h128v128h-128v-128zM256 1024v128h-128v-128h128zM512 1024h-256v-128h256v128zM512 640v128h-256v-128h256zM256 512v-128h-128v-256h128v-128h512v128h-128v512h-128v-128h-256v128h-128v-128h128z
M256 128v256h256v-256h-256z" />
    <glyph glyph-name="uni1EB2" unicode="&#x1eb2;" 
d="M512 1408v128h-256v-128h256zM640 1280v128h-128v-128h128zM512 768v256h128v128h-128v128h-128v-128h-256v128h-128v-128h128v-128h128v-256h256zM640 1152h128v128h-128v-128zM640 0h128v384h-128v384h-128v-384h-256v384h-128v-384h-128v-384h128v256h512v-256z" />
    <glyph glyph-name="uni1EB3" unicode="&#x1eb3;" 
d="M512 1280v128h-256v-128h256zM512 1152h128v128h-128v-128zM512 1024v128h-128v-128h128zM512 896h128v128h-128v-128zM256 896v128h-128v-128h128zM512 640v256h-256v-256h256zM256 512v-128h-128v-256h128v-128h512v128h-128v512h-128v-128h-256v128h-128v-128h128z
M256 128v256h256v-256h-256z" />
    <glyph glyph-name="uni1EB4" unicode="&#x1eb4;" 
d="M640 1280v128h-128v128h-256v-128h-128v-128h128v128h128v-128h256zM640 1408h128v128h-128v-128zM640 1152h128v128h-128v-128zM128 1152v128h-128v-128h128zM512 768v256h128v128h-512v-128h128v-256h256zM640 0h128v384h-128v384h-128v-384h-256v384h-128v-384h-128
v-384h128v256h512v-256z" />
    <glyph glyph-name="uni1EB5" unicode="&#x1eb5;" 
d="M640 1408h-128v128h-256v-128h128v-128h256v128zM640 1408h128v128h-128v-128zM128 1280h128v128h-128v-128zM512 1024h128v128h-128v-128zM256 1024v128h-128v-128h128zM512 1024h-256v-128h256v128zM512 640v128h-256v-128h256zM256 512v-128h-128v-256h128v-128h512
v128h-128v512h-128v-128h-256v128h-128v-128h128zM256 128v256h256v-256h-256z" />
    <glyph glyph-name="uni1EB6" unicode="&#x1eb6;" 
d="M640 1152h128v128h-128v-128zM128 1152v128h-128v-128h128zM512 768v256h128v128h-512v-128h128v-256h256zM640 0h128v384h-128v384h-128v-384h-256v384h-128v-384h-128v-384h128v256h512v-256z" />
    <glyph glyph-name="uni1EB7" unicode="&#x1eb7;" 
d="M512 1024h128v128h-128v-128zM256 1024v128h-128v-128h128zM512 1024h-256v-128h256v128zM512 640v128h-256v-128h256zM256 512v-128h-128v-256h128v-128h512v128h-128v512h-128v-128h-256v128h-128v-128h128zM256 128v256h256v-256h-256zM384 -256h128v128h-128v-128z
" />
    <glyph glyph-name="uni1EB8" unicode="&#x1eb8;" 
d="M768 128h-512v384h384v128h-384v256h512v128h-640v-1024h640v128zM384 -256h128v128h-128v-128z" />
    <glyph glyph-name="uni1EB9" unicode="&#x1eb9;" 
d="M640 640v128h-384v-128h384zM256 128v256h512v256h-128v-128h-384v128h-128v-512h128zM640 128h128v128h-128v-128zM256 128v-128h384v128h-384zM384 -256h128v128h-128v-128z" />
    <glyph glyph-name="uni1EBA" unicode="&#x1eba;" 
d="M512 1280v128h-256v-128h256zM512 1152h128v128h-128v-128zM768 128h-512v384h384v128h-384v256h512v128h-256v128h-128v-128h-256v-1024h640v128z" />
    <glyph glyph-name="uni1EBB" unicode="&#x1ebb;" 
d="M512 1024v128h-256v-128h256zM512 896h128v128h-128v-128zM640 640v128h-128v128h-128v-128h-128v-128h384zM256 128v256h512v256h-128v-128h-384v128h-128v-512h128zM640 128h128v128h-128v-128zM256 128v-128h384v128h-384z" />
    </font>
</defs>
</svg>
