<?xml version="1.0" standalone="no"?>
<!DOCTYPE svg PUBLIC "-//W3C//DTD SVG 1.1//EN" "http://www.w3.org/Graphics/SVG/1.1/DTD/svg11.dtd" >
<svg xmlns="http://www.w3.org/2000/svg" xmlns:xlink="http://www.w3.org/1999/xlink" version="1.1">
<metadata>
Created by FontForge 20170731 at Thu Aug 26 03:20:54 2021
 By Aleksey,,,
unnamed
</metadata>
<defs>
<font id="CerebellumSmall" horiz-adv-x="896" >
  <font-face 
    font-family="Cerebellum"
    font-weight="500"
    font-variant="small-caps"
    font-stretch="normal"
    units-per-em="2048"
    panose-1="2 0 6 3 0 0 0 0 0 0"
    ascent="1536"
    descent="-512"
    x-height="640"
    cap-height="896"
    bbox="-256 -384 1792 1408"
    underline-thickness="102"
    underline-position="-358"
    unicode-range="U+0020-3000"
  />
<missing-glyph horiz-adv-x="748" 
d="M68 0v1364h544v-1364h-544zM136 68h408v1228h-408v-1228z" />
    <glyph glyph-name=".notdef" horiz-adv-x="748" 
d="M68 0v1364h544v-1364h-544zM136 68h408v1228h-408v-1228z" />
    <glyph glyph-name=".null" horiz-adv-x="0" 
 />
    <glyph glyph-name="nonmarkingreturn" horiz-adv-x="682" 
 />
    <glyph glyph-name="space" unicode=" " horiz-adv-x="640" 
 />
    <glyph glyph-name="exclam" unicode="!" horiz-adv-x="640" 
d="M384 0v128h128v-128h-128zM384 256v640h128v-640h-128z" />
    <glyph glyph-name="quotedbl" unicode="&#x22;" horiz-adv-x="640" 
d="M384 512v384h128v-384h-128zM128 512v384h128v-384h-128z" />
    <glyph glyph-name="numbersign" unicode="#" horiz-adv-x="1024" 
d="M384 128v128h-128v-128h-128v128h-128v128h256v128h-128v128h128v128h128v-128h128v128h128v-128h256v-128h-256v-128h128v-128h-256v-128h-128zM512 384v128h-128v-128h128z" />
    <glyph glyph-name="dollar" unicode="$" 
d="M384 -128v128h-128v128h128v256h-128v128h-128v256h128v128h128v128h128v-128h128v-128h128v-128h-128v128h-128v-256h128v-128h128v-256h-128v256h-128v-256h128v-128h-128v-128h-128zM256 128h-128v128h128v-128zM384 512v256h-128v-256h128z" />
    <glyph glyph-name="percent" unicode="%" horiz-adv-x="1024" 
d="M128 0v128h128v-128h-128zM768 0h-256v384h256v-128h-128v-128h128v128h128v-256h-128zM256 128v256h-256v384h256v-128h-128v-128h128v128h128v-128h128v-128h-128v-256h-128zM512 512v256h128v-256h-128zM640 768v128h128v-128h-128z" />
    <glyph glyph-name="ampersand" unicode="&#x26;" horiz-adv-x="1024" 
d="M768 0v128h128v-128h-128zM384 128h128v-128h-256v128h128zM768 128h-256v128h128v128h128v-256zM256 128h-128v256h128v-256zM768 384v128h128v-128h-128zM640 384h-128v128h128v-128zM256 384v128h128v-128h-128zM512 512h-128v128h128v-128zM256 512h-128v256h128
v-256zM512 640v128h128v-128h-128zM512 768h-256v128h256v-128z" />
    <glyph glyph-name="quotesingle" unicode="'" horiz-adv-x="384" 
d="M128 640v384h128v-384h-128z" />
    <glyph glyph-name="parenleft" unicode="(" horiz-adv-x="512" 
d="M256 -256v128h128v-128h-128zM256 -128h-128v256h128v-256zM128 128h-128v512h128v-512zM128 640v256h128v-256h-128zM256 896v128h128v-128h-128z" />
    <glyph glyph-name="parenright" unicode=")" horiz-adv-x="512" 
d="M0 -256v128h128v-128h-128zM128 -128v256h128v-256h-128zM256 128v512h128v-512h-128zM256 640h-128v256h128v-256zM128 896h-128v128h128v-128z" />
    <glyph glyph-name="asterisk" unicode="*" horiz-adv-x="768" 
d="M384 512v128h128v-128h-128zM0 512v128h128v-128h-128zM384 640h-256v128h-256v128h256v128h256v-128h256v-128h-256v-128zM384 1024v128h128v-128h-128zM128 1024h-128v128h128v-128z" />
    <glyph glyph-name="plus" unicode="+" horiz-adv-x="768" 
d="M512 512h128v-128h-512v128h384z" />
    <glyph glyph-name="comma" unicode="," horiz-adv-x="384" 
d="M128 -256v384h128v-384h-128z" />
    <glyph glyph-name="hyphen" unicode="-" horiz-adv-x="640" 
d="M384 384h128v-128h-384v128h256z" />
    <glyph glyph-name="period" unicode="." horiz-adv-x="384" 
d="M128 0v128h128v-128h-128z" />
    <glyph glyph-name="slash" unicode="/" 
d="M0 -256v128h128v-128h-128zM128 -128v256h128v-256h-128zM256 128v256h128v-256h-128zM384 384v256h128v-256h-128zM512 640v256h128v-256h-128zM640 896v128h128v-128h-128z" />
    <glyph glyph-name="zero" unicode="0" 
d="M512 128h128v-128h-384v128h256zM640 128v640h128v-640h-128zM256 128h-128v640h128v-640zM640 768h-384v128h384v-128z" />
    <glyph glyph-name="one" unicode="1" 
d="M128 512v128h128v-128h-128zM640 128h128v-128h-640v128h256v512h-128v128h128v128h128v-768h128z" />
    <glyph glyph-name="two" unicode="2" 
d="M128 640v128h128v-128h-128zM640 128h128v-128h-640v256h128v-128h384zM256 256v128h128v-128h-128zM512 512h128v-128h-256v128h128zM640 512v256h128v-256h-128zM640 768h-384v128h384v-128z" />
    <glyph glyph-name="three" unicode="3" 
d="M128 640v128h128v-128h-128zM512 128h128v-128h-384v128h256zM640 128v256h128v-256h-128zM256 128h-128v128h128v-128zM640 384h-384v128h384v-128zM640 512v256h128v-256h-128zM640 768h-384v128h384v-128z" />
    <glyph glyph-name="four" unicode="4" 
d="M512 0v256h-384v256h128v128h128v128h128v128h128v-512h128v-128h-128v-256h-128zM384 384h128v256h-128v-128h-128v-128h128z" />
    <glyph glyph-name="five" unicode="5" 
d="M512 128h128v-128h-384v128h256zM640 128v256h128v-256h-128zM256 128h-128v128h128v-128zM640 384h-512v512h640v-128h-512v-256h384v-128z" />
    <glyph glyph-name="six" unicode="6" 
d="M640 640v128h128v-128h-128zM512 128h128v-128h-384v128h256zM640 128v256h128v-256h-128zM256 128h-128v640h128v-256h384v-128h-384v-256zM640 768h-384v128h384v-128z" />
    <glyph glyph-name="seven" unicode="7" 
d="M256 0v256h128v-256h-128zM384 256v128h128v-128h-128zM512 384v256h128v-256h-128zM640 640v128h-512v128h640v-256h-128z" />
    <glyph glyph-name="eight" unicode="8" 
d="M512 128h128v-128h-384v128h256zM640 128v256h128v-256h-128zM256 128h-128v256h128v-256zM640 384h-384v128h384v-128zM640 512v256h128v-256h-128zM256 512h-128v256h128v-256zM640 768h-384v128h384v-128z" />
    <glyph glyph-name="nine" unicode="9" 
d="M512 128h128v-128h-384v128h256zM640 128v256h-384v128h384v256h128v-640h-128zM256 128h-128v128h128v-128zM256 512h-128v256h128v-256zM640 768h-384v128h384v-128z" />
    <glyph glyph-name="colon" unicode=":" horiz-adv-x="512" 
d="M256 0v128h128v-128h-128zM256 384v128h128v-128h-128z" />
    <glyph glyph-name="semicolon" unicode=";" horiz-adv-x="512" 
d="M128 -256v128h128v-128h-128zM256 384v128h128v-128h-128zM256 -128v256h128v-256h-128z" />
    <glyph glyph-name="less" unicode="&#x3c;" 
d="M640 0v128h128v-128h-128zM640 128h-256v128h256v-128zM384 256h-128v128h128v-128zM256 384h-128v128h128v-128zM256 512v128h128v-128h-128zM512 768h128v-128h-256v128h128zM640 768v128h128v-128h-128z" />
    <glyph glyph-name="equal" unicode="=" horiz-adv-x="768" 
d="M512 384h128v-128h-512v128h384zM512 640h128v-128h-512v128h384z" />
    <glyph glyph-name="greater" unicode="&#x3e;" 
d="M128 0v128h128v-128h-128zM384 256h128v-128h-256v128h128zM512 256v128h128v-128h-128zM640 384v128h128v-128h-128zM640 512h-128v128h128v-128zM512 640h-256v128h256v-128zM256 768h-128v128h128v-128z" />
    <glyph glyph-name="question" unicode="?" horiz-adv-x="768" 
d="M256 0v128h128v-128h-128zM256 256v128h128v-128h-128zM128 640v128h128v-128h-128zM384 384v128h128v-128h-128zM512 512v256h128v-256h-128zM512 768h-256v128h256v-128z" />
    <glyph glyph-name="at" unicode="@" horiz-adv-x="1152" 
d="M640 0h128v-128h-384v128h256zM768 0v128h-384v-128h-128v128h128v384h384v-256h128v384h128v-512h-128v-128h-128zM256 128h-128v512h128v-512zM640 256v128h-128v-128h128zM896 640h-128v128h128v-128zM256 640v128h128v-128h-128zM768 768h-384v128h384v-128z" />
    <glyph glyph-name="A" unicode="A" 
d="M640 0v256h-512v-256h-128v384h128v384h128v-384h256v384h128v-384h128v-384h-128zM512 768h-256v128h256v-128z" />
    <glyph glyph-name="B" unicode="B" 
d="M512 128h128v256h-512v-256h384zM512 0h-512v896h512v-128h-384v-256h384v256h128v-384h128v-256h-128v-128h-128z" />
    <glyph glyph-name="C" unicode="C" 
d="M640 640v128h128v-128h-128zM512 128h128v-128h-512v128h384zM640 128v128h128v-128h-128zM128 128h-128v640h128v-640zM640 768h-512v128h512v-128z" />
    <glyph glyph-name="D" unicode="D" 
d="M384 128h128v128h128v384h-128v128h-384v-640h256zM384 0h-384v896h512v-128h128v-128h128v-384h-128v-128h-128v-128h-128z" />
    <glyph glyph-name="E" unicode="E" 
d="M640 128h128v-128h-640v896h640v-128h-512v-256h384v-128h-384v-256h384z" />
    <glyph glyph-name="F" unicode="F" 
d="M128 0v896h640v-128h-512v-256h384v-128h-384v-384h-128z" />
    <glyph glyph-name="G" unicode="G" 
d="M640 640v128h128v-128h-128zM512 128h128v-128h-512v128h384zM640 128v256h-256v128h384v-384h-128zM128 128h-128v640h128v-640zM640 768h-512v128h512v-128z" />
    <glyph glyph-name="H" unicode="H" 
d="M640 0v384h-384v-384h-128v896h128v-384h384v384h128v-896h-128z" />
    <glyph glyph-name="I" unicode="I" 
d="M640 128h128v-128h-640v128h256v640h-256v128h640v-128h-256v-640h128z" />
    <glyph glyph-name="J" unicode="J" horiz-adv-x="768" 
d="M384 128h128v-128h-256v128h128zM512 128v768h128v-768h-128zM256 128h-128v128h128v-128z" />
    <glyph glyph-name="K" unicode="K" 
d="M640 0v128h128v-128h-128zM128 0v896h128v-384h128v128h128v-384h128v-128h-128v128h-128v128h-128v-384h-128zM512 640v128h128v-128h-128zM640 768v128h128v-128h-128z" />
    <glyph glyph-name="L" unicode="L" 
d="M640 128h128v-128h-640v896h128v-768h384z" />
    <glyph glyph-name="M" unicode="M" horiz-adv-x="1024" 
d="M768 0v640h-128v-128h-128v-128h-128v128h128v128h128v128h128v128h128v-896h-128zM0 0v896h128v-128h128v-128h128v-128h-128v128h-128v-640h-128z" />
    <glyph glyph-name="N" unicode="N" horiz-adv-x="1024" 
d="M768 0v128h-128v128h128v640h128v-896h-128zM0 0v896h128v-128h128v-128h128v-128h128v-128h128v-128h-128v128h-128v128h-128v128h-128v-640h-128z" />
    <glyph glyph-name="O" unicode="O" horiz-adv-x="1024" 
d="M512 128h128v-128h-384v128h256zM640 128v128h128v-128h-128zM256 128h-128v128h128v-128zM768 256v384h128v-384h-128zM128 256h-128v384h128v-384zM768 640h-128v128h128v-128zM128 640v128h128v-128h-128zM640 768h-384v128h384v-128z" />
    <glyph glyph-name="P" unicode="P" 
d="M128 0v896h512v-128h128v-256h-128v256h-384v-256h384v-128h-384v-384h-128z" />
    <glyph glyph-name="Q" unicode="Q" horiz-adv-x="1024" 
d="M768 0h-512v128h256v128h256v-128h128v-128h-128zM256 128h-128v128h128v-128zM768 256v384h128v-384h-128zM512 256h-128v128h128v-128zM128 256h-128v384h128v-384zM768 640h-128v128h128v-128zM128 640v128h128v-128h-128zM640 768h-384v128h384v-128z" />
    <glyph glyph-name="R" unicode="R" 
d="M640 0v256h128v-256h-128zM128 0v896h512v-128h128v-256h-128v256h-384v-256h384v-256h-128v128h-256v-384h-128z" />
    <glyph glyph-name="S" unicode="S" 
d="M640 640v128h128v-128h-128zM512 128h128v-128h-384v128h256zM640 128v256h128v-256h-128zM256 128h-128v128h128v-128zM640 384h-384v128h384v-128zM256 512h-128v256h128v-256zM640 768h-384v128h384v-128z" />
    <glyph glyph-name="T" unicode="T" 
d="M384 0v768h-256v128h640v-128h-256v-768h-128z" />
    <glyph glyph-name="U" unicode="U" 
d="M512 128h128v-128h-384v128h256zM640 128v768h128v-768h-128zM256 128h-128v768h128v-768z" />
    <glyph glyph-name="V" unicode="V" 
d="M384 0v128h-128v384h128v-256h128v-256h-128zM512 256v256h128v-256h-128zM640 512v384h128v-384h-128zM256 512h-128v384h128v-384z" />
    <glyph glyph-name="W" unicode="W" horiz-adv-x="1024" 
d="M640 0v256h128v-256h-128zM128 0v256h128v-256h-128zM768 256v640h128v-640h-128zM640 256h-128v256h128v-256zM256 256v256h128v-256h-128zM128 256h-128v640h128v-640zM512 512h-128v384h128v-384z" />
    <glyph glyph-name="X" unicode="X" 
d="M640 0v128h128v-128h-128zM128 0v128h128v-128h-128zM640 128h-128v256h128v-256zM256 128v256h128v-256h-128zM512 384h-128v128h128v-128zM512 512v256h128v-256h-128zM384 512h-128v256h128v-256zM640 768v128h128v-128h-128zM256 768h-128v128h128v-128z" />
    <glyph glyph-name="Y" unicode="Y" 
d="M384 0v384h-128v128h384v-128h-128v-384h-128zM640 512v384h128v-384h-128zM256 512h-128v384h128v-384z" />
    <glyph glyph-name="Z" unicode="Z" 
d="M640 128h128v-128h-640v256h128v-128h384zM256 256v128h128v-128h-128zM384 384v128h128v-128h-128zM512 512v128h128v-128h-128zM640 640v128h-512v128h640v-256h-128z" />
    <glyph glyph-name="bracketleft" unicode="[" horiz-adv-x="512" 
d="M256 -384h-128v1408h256v-128h-128v-1152h128v-128h-128z" />
    <glyph glyph-name="backslash" unicode="\" horiz-adv-x="1024" 
d="M768 -384v128h128v-128h-128zM768 -256h-128v256h128v-256zM640 0h-128v256h128v-256zM512 256h-128v128h128v-128zM384 384h-128v256h128v-256zM256 640h-128v256h128v-256zM128 896h-128v128h128v-128z" />
    <glyph glyph-name="bracketright" unicode="]" horiz-adv-x="384" 
d="M128 -384h-128v128h128v1152h-128v128h256v-1408h-128z" />
    <glyph glyph-name="asciicircum" unicode="^" 
d="M640 256v256h128v-256h-128zM128 256v256h128v-256h-128zM640 512h-128v256h128v-256zM256 512v256h128v-256h-128zM512 768h-128v128h128v-128z" />
    <glyph glyph-name="underscore" unicode="_" 
d="M640 0h128v-128h-640v128h512z" />
    <glyph glyph-name="grave" unicode="`" horiz-adv-x="512" 
d="M256 768v128h128v-128h-128zM256 896h-128v128h128v-128zM128 1024h-128v128h128v-128z" />
    <glyph glyph-name="a" unicode="a" horiz-adv-x="768" 
d="M512 0h-384v256h128v128h256v128h128v-512h-128zM384 128h128v128h-256v-128h128zM256 384h-128v128h128v-128zM512 512h-256v128h256v-128z" />
    <glyph glyph-name="b" unicode="b" 
d="M512 128h128v384h-384v-384h256zM512 0h-384v896h128v-256h384v-128h128v-384h-128v-128h-128z" />
    <glyph glyph-name="c" unicode="c" 
d="M640 384v128h128v-128h-128zM512 128h128v-128h-384v128h256zM640 128v128h128v-128h-128zM256 128h-128v384h128v-384zM640 512h-384v128h384v-128z" />
    <glyph glyph-name="d" unicode="d" 
d="M640 0h-384v128h-128v384h128v128h384v256h128v-896h-128zM512 128h128v384h-384v-384h256z" />
    <glyph glyph-name="e" unicode="e" 
d="M512 128h128v-128h-384v128h256zM256 128h-128v384h128v-128h384v128h128v-256h-512v-128zM640 512h-384v128h384v-128z" />
    <glyph glyph-name="f" unicode="f" horiz-adv-x="768" 
d="M256 0v384h-128v128h128v256h128v-256h256v-128h-256v-384h-128zM512 896h128v-128h-256v128h128z" />
    <glyph glyph-name="g" unicode="g" 
d="M512 -128h128v-128h-384v128h256zM640 -128v128h-384v128h384v384h128v-640h-128zM256 128h-128v384h128v-384zM640 512h-384v128h384v-128z" />
    <glyph glyph-name="h" unicode="h" 
d="M640 0v512h128v-512h-128zM128 0v896h128v-256h384v-128h-384v-512h-128z" />
    <glyph glyph-name="i" unicode="i" horiz-adv-x="640" 
d="M384 0v640h128v-640h-128zM384 768v128h128v-128h-128z" />
    <glyph glyph-name="j" unicode="j" horiz-adv-x="640" 
d="M384 768v128h128v-128h-128zM256 -128h128v-128h-256v128h128zM384 -128v768h128v-768h-128z" />
    <glyph glyph-name="k" unicode="k" horiz-adv-x="768" 
d="M512 0v128h128v-128h-128zM128 0v896h128v-512h128v-128h128v-128h-128v128h-128v-256h-128zM384 384v128h128v-128h-128zM512 512v128h128v-128h-128z" />
    <glyph glyph-name="l" unicode="l" horiz-adv-x="640" 
d="M384 0v896h128v-896h-128z" />
    <glyph glyph-name="m" unicode="m" horiz-adv-x="1024" 
d="M768 0v512h128v-512h-128zM384 0v512h-256v-512h-128v640h768v-128h-256v-512h-128z" />
    <glyph glyph-name="n" unicode="n" 
d="M640 0v512h128v-512h-128zM128 0v640h512v-128h-384v-512h-128z" />
    <glyph glyph-name="o" unicode="o" 
d="M512 128h128v-128h-384v128h256zM640 128v384h128v-384h-128zM256 128h-128v384h128v-384zM640 512h-384v128h384v-128z" />
    <glyph glyph-name="p" unicode="p" 
d="M128 -256v896h512v-128h128v-384h-128v384h-384v-384h384v-128h-384v-256h-128z" />
    <glyph glyph-name="q" unicode="q" 
d="M640 -256v256h-384v128h384v384h128v-768h-128zM256 128h-128v384h128v-384zM640 512h-384v128h384v-128z" />
    <glyph glyph-name="r" unicode="r" 
d="M128 0v640h128v-128h128v-128h-128v-384h-128zM640 384v128h128v-128h-128zM640 512h-256v128h256v-128z" />
    <glyph glyph-name="s" unicode="s" 
d="M512 128h128v-128h-512v128h384zM640 128v128h128v-128h-128zM640 256h-384v128h384v-128zM256 384h-128v128h128v-128zM512 640h128v-128h-384v128h256z" />
    <glyph glyph-name="t" unicode="t" 
d="M384 0v512h-256v128h256v256h128v-256h256v-128h-256v-512h-128z" />
    <glyph glyph-name="u" unicode="u" 
d="M640 0v128h-128v-128h-256v128h256v128h128v384h128v-640h-128zM256 128h-128v512h128v-512z" />
    <glyph glyph-name="v" unicode="v" 
d="M384 0v128h128v-128h-128zM512 128v256h128v-256h-128zM384 128h-128v256h128v-256zM640 384v256h128v-256h-128zM256 384h-128v256h128v-256z" />
    <glyph glyph-name="w" unicode="w" horiz-adv-x="1024" 
d="M512 0v128h128v-128h-128zM256 0v128h128v-128h-128zM640 128v256h128v-256h-128zM512 128h-128v384h128v-384zM256 128h-128v256h128v-256zM768 384v256h128v-256h-128zM128 384h-128v256h128v-256z" />
    <glyph glyph-name="x" unicode="x" 
d="M640 0v128h128v-128h-128zM128 0v128h128v-128h-128zM640 128h-128v128h128v-128zM256 128v128h128v-128h-128zM512 256h-128v128h128v-128zM512 384v128h128v-128h-128zM384 384h-128v128h128v-128zM640 512v128h128v-128h-128zM256 512h-128v128h128v-128z" />
    <glyph glyph-name="y" unicode="y" 
d="M128 -384v128h128v-128h-128zM256 -256v128h128v-128h-128zM384 -128v256h128v-256h-128zM512 128v256h128v-256h-128zM384 128h-128v128h128v-128zM256 256h-128v256h128v-256zM640 384v256h128v-256h-128zM128 512h-128v128h128v-128z" />
    <glyph glyph-name="z" unicode="z" 
d="M640 128h128v-128h-640v128h128v128h128v-128h256zM384 256v128h128v-128h-128zM512 384v128h-384v128h640v-128h-128v-128h-128z" />
    <glyph glyph-name="braceleft" unicode="{" horiz-adv-x="512" 
d="M256 -384v128h128v-128h-128zM256 -256h-128v512h128v-512zM128 256h-128v128h128v-128zM128 384v512h128v-512h-128zM256 896v128h128v-128h-128z" />
    <glyph glyph-name="bar" unicode="|" horiz-adv-x="384" 
d="M128 -128v1024h128v-1024h-128z" />
    <glyph glyph-name="braceright" unicode="}" horiz-adv-x="512" 
d="M0 -384v128h128v-128h-128zM128 -256v512h128v-512h-128zM256 256v128h128v-128h-128zM256 384h-128v512h128v-512zM128 896h-128v128h128v-128z" />
    <glyph glyph-name="asciitilde" unicode="~" 
d="M0 256v128h128v-128h-128zM512 384h128v-128h-256v128h128zM640 384v128h128v-128h-128zM384 384h-256v128h256v-128z" />
    <glyph glyph-name="uni00A0" unicode="&#xa0;" horiz-adv-x="640" 
 />
    <glyph glyph-name="exclamdown" unicode="&#xa1;" horiz-adv-x="384" 
d="M128 -256v640h128v-640h-128zM128 512v128h128v-128h-128z" />
    <glyph glyph-name="cent" unicode="&#xa2;" 
d="M256 0v256h-128v384h128v128h256v128h128v-256h128v-128h-128v128h-128v-384h128v-128h-256v-128h-128zM640 256v128h128v-128h-128zM384 256v384h-128v-384h128z" />
    <glyph glyph-name="sterling" unicode="&#xa3;" 
d="M640 640v128h128v-128h-128zM640 128h128v-128h-640v256h128v-128h384zM256 256v128h-128v128h128v256h128v-256h256v-128h-256v-128h-128zM640 768h-256v128h256v-128z" />
    <glyph glyph-name="currency" unicode="&#xa4;" horiz-adv-x="768" 
d="M512 0v128h128v-128h-128zM0 0v128h128v-128h-128zM512 128h-384v128h384v-128zM512 256v384h128v-384h-128zM128 256h-128v384h128v-384zM512 640h-384v128h384v-128zM512 768v128h128v-128h-128zM128 768h-128v128h128v-128z" />
    <glyph glyph-name="yen" unicode="&#xa5;" 
d="M384 0v128h-256v128h256v128h-256v128h256v128h128v-128h256v-128h-256v-128h256v-128h-256v-128h-128zM512 640v128h128v-128h-128zM384 640h-128v128h128v-128zM640 768v128h128v-128h-128zM256 768h-128v128h128v-128z" />
    <glyph glyph-name="brokenbar" unicode="&#xa6;" horiz-adv-x="384" 
d="M128 -128v384h128v-384h-128zM128 512v384h128v-384h-128z" />
    <glyph glyph-name="section" unicode="&#xa7;" 
d="M640 640v128h128v-128h-128zM512 -128h128v-128h-384v128h256zM640 -128v128h-128v128h128v256h128v-512h-128zM256 -128h-128v128h128v-128zM512 128h-256v128h256v-128zM256 256h-128v512h128v-128h128v-128h256v-128h-256v128h-128v-256zM640 768h-384v128h384v-128z
" />
    <glyph glyph-name="dieresis" unicode="&#xa8;" horiz-adv-x="640" 
d="M384 768v128h128v-128h-128zM128 768v128h128v-128h-128z" />
    <glyph glyph-name="copyright" unicode="&#xa9;" horiz-adv-x="1024" 
d="M512 128h128v-128h-384v128h256zM640 128v128h128v-128h-128zM256 128h-128v128h128v-128zM768 256v384h128v-384h-128zM640 256h-384v384h384v-128h-256v-128h256v-128zM128 256h-128v384h128v-384zM768 640h-128v128h128v-128zM256 640h-128v128h128v-128zM640 768
h-384v128h384v-128z" />
    <glyph glyph-name="ordfeminine" unicode="&#xaa;" horiz-adv-x="640" 
d="M128 768v128h128v-128h-128zM384 512h-256v128h256v256h128v-384h-128z" />
    <glyph glyph-name="guillemotleft" unicode="&#xab;" horiz-adv-x="640" 
d="M384 256v128h128v-128h-128zM128 256v128h128v-128h-128zM384 512v128h128v-128h-128z" />
    <glyph glyph-name="logicalnot" unicode="&#xac;" horiz-adv-x="1024" 
d="M768 256v256h-640v128h768v-384h-128z" />
    <glyph glyph-name="registered" unicode="&#xae;" horiz-adv-x="1152" 
d="M128 128v256h128v-256h-128zM896 256v512h128v-512h-128zM640 256v128h-128v-128h-128v512h256v-128h-128v-128h128v128h128v-384h-128zM128 512v256h128v-256h-128zM640 128h128v-128h-384v128h256zM896 768h-256v128h256v-128zM384 768h-128v128h128v-128z" />
    <glyph glyph-name="macron" unicode="&#xaf;" horiz-adv-x="640" 
d="M384 896h128v-128h-384v128h256z" />
    <glyph glyph-name="degree" unicode="&#xb0;" horiz-adv-x="640" 
d="M256 512v128h128v-128h-128zM384 640v256h128v-256h-128zM256 640h-128v256h128v-256z" />
    <glyph glyph-name="plusminus" unicode="&#xb1;" horiz-adv-x="768" 
d="M384 256v256h-256v128h256v128h128v-128h128v-128h-128v-256h-128zM512 128h128v-128h-512v128h384z" />
    <glyph glyph-name="uni00B5" unicode="&#xb5;" 
d="M128 -256v896h128v-512h384v512h128v-640h-512v-256h-128z" />
    <glyph glyph-name="paragraph" unicode="&#xb6;" horiz-adv-x="768" 
d="M512 -128v1024h128v-1024h-128zM256 384v128h-128v384h256v-512h-128z" />
    <glyph glyph-name="periodcentered" unicode="&#xb7;" horiz-adv-x="384" 
d="M128 384v128h128v-128h-128z" />
    <glyph glyph-name="cedilla" unicode="&#xb8;" horiz-adv-x="512" 
d="M128 -384v128h128v-128h-128zM256 -256v128h128v-128h-128zM256 -128h-128v128h128v-128z" />
    <glyph glyph-name="ordmasculine" unicode="&#xba;" horiz-adv-x="640" 
d="M128 768v128h128v-128h-128zM256 640h128v-128h-256v128h128zM384 640v128h128v-128h-128z" />
    <glyph glyph-name="guillemotright" unicode="&#xbb;" horiz-adv-x="640" 
d="M384 256v128h128v-128h-128zM128 256v128h128v-128h-128zM384 512v128h128v-128h-128zM128 512v128h128v-128h-128z" />
    <glyph glyph-name="onequarter" unicode="&#xbc;" horiz-adv-x="1024" 
d="M768 0v128h-256v128h256v384h128v-640h-128zM128 0v128h128v-128h-128zM384 384v128h128v-128h-128zM128 384v384h-128v128h256v-512h-128zM512 640v128h128v-128h-128zM256 128v128h128v-128h-128z" />
    <glyph glyph-name="onehalf" unicode="&#xbd;" horiz-adv-x="1152" 
d="M128 0v128h128v-128h-128zM896 384v128h128v-128h-128zM384 384v128h128v-128h-128zM128 384v384h-128v128h256v-512h-128zM512 640v128h128v-128h-128zM768 128h128v-128h-256v128h128zM256 128v128h128v-128h-128zM896 512h-128v128h128v-128z" />
    <glyph glyph-name="threequarters" unicode="&#xbe;" horiz-adv-x="1152" 
d="M896 0v128h-256v128h256v384h128v-640h-128zM256 0v128h128v-128h-128zM512 384v128h128v-128h-128zM256 384v512h128v-512h-128zM0 384v128h128v-128h-128zM640 640v128h128v-128h-128zM384 128v128h128v-128h-128zM768 768v128h128v-128h-128z" />
    <glyph glyph-name="questiondown" unicode="&#xbf;" horiz-adv-x="768" 
d="M256 512v128h128v-128h-128zM384 -128h128v-128h-384v128h256zM512 -128v128h128v-128h-128zM256 128h-128v128h128v128h128v-256h-128z" />
    <glyph glyph-name="Agrave" unicode="&#xc0;" 
d="M640 0v256h-384v-128h-128v-128h-128v128h128v256h128v384h128v128h128v-128h128v-384h128v-384h-128zM512 384v256h-128v-256h128z" />
    <glyph glyph-name="Aacute" unicode="&#xc1;" 
d="M640 0v256h-384v-128h-128v-128h-128v128h128v256h128v384h128v128h128v-128h128v-384h128v-384h-128zM512 384v256h-128v-256h128z" />
    <glyph glyph-name="Acircumflex" unicode="&#xc2;" 
d="M640 0v256h-384v-128h-128v-128h-128v128h128v256h128v384h128v128h128v-128h128v-384h128v-384h-128zM512 384v256h-128v-256h128z" />
    <glyph glyph-name="Atilde" unicode="&#xc3;" 
d="M640 0v256h-384v-128h-128v-128h-128v128h128v256h128v384h128v128h128v-128h128v-384h128v-384h-128zM512 384v256h-128v-256h128zM512 1152h128v-128h-384v128h256z" />
    <glyph glyph-name="Adieresis" unicode="&#xc4;" 
d="M640 0v256h-384v-128h-128v-128h-128v128h128v256h128v384h128v128h128v-128h128v-384h128v-384h-128zM512 1024v128h128v-128h-128zM256 1024v128h128v-128h-128zM512 384v256h-128v-256h128z" />
    <glyph glyph-name="Aring" unicode="&#xc5;" 
d="M640 0v256h-384v-128h-128v-128h-128v128h128v256h128v384h128v128h128v-128h128v-384h128v-384h-128zM512 384v256h-128v-256h128z" />
    <glyph glyph-name="AE" unicode="&#xc6;" horiz-adv-x="1152" 
d="M0 0v128h128v-128h-128zM896 128h128v-128h-512v256h-256v-128h-128v256h128v384h128v128h640v-128h-384v-256h384v-128h-384v-256h256zM512 384v384h-128v-384h128z" />
    <glyph glyph-name="Ccedilla" unicode="&#xc7;" horiz-adv-x="1024" 
d="M512 -384v128h128v-128h-128zM768 640v128h128v-128h-128zM640 128h128v-128h-512v128h384zM768 128v128h128v-128h-128zM256 128h-128v640h128v-640zM768 768h-512v128h512v-128z" />
    <glyph glyph-name="Egrave" unicode="&#xc8;" horiz-adv-x="768" 
d="M256 1024v128h128v-128h-128zM512 128h128v-128h-512v896h512v-128h-384v-256h384v-128h-384v-256h256z" />
    <glyph glyph-name="Eacute" unicode="&#xc9;" horiz-adv-x="768" 
d="M384 1024v128h128v-128h-128zM512 128h128v-128h-512v896h512v-128h-384v-256h384v-128h-384v-256h256z" />
    <glyph glyph-name="Ecircumflex" unicode="&#xca;" horiz-adv-x="768" 
d="M512 128h128v-128h-512v896h512v-128h-384v-256h384v-128h-384v-256h256zM384 1152h128v-128h-256v128h128z" />
    <glyph glyph-name="Edieresis" unicode="&#xcb;" horiz-adv-x="768" 
d="M512 128h128v-128h-512v896h512v-128h-384v-256h384v-128h-384v-256h256zM384 1152h128v-128h-256v128h128z" />
    <glyph glyph-name="Igrave" unicode="&#xcc;" horiz-adv-x="384" 
d="M128 0v896h128v-896h-128z" />
    <glyph glyph-name="Iacute" unicode="&#xcd;" horiz-adv-x="384" 
d="M128 0v896h128v-896h-128z" />
    <glyph glyph-name="Icircumflex" unicode="&#xce;" horiz-adv-x="384" 
d="M128 0v896h128v-896h-128z" />
    <glyph glyph-name="Idieresis" unicode="&#xcf;" horiz-adv-x="512" 
d="M128 0v896h128v-896h-128zM256 1024v128h128v-128h-128zM0 1024v128h128v-128h-128z" />
    <glyph glyph-name="Eth" unicode="&#xd0;" horiz-adv-x="1024" 
d="M512 128h128v256h128v256h-128v128h-384v-256h128v-128h-128v-256h256zM512 0h-384v896h512v-128h128v-128h128v-384h-128v-128h-128v-128h-128z" />
    <glyph glyph-name="Ntilde" unicode="&#xd1;" horiz-adv-x="1024" 
d="M128 0v896h256v-256h128v-128h128v-256h128v640h128v-896h-256v256h-128v128h-128v256h-128v-640h-128zM640 1024v128h128v-128h-128zM384 1024v128h128v-128h-128z" />
    <glyph glyph-name="Ograve" unicode="&#xd2;" horiz-adv-x="1152" 
d="M384 1024v128h128v-128h-128zM640 128h128v-128h-512v128h384zM768 128v256h128v256h128v-384h-128v-128h-128zM256 128h-128v640h128v-640zM896 640h-128v128h128v-128zM768 768h-512v128h512v-128z" />
    <glyph glyph-name="Oacute" unicode="&#xd3;" horiz-adv-x="1152" 
d="M512 1024v128h128v-128h-128zM640 128h128v-128h-512v128h384zM768 128v256h128v256h128v-384h-128v-128h-128zM256 128h-128v640h128v-640zM896 640h-128v128h128v-128zM768 768h-512v128h512v-128z" />
    <glyph glyph-name="Ocircumflex" unicode="&#xd4;" horiz-adv-x="1152" 
d="M640 128h128v-128h-512v128h384zM768 128v256h128v256h128v-384h-128v-128h-128zM256 128h-128v640h128v-640zM896 640h-128v128h128v-128zM768 768h-512v128h512v-128zM512 1152h128v-128h-256v128h128z" />
    <glyph glyph-name="Otilde" unicode="&#xd5;" horiz-adv-x="1152" 
d="M640 1024v128h128v-128h-128zM640 128h128v-128h-512v128h384zM768 128v256h128v256h128v-384h-128v-128h-128zM256 128h-128v640h128v-640zM896 640h-128v128h128v-128zM768 768h-512v128h512v-128z" />
    <glyph glyph-name="Odieresis" unicode="&#xd6;" horiz-adv-x="1152" 
d="M640 1024v128h128v-128h-128zM384 1024v128h128v-128h-128zM640 128h128v-128h-512v128h384zM768 128v256h128v256h128v-384h-128v-128h-128zM256 128h-128v640h128v-640zM896 640h-128v128h128v-128zM768 768h-512v128h512v-128z" />
    <glyph glyph-name="multiply" unicode="&#xd7;" horiz-adv-x="640" 
d="M384 256v128h128v-128h-128zM128 256v128h128v-128h-128zM384 384h-128v128h128v-128zM384 512v128h128v-128h-128zM256 512h-128v128h128v-128z" />
    <glyph glyph-name="Oslash" unicode="&#xd8;" horiz-adv-x="1152" 
d="M512 512v128h128v-128h-128zM640 128h128v-128h-512v128h-128v640h128v-512h128v-128h256zM768 128v256h128v256h128v-384h-128v-128h-128zM384 256v128h128v-128h-128zM896 640h-256v128h-384v128h640v-256z" />
    <glyph glyph-name="Ugrave" unicode="&#xd9;" 
d="M512 128h128v-128h-384v128h256zM640 128v768h128v-768h-128zM256 128h-128v768h128v-768z" />
    <glyph glyph-name="Uacute" unicode="&#xda;" 
d="M512 128h128v-128h-384v128h256zM640 128v768h128v-768h-128zM256 128h-128v768h128v-768z" />
    <glyph glyph-name="Ucircumflex" unicode="&#xdb;" 
d="M512 128h128v-128h-384v128h256zM640 128v768h128v-768h-128zM256 128h-128v768h128v-768z" />
    <glyph glyph-name="Udieresis" unicode="&#xdc;" 
d="M512 1024v128h128v-128h-128zM256 1024v128h128v-128h-128zM512 128h128v-128h-384v128h256zM640 128v768h128v-768h-128zM256 128h-128v768h128v-768z" />
    <glyph glyph-name="Yacute" unicode="&#xdd;" horiz-adv-x="768" 
d="M384 1024v128h128v-128h-128zM384 0h-128v640h256v-640h-128zM512 640v256h128v-256h-128zM256 640h-128v256h128v-256z" />
    <glyph glyph-name="Thorn" unicode="&#xde;" 
d="M128 0v1024h128v-128h256v-128h128v-128h128v-128h-128v-128h-128v128h128v128h-128v128h-256v-384h256v-128h-256v-256h-128z" />
    <glyph glyph-name="germandbls" unicode="&#xdf;" 
d="M128 0v896h128v-896h-128zM512 128h128v-128h-256v128h128zM640 128v256h128v-256h-128zM640 384h-128v512h128v-512zM512 896h-256v128h256v-128z" />
    <glyph glyph-name="agrave" unicode="&#xe0;" horiz-adv-x="768" 
d="M512 0h-384v384h512v-384h-128zM384 128v128h-128v-128h128zM384 640h128v-128h-384v128h256z" />
    <glyph glyph-name="aacute" unicode="&#xe1;" horiz-adv-x="768" 
d="M384 768v128h128v-128h-128zM512 0h-384v384h512v-384h-128zM384 128v128h-128v-128h128zM384 640h128v-128h-384v128h256z" />
    <glyph glyph-name="acircumflex" unicode="&#xe2;" horiz-adv-x="768" 
d="M384 768v128h128v-128h-128zM512 0h-384v384h512v-384h-128zM384 128v128h-128v-128h128zM384 640h128v-128h-384v128h256z" />
    <glyph glyph-name="atilde" unicode="&#xe3;" horiz-adv-x="768" 
d="M256 768v128h128v-128h-128zM512 0h-384v384h512v-384h-128zM384 128v128h-128v-128h128zM384 640h128v-128h-384v128h256z" />
    <glyph glyph-name="adieresis" unicode="&#xe4;" horiz-adv-x="768" 
d="M384 768v128h128v-128h-128zM128 768v128h128v-128h-128zM512 0h-384v384h512v-384h-128zM384 128v128h-128v-128h128zM384 640h128v-128h-384v128h256z" />
    <glyph glyph-name="aring" unicode="&#xe5;" horiz-adv-x="768" 
d="M512 0h-384v384h512v-384h-128zM384 128v128h-128v-128h128zM384 640h128v-128h-384v128h256z" />
    <glyph glyph-name="ae" unicode="&#xe6;" horiz-adv-x="1152" 
d="M896 128h128v-128h-896v384h384v128h-384v128h896v-384h-384v-128h256zM384 128v128h-128v-128h128zM768 384h128v128h-256v-128h128z" />
    <glyph glyph-name="ccedilla" unicode="&#xe7;" horiz-adv-x="768" 
d="M384 -256v128h128v-128h-128zM512 384v128h-256v-128h-128v-128h128v-128h256v128h128v-256h-256v-128h-128v128h-128v256h-128v128h128v256h512v-256h-128z" />
    <glyph glyph-name="egrave" unicode="&#xe8;" horiz-adv-x="768" 
d="M256 768v128h128v-128h-128zM384 128h128v-128h-384v256h-128v128h128v256h384v-128h-256v-128h256v128h128v-256h-384v-128h128z" />
    <glyph glyph-name="eacute" unicode="&#xe9;" horiz-adv-x="768" 
d="M384 768v128h128v-128h-128zM384 128h128v-128h-384v256h-128v128h128v256h384v-128h-256v-128h256v128h128v-256h-384v-128h128z" />
    <glyph glyph-name="ecircumflex" unicode="&#xea;" horiz-adv-x="768" 
d="M384 128h128v-128h-384v256h-128v128h128v256h384v-128h-256v-128h256v128h128v-256h-384v-128h128zM384 896h128v-128h-256v128h128z" />
    <glyph glyph-name="edieresis" unicode="&#xeb;" horiz-adv-x="768" 
d="M384 768v128h128v-128h-128zM128 768v128h128v-128h-128zM384 128h128v-128h-384v256h-128v128h128v256h384v-128h-256v-128h256v128h128v-256h-384v-128h128z" />
    <glyph glyph-name="igrave" unicode="&#xec;" horiz-adv-x="384" 
d="M128 0v640h128v-640h-128zM0 768v128h128v-128h-128z" />
    <glyph glyph-name="iacute" unicode="&#xed;" horiz-adv-x="384" 
d="M128 0v640h128v-640h-128z" />
    <glyph glyph-name="icircumflex" unicode="&#xee;" horiz-adv-x="384" 
d="M128 0v640h128v-640h-128zM0 768v128h128v-128h-128z" />
    <glyph glyph-name="idieresis" unicode="&#xef;" horiz-adv-x="512" 
d="M128 0v640h128v-640h-128zM256 768v128h128v-128h-128zM0 768v128h128v-128h-128z" />
    <glyph glyph-name="eth" unicode="&#xf0;" horiz-adv-x="768" 
d="M384 128h128v-128h-384v256h128v-128h128zM512 128v384h-256v-128h-128v-128h-128v128h128v256h256v128h-128v128h256v-256h128v-512h-128z" />
    <glyph glyph-name="ntilde" unicode="&#xf1;" horiz-adv-x="768" 
d="M512 0v512h-256v-512h-128v640h512v-640h-128zM256 768v128h128v-128h-128z" />
    <glyph glyph-name="ograve" unicode="&#xf2;" 
d="M256 768v128h128v-128h-128zM512 0h-384v256h128v-128h256v128h128v-256h-128zM640 256v128h128v-128h-128zM128 256h-128v128h128v-128zM640 384h-128v128h-256v-128h-128v256h512v-256z" />
    <glyph glyph-name="oacute" unicode="&#xf3;" 
d="M384 768v128h128v-128h-128zM512 0h-384v256h128v-128h256v128h128v-256h-128zM640 256v128h128v-128h-128zM128 256h-128v128h128v-128zM640 384h-128v128h-256v-128h-128v256h512v-256z" />
    <glyph glyph-name="ocircumflex" unicode="&#xf4;" 
d="M512 0h-384v256h128v-128h256v128h128v-256h-128zM640 256v128h128v-128h-128zM128 256h-128v128h128v-128zM640 384h-128v128h-256v-128h-128v256h512v-256zM384 896h128v-128h-256v128h128z" />
    <glyph glyph-name="otilde" unicode="&#xf5;" 
d="M256 768v128h128v-128h-128zM512 0h-384v256h128v-128h256v128h128v-256h-128zM640 256v128h128v-128h-128zM128 256h-128v128h128v-128zM640 384h-128v128h-256v-128h-128v256h512v-256z" />
    <glyph glyph-name="odieresis" unicode="&#xf6;" 
d="M512 0h-384v256h128v-128h256v128h128v-256h-128zM640 256v128h128v-128h-128zM128 256h-128v128h128v-128zM640 384h-128v128h-256v-128h-128v256h512v-256zM384 896h128v-128h-256v128h128z" />
    <glyph glyph-name="divide" unicode="&#xf7;" horiz-adv-x="640" 
d="M256 128v128h128v-128h-128zM256 640v128h128v-128h-128zM384 512h128v-128h-384v128h256z" />
    <glyph glyph-name="oslash" unicode="&#xf8;" 
d="M512 0h-384v256h256v-128h128v128h128v-256h-128zM640 256v128h128v-128h-128zM128 256h-128v128h128v-128zM640 384h-256v128h-128v-128h-128v256h512v-256z" />
    <glyph glyph-name="ugrave" unicode="&#xf9;" horiz-adv-x="768" 
d="M256 768v128h128v-128h-128zM512 0h-384v640h128v-512h256v512h128v-640h-128z" />
    <glyph glyph-name="uacute" unicode="&#xfa;" horiz-adv-x="768" 
d="M384 768v128h128v-128h-128zM512 0h-384v640h128v-512h256v512h128v-640h-128z" />
    <glyph glyph-name="ucircumflex" unicode="&#xfb;" horiz-adv-x="768" 
d="M512 0h-384v640h128v-512h256v512h128v-640h-128zM384 896h128v-128h-256v128h128z" />
    <glyph glyph-name="udieresis" unicode="&#xfc;" horiz-adv-x="768" 
d="M384 768v128h128v-128h-128zM128 768v128h128v-128h-128zM512 0h-384v640h128v-512h256v512h128v-640h-128z" />
    <glyph glyph-name="yacute" unicode="&#xfd;" horiz-adv-x="768" 
d="M128 -256v128h128v-128h-128zM256 -128v384h128v256h128v-384h-128v-256h-128zM256 256h-128v256h128v-256zM512 512v128h128v-128h-128zM128 512h-128v128h128v-128z" />
    <glyph glyph-name="thorn" unicode="&#xfe;" 
d="M128 -256v1280h128v-384h384v-128h128v-384h-128v384h-384v-384h384v-128h-384v-256h-128z" />
    <glyph glyph-name="ydieresis" unicode="&#xff;" horiz-adv-x="768" 
d="M128 -256v128h128v-128h-128zM384 768v128h128v-128h-128zM128 768v128h128v-128h-128zM256 -128v384h128v256h128v-384h-128v-256h-128zM256 256h-128v256h128v-256zM512 512v128h128v-128h-128zM128 512h-128v128h128v-128z" />
    <glyph glyph-name="Amacron" unicode="&#x100;" 
d="M640 0v256h-384v-128h-128v-128h-128v128h128v256h128v384h128v128h128v-128h128v-384h128v-384h-128zM512 384v256h-128v-256h128z" />
    <glyph glyph-name="amacron" unicode="&#x101;" horiz-adv-x="768" 
d="M512 0h-384v384h512v-384h-128zM384 128v128h-128v-128h128zM384 640h128v-128h-384v128h256zM384 896h128v-128h-256v128h128z" />
    <glyph glyph-name="Abreve" unicode="&#x102;" 
d="M640 0v256h-384v-128h-128v-128h-128v128h128v256h128v384h128v128h128v-128h128v-384h128v-384h-128zM512 1024v128h128v-128h-128zM256 1024v128h128v-128h-128zM512 384v256h-128v-256h128z" />
    <glyph glyph-name="abreve" unicode="&#x103;" horiz-adv-x="768" 
d="M384 768v128h128v-128h-128zM128 768v128h128v-128h-128zM512 0h-384v384h512v-384h-128zM384 128v128h-128v-128h128zM384 640h128v-128h-384v128h256z" />
    <glyph glyph-name="Aogonek" unicode="&#x104;" 
d="M640 -256v128h128v-128h-128zM640 0v256h-384v-128h-128v-128h-128v128h128v256h128v384h128v128h128v-128h128v-384h128v-384h-128zM512 384v256h-128v-256h128z" />
    <glyph glyph-name="aogonek" unicode="&#x105;" horiz-adv-x="768" 
d="M512 -256v128h128v-128h-128zM512 0h-384v384h512v-384h-128zM384 128v128h-128v-128h128zM384 640h128v-128h-384v128h256z" />
    <glyph glyph-name="Cacute" unicode="&#x106;" horiz-adv-x="1024" 
d="M768 640v128h128v-128h-128zM512 1024v128h128v-128h-128zM640 128h128v-128h-512v128h384zM768 128v128h128v-128h-128zM256 128h-128v640h128v-640zM768 768h-512v128h512v-128z" />
    <glyph glyph-name="cacute" unicode="&#x107;" horiz-adv-x="768" 
d="M512 384v128h-256v-128h-128v-128h128v-128h256v128h128v-256h-512v256h-128v128h128v256h512v-256h-128zM384 768v128h128v-128h-128z" />
    <glyph glyph-name="Cdotaccent" unicode="&#x10a;" horiz-adv-x="1024" 
d="M768 640v128h128v-128h-128zM512 1024v128h128v-128h-128zM640 128h128v-128h-512v128h384zM768 128v128h128v-128h-128zM256 128h-128v640h128v-640zM768 768h-512v128h512v-128z" />
    <glyph glyph-name="cdotaccent" unicode="&#x10b;" horiz-adv-x="768" 
d="M512 384v128h-256v-128h-128v-128h128v-128h256v128h128v-256h-512v256h-128v128h128v256h512v-256h-128zM256 768v128h128v-128h-128z" />
    <glyph glyph-name="Ccaron" unicode="&#x10c;" horiz-adv-x="1024" 
d="M768 640v128h128v-128h-128zM640 128h128v-128h-512v128h384zM768 128v128h128v-128h-128zM256 128h-128v640h128v-640zM768 768h-512v128h512v-128zM512 1152h128v-128h-256v128h128z" />
    <glyph glyph-name="ccaron" unicode="&#x10d;" horiz-adv-x="768" 
d="M512 384v128h-256v-128h-128v-128h128v-128h256v128h128v-256h-512v256h-128v128h128v256h512v-256h-128zM384 896h128v-128h-256v128h128z" />
    <glyph glyph-name="Dcaron" unicode="&#x10e;" horiz-adv-x="1024" 
d="M512 128h128v256h128v256h-128v128h-384v-640h256zM512 0h-384v896h512v-128h128v-128h128v-384h-128v-128h-128v-128h-128zM384 1152h128v-128h-256v128h128z" />
    <glyph glyph-name="dcaron" unicode="&#x10f;" horiz-adv-x="1152" 
d="M768 640v128h128v-128h-128zM896 896v128h128v-128h-128zM512 0h-384v256h-128v128h128v256h384v256h128v-896h-128zM384 128h128v384h-256v-128h-128v-128h128v-128h128z" />
    <glyph glyph-name="Dcroat" unicode="&#x110;" horiz-adv-x="1024" 
d="M512 128h128v256h128v256h-128v128h-384v-256h128v-128h-128v-256h256zM512 0h-384v896h512v-128h128v-128h128v-384h-128v-128h-128v-128h-128z" />
    <glyph glyph-name="dcroat" unicode="&#x111;" 
d="M512 0h-384v256h-128v128h128v256h384v128h-128v128h384v-128h-128v-768h-128zM384 128h128v384h-256v-128h-128v-128h128v-128h128z" />
    <glyph glyph-name="Emacron" unicode="&#x112;" horiz-adv-x="768" 
d="M512 128h128v-128h-512v896h512v-128h-384v-256h384v-128h-384v-256h256z" />
    <glyph glyph-name="emacron" unicode="&#x113;" horiz-adv-x="768" 
d="M384 128h128v-128h-384v256h-128v128h128v256h384v-128h-256v-128h256v128h128v-256h-384v-128h128zM384 896h128v-128h-256v128h128z" />
    <glyph glyph-name="Edotaccent" unicode="&#x116;" horiz-adv-x="768" 
d="M512 128h128v-128h-512v896h512v-128h-384v-256h384v-128h-384v-256h256zM384 1152h128v-128h-256v128h128z" />
    <glyph glyph-name="edotaccent" unicode="&#x117;" horiz-adv-x="768" 
d="M256 768v128h128v-128h-128zM384 128h128v-128h-384v256h-128v128h128v256h384v-128h-256v-128h256v128h128v-256h-384v-128h128z" />
    <glyph glyph-name="Eogonek" unicode="&#x118;" horiz-adv-x="768" 
d="M512 -256v128h128v-128h-128zM512 128h128v-128h-512v896h512v-128h-384v-256h384v-128h-384v-256h256z" />
    <glyph glyph-name="eogonek" unicode="&#x119;" horiz-adv-x="768" 
d="M384 -128v128h-256v256h-128v128h128v256h384v-128h-256v-128h256v128h128v-256h-384v-128h384v-128h-128v-128h-128z" />
    <glyph glyph-name="Ecaron" unicode="&#x11a;" horiz-adv-x="768" 
d="M512 128h128v-128h-512v896h512v-128h-384v-256h384v-128h-384v-256h256zM384 1152h128v-128h-256v128h128z" />
    <glyph glyph-name="ecaron" unicode="&#x11b;" horiz-adv-x="768" 
d="M384 128h128v-128h-384v256h-128v128h128v256h384v-128h-256v-128h256v128h128v-256h-384v-128h128zM384 896h128v-128h-256v128h128z" />
    <glyph glyph-name="Gbreve" unicode="&#x11e;" horiz-adv-x="1024" 
d="M768 640v128h128v-128h-128zM640 1024v128h128v-128h-128zM640 128h128v-128h-512v128h384zM768 128v256h-256v128h384v-384h-128zM256 128h-128v640h128v-640zM768 768h-512v128h512v-128z" />
    <glyph glyph-name="gbreve" unicode="&#x11f;" horiz-adv-x="768" 
d="M128 768v128h128v-128h-128zM512 -256h-384v128h384v128h-256v128h-128v128h-128v128h128v256h512v-896h-128zM384 128h128v384h-256v-128h-128v-128h128v-128h128z" />
    <glyph glyph-name="Gdotaccent" unicode="&#x120;" horiz-adv-x="1024" 
d="M768 640v128h128v-128h-128zM512 1024v128h128v-128h-128zM640 128h128v-128h-512v128h384zM768 128v256h-256v128h384v-384h-128zM256 128h-128v640h128v-640zM768 768h-512v128h512v-128z" />
    <glyph glyph-name="gdotaccent" unicode="&#x121;" horiz-adv-x="768" 
d="M256 768v128h128v-128h-128zM512 -256h-384v128h384v128h-256v128h-128v128h-128v128h128v256h512v-896h-128zM384 128h128v384h-256v-128h-128v-128h128v-128h128z" />
    <glyph glyph-name="Gcommaaccent" unicode="&#x122;" horiz-adv-x="1024" 
d="M384 -256v128h128v-128h-128zM768 640v128h128v-128h-128zM640 128h128v-128h-512v128h384zM768 128v256h-256v128h384v-384h-128zM256 128h-128v640h128v-640zM768 768h-512v128h512v-128z" />
    <glyph glyph-name="gcommaaccent" unicode="&#x123;" horiz-adv-x="768" 
d="M512 -256h-384v128h384v128h-256v128h-128v128h-128v128h128v256h512v-896h-128zM384 128h128v384h-256v-128h-128v-128h128v-128h128z" />
    <glyph glyph-name="Hbar" unicode="&#x126;" horiz-adv-x="1024" 
d="M128 0v896h128v-384h384v384h256v-896h-256v384h-384v-384h-128z" />
    <glyph glyph-name="hbar" unicode="&#x127;" horiz-adv-x="768" 
d="M512 0v512h-256v-512h-128v768h-128v128h128v128h128v-128h128v-128h-128v-128h384v-640h-128z" />
    <glyph glyph-name="Itilde" unicode="&#x128;" horiz-adv-x="512" 
d="M128 0v896h128v-896h-128zM256 1152h128v-128h-384v128h256z" />
    <glyph glyph-name="itilde" unicode="&#x129;" horiz-adv-x="512" 
d="M128 0v640h128v-640h-128zM256 896h128v-128h-384v128h256z" />
    <glyph glyph-name="Imacron" unicode="&#x12a;" horiz-adv-x="384" 
d="M128 0v896h128v-896h-128z" />
    <glyph glyph-name="imacron" unicode="&#x12b;" horiz-adv-x="512" 
d="M128 0v640h128v-640h-128zM256 896h128v-128h-384v128h256z" />
    <glyph glyph-name="Iogonek" unicode="&#x12e;" horiz-adv-x="384" 
d="M128 -256v128h128v-128h-128zM128 0v896h128v-896h-128z" />
    <glyph glyph-name="iogonek" unicode="&#x12f;" horiz-adv-x="384" 
d="M128 0v640h128v-640h-128zM128 768v128h128v-128h-128zM128 -128h128v-128h-256v128h128z" />
    <glyph glyph-name="Idotaccent" unicode="&#x130;" horiz-adv-x="384" 
d="M128 0v896h128v-896h-128zM128 1024v128h128v-128h-128z" />
    <glyph glyph-name="dotlessi" unicode="&#x131;" horiz-adv-x="384" 
d="M128 0v640h128v-640h-128z" />
    <glyph glyph-name="Kcommaaccent" unicode="&#x136;" 
d="M256 -256v128h128v-128h-128zM640 0v128h128v-128h-128zM128 0v896h128v-384h128v128h128v-384h128v-128h-128v128h-128v128h-128v-384h-128zM512 640v128h128v-128h-128zM640 768v128h128v-128h-128z" />
    <glyph glyph-name="kcommaaccent" unicode="&#x137;" horiz-adv-x="768" 
d="M256 -256v128h128v-128h-128zM512 0v128h128v-128h-128zM128 0v1024h128v-640h128v-128h128v-128h-128v128h-128v-256h-128zM384 384v256h256v-128h-128v-128h-128z" />
    <glyph glyph-name="Lacute" unicode="&#x139;" horiz-adv-x="640" 
d="M384 128h128v-128h-384v896h128v-768h128z" />
    <glyph glyph-name="lacute" unicode="&#x13a;" horiz-adv-x="384" 
d="M128 0v1024h128v-1024h-128z" />
    <glyph glyph-name="Lcommaaccent" unicode="&#x13b;" horiz-adv-x="640" 
d="M256 -256v128h128v-128h-128zM384 128h128v-128h-384v896h128v-768h128z" />
    <glyph glyph-name="lcommaaccent" unicode="&#x13c;" horiz-adv-x="384" 
d="M128 0v1024h128v-1024h-128z" />
    <glyph glyph-name="Lcaron" unicode="&#x13d;" horiz-adv-x="768" 
d="M384 512v256h128v-256h-128zM384 128h128v-128h-384v896h128v-768h128zM512 768v128h128v-128h-128z" />
    <glyph glyph-name="lcaron" unicode="&#x13e;" horiz-adv-x="640" 
d="M128 0v1024h128v-1024h-128zM384 768v256h128v-256h-128z" />
    <glyph glyph-name="Lslash" unicode="&#x141;" horiz-adv-x="640" 
d="M384 128h128v-128h-384v896h128v-256h128v-128h-128v-384h128z" />
    <glyph glyph-name="lslash" unicode="&#x142;" horiz-adv-x="384" 
d="M128 0v1024h128v-1024h-128z" />
    <glyph glyph-name="Nacute" unicode="&#x143;" horiz-adv-x="1024" 
d="M128 0v896h256v-256h128v-128h128v-256h128v640h128v-896h-256v256h-128v128h-128v256h-128v-640h-128zM512 1024v128h128v-128h-128z" />
    <glyph glyph-name="nacute" unicode="&#x144;" horiz-adv-x="768" 
d="M512 0v512h-256v-512h-128v640h512v-640h-128zM384 768v128h128v-128h-128z" />
    <glyph glyph-name="Ncommaaccent" unicode="&#x145;" horiz-adv-x="1024" 
d="M384 -256v128h128v-128h-128zM128 0v896h256v-256h128v-128h128v-256h128v640h128v-896h-256v256h-128v128h-128v256h-128v-640h-128z" />
    <glyph glyph-name="ncommaaccent" unicode="&#x146;" horiz-adv-x="768" 
d="M256 -256v128h128v-128h-128zM512 0v512h-256v-512h-128v640h512v-640h-128z" />
    <glyph glyph-name="Ncaron" unicode="&#x147;" horiz-adv-x="1024" 
d="M128 0v896h256v-256h128v-128h128v-256h128v640h128v-896h-256v256h-128v128h-128v256h-128v-640h-128zM512 1152h128v-128h-256v128h128z" />
    <glyph glyph-name="ncaron" unicode="&#x148;" horiz-adv-x="768" 
d="M512 0v512h-256v-512h-128v640h512v-640h-128zM384 896h128v-128h-256v128h128z" />
    <glyph glyph-name="Eng" unicode="&#x14a;" horiz-adv-x="1024" 
d="M640 -256v128h128v-128h-128zM128 0v896h256v-256h128v-128h128v-256h128v640h128v-1024h-128v256h-128v128h-128v256h-128v128h-128v-640h-128z" />
    <glyph glyph-name="eng" unicode="&#x14b;" horiz-adv-x="768" 
d="M512 -256v768h-256v-512h-128v640h512v-896h-128z" />
    <glyph glyph-name="Omacron" unicode="&#x14c;" horiz-adv-x="1152" 
d="M640 128h128v-128h-512v128h384zM768 128v256h128v256h128v-384h-128v-128h-128zM256 128h-128v640h128v-640zM896 640h-128v128h128v-128zM768 768h-512v128h512v-128z" />
    <glyph glyph-name="omacron" unicode="&#x14d;" 
d="M512 0h-384v256h128v-128h256v128h128v-256h-128zM640 256v128h128v-128h-128zM128 256h-128v128h128v-128zM640 384h-128v128h-256v-128h-128v256h512v-256zM384 896h128v-128h-256v128h128z" />
    <glyph glyph-name="Ohungarumlaut" unicode="&#x150;" horiz-adv-x="1152" 
d="M640 1024v128h128v-128h-128zM384 1024v128h128v-128h-128zM640 128h128v-128h-512v128h384zM768 128v256h128v256h128v-384h-128v-128h-128zM256 128h-128v640h128v-640zM896 640h-128v128h128v-128zM768 768h-512v128h512v-128z" />
    <glyph glyph-name="ohungarumlaut" unicode="&#x151;" 
d="M512 768v128h128v-128h-128zM256 768v128h128v-128h-128zM512 0h-384v256h128v-128h256v128h128v-256h-128zM640 256v128h128v-128h-128zM128 256h-128v128h128v-128zM640 384h-128v128h-256v-128h-128v256h512v-256z" />
    <glyph glyph-name="OE" unicode="&#x152;" horiz-adv-x="1280" 
d="M1024 128h128v-128h-896v128h-128v640h128v128h896v-128h-384v-256h384v-128h-384v-256h256zM512 128h128v640h-384v-640h256z" />
    <glyph glyph-name="oe" unicode="&#x153;" horiz-adv-x="1280" 
d="M1024 128h128v-128h-1024v256h-128v128h128v256h1024v-384h-384v-128h256zM384 128h128v128h128v128h-128v128h-256v-128h-128v-128h128v-128h128zM896 384h128v128h-256v-128h128z" />
    <glyph glyph-name="Racute" unicode="&#x154;" 
d="M640 0v128h128v-128h-128zM128 0v896h512v-128h-384v-256h256v128h128v128h128v-256h-128v-384h-128v128h-128v128h-128v-384h-128zM384 1024v128h128v-128h-128z" />
    <glyph glyph-name="racute" unicode="&#x155;" horiz-adv-x="512" 
d="M128 0v640h256v-128h-128v-512h-128zM256 768v128h128v-128h-128z" />
    <glyph glyph-name="Rcommaaccent" unicode="&#x156;" 
d="M256 -256v128h128v-128h-128zM640 0v128h128v-128h-128zM128 0v896h512v-128h-384v-256h256v128h128v128h128v-256h-128v-384h-128v128h-128v128h-128v-384h-128z" />
    <glyph glyph-name="rcommaaccent" unicode="&#x157;" horiz-adv-x="512" 
d="M128 0v640h256v-128h-128v-512h-128z" />
    <glyph glyph-name="Rcaron" unicode="&#x158;" 
d="M640 0v128h128v-128h-128zM128 0v896h512v-128h-384v-256h256v128h128v128h128v-256h-128v-384h-128v128h-128v128h-128v-384h-128zM384 1152h128v-128h-256v128h128z" />
    <glyph glyph-name="rcaron" unicode="&#x159;" horiz-adv-x="512" 
d="M128 0v640h256v-128h-128v-512h-128zM128 768v128h128v-128h-128z" />
    <glyph glyph-name="Sacute" unicode="&#x15a;" 
d="M384 1024v128h128v-128h-128zM512 128h128v-128h-512v256h128v-128h256zM640 128v128h-128v128h-256v128h384v-128h128v-256h-128zM256 512h-128v384h512v-128h-384v-256z" />
    <glyph glyph-name="sacute" unicode="&#x15b;" horiz-adv-x="640" 
d="M384 0h-256v128h256v128h-256v384h384v-128h-256v-128h256v-384h-128z" />
    <glyph glyph-name="Scedilla" unicode="&#x15e;" 
d="M384 -384v128h128v-128h-128zM384 -128v128h-256v256h128v-128h384v-128h-128v-128h-128zM640 128v128h-128v128h-256v128h384v-128h128v-256h-128zM256 512h-128v384h512v-128h-384v-256z" />
    <glyph glyph-name="scedilla" unicode="&#x15f;" horiz-adv-x="640" 
d="M256 -384v128h128v-128h-128zM256 -128v128h-128v128h256v128h-256v384h384v-128h-256v-128h256v-384h-128v-128h-128z" />
    <glyph glyph-name="Scaron" unicode="&#x160;" 
d="M512 128h128v-128h-512v256h128v-128h256zM640 128v128h-128v128h-256v128h384v-128h128v-256h-128zM256 512h-128v384h512v-128h-384v-256zM384 1152h128v-128h-256v128h128z" />
    <glyph glyph-name="scaron" unicode="&#x161;" horiz-adv-x="640" 
d="M256 768v128h128v-128h-128zM384 0h-256v128h256v128h-256v384h384v-128h-256v-128h256v-384h-128z" />
    <glyph glyph-name="Tcommaaccent" unicode="&#x162;" horiz-adv-x="768" 
d="M256 -384v128h128v-128h-128zM384 -256v128h128v-128h-128zM384 -128h-128v896h-256v128h640v-128h-256v-896z" />
    <glyph glyph-name="tcommaaccent" unicode="&#x163;" horiz-adv-x="640" 
d="M384 -256v128h128v-128h-128zM384 -128h-128v128h-128v512h-128v128h128v128h128v-128h128v-128h-128v-384h128v-256z" />
    <glyph glyph-name="Tcaron" unicode="&#x164;" horiz-adv-x="768" 
d="M256 0v768h-256v128h640v-128h-256v-768h-128zM256 1024v128h128v-128h-128z" />
    <glyph glyph-name="tcaron" unicode="&#x165;" horiz-adv-x="640" 
d="M384 768v384h128v-384h-128zM256 0h-128v512h-128v128h128v256h128v-256h128v-128h-128v-384h128v-128h-128z" />
    <glyph glyph-name="Tbar" unicode="&#x166;" horiz-adv-x="768" 
d="M256 0v384h-128v128h128v256h-256v128h640v-128h-256v-256h128v-128h-128v-384h-128z" />
    <glyph glyph-name="tbar" unicode="&#x167;" horiz-adv-x="512" 
d="M256 0h-128v512h-128v128h128v128h128v-128h128v-128h-128v-128h128v-128h-128v-128h128v-128h-128z" />
    <glyph glyph-name="Utilde" unicode="&#x168;" 
d="M512 128h128v-128h-384v128h256zM640 128v768h128v-768h-128zM256 128h-128v768h128v-768zM512 1152h128v-128h-384v128h256z" />
    <glyph glyph-name="utilde" unicode="&#x169;" horiz-adv-x="768" 
d="M256 768v128h128v-128h-128zM512 0h-384v640h128v-512h256v512h128v-640h-128z" />
    <glyph glyph-name="Umacron" unicode="&#x16a;" 
d="M512 128h128v-128h-384v128h256zM640 128v768h128v-768h-128zM256 128h-128v768h128v-768z" />
    <glyph glyph-name="umacron" unicode="&#x16b;" horiz-adv-x="768" 
d="M512 0h-384v640h128v-512h256v512h128v-640h-128zM384 896h128v-128h-256v128h128z" />
    <glyph glyph-name="Uring" unicode="&#x16e;" 
d="M512 128h128v-128h-384v128h256zM640 128v768h128v-768h-128zM256 128h-128v768h128v-768z" />
    <glyph glyph-name="uring" unicode="&#x16f;" horiz-adv-x="768" 
d="M384 768v128h128v-128h-128zM512 0h-384v640h128v-512h256v512h128v-640h-128z" />
    <glyph glyph-name="Uhungarumlaut" unicode="&#x170;" 
d="M384 1024v128h128v-128h-128zM512 128h128v-128h-384v128h256zM640 128v768h128v-768h-128zM256 128h-128v768h128v-768z" />
    <glyph glyph-name="uhungarumlaut" unicode="&#x171;" horiz-adv-x="768" 
d="M512 768v128h128v-128h-128zM256 768v128h128v-128h-128zM512 0h-384v640h128v-512h256v512h128v-640h-128z" />
    <glyph glyph-name="Uogonek" unicode="&#x172;" 
d="M512 128h128v-128h-384v128h256zM640 128v768h128v-768h-128zM256 128h-128v768h128v-768z" />
    <glyph glyph-name="uogonek" unicode="&#x173;" horiz-adv-x="768" 
d="M512 -256v128h128v-128h-128zM512 0h-384v640h128v-512h256v512h128v-640h-128z" />
    <glyph glyph-name="Wcircumflex" unicode="&#x174;" horiz-adv-x="1408" 
d="M896 0v128h-128v384h128v-256h128v-256h-128zM384 0h-128v384h256v-384h-128zM1024 256v512h128v128h128v-256h-128v-384h-128zM512 384v384h128v128h128v-384h-128v-128h-128zM256 384h-128v384h-128v128h256v-512zM640 1152h128v-128h-256v128h128z" />
    <glyph glyph-name="wcircumflex" unicode="&#x175;" horiz-adv-x="1152" 
d="M640 0v256h128v256h128v-384h-128v-128h-128zM256 0v128h-128v384h128v-256h128v-256h-128zM640 256h-256v384h256v-384zM896 512v128h128v-128h-128zM128 512h-128v128h128v-128zM512 896h128v-128h-256v128h128z" />
    <glyph glyph-name="Ycircumflex" unicode="&#x176;" horiz-adv-x="768" 
d="M384 0h-128v640h256v-640h-128zM512 640v256h128v-256h-128zM256 640h-128v256h128v-256zM384 1152h128v-128h-256v128h128z" />
    <glyph glyph-name="ycircumflex" unicode="&#x177;" horiz-adv-x="768" 
d="M128 -256v128h128v-128h-128zM256 -128v384h128v256h128v-384h-128v-256h-128zM256 256h-128v256h128v-256zM512 512v128h128v-128h-128zM128 512h-128v128h128v-128z" />
    <glyph glyph-name="Ydieresis" unicode="&#x178;" horiz-adv-x="768" 
d="M384 0h-128v640h256v-640h-128zM512 640v256h128v-256h-128zM256 640h-128v256h128v-256zM384 1152h128v-128h-256v128h128z" />
    <glyph glyph-name="Zacute" unicode="&#x179;" 
d="M384 1024v128h128v-128h-128zM640 128h128v-128h-640v256h128v-128h384zM256 256v256h128v128h128v-256h-128v-128h-128zM512 640v128h-384v128h640v-128h-128v-128h-128z" />
    <glyph glyph-name="zacute" unicode="&#x17a;" horiz-adv-x="640" 
d="M384 128h128v-128h-384v256h128v-128h128zM256 256v256h-128v128h384v-128h-128v-256h-128z" />
    <glyph glyph-name="Zdotaccent" unicode="&#x17b;" 
d="M384 1024v128h128v-128h-128zM640 128h128v-128h-640v256h128v-128h384zM256 256v256h128v128h128v-256h-128v-128h-128zM512 640v128h-384v128h640v-128h-128v-128h-128z" />
    <glyph glyph-name="zdotaccent" unicode="&#x17c;" horiz-adv-x="640" 
d="M256 768v128h128v-128h-128zM384 128h128v-128h-384v256h128v-128h128zM256 256v256h-128v128h384v-128h-128v-256h-128z" />
    <glyph glyph-name="Zcaron" unicode="&#x17d;" 
d="M640 128h128v-128h-640v256h128v-128h384zM256 256v256h128v128h128v-256h-128v-128h-128zM512 640v128h-384v128h640v-128h-128v-128h-128zM384 1152h128v-128h-256v128h128z" />
    <glyph glyph-name="zcaron" unicode="&#x17e;" horiz-adv-x="640" 
d="M256 768v128h128v-128h-128zM384 128h128v-128h-384v256h128v-128h128zM256 256v256h-128v128h384v-128h-128v-256h-128z" />
    <glyph glyph-name="florin" unicode="&#x192;" horiz-adv-x="640" 
d="M128 -256v512h128v-512h-128zM256 384v128h-128v128h128v256h128v-256h128v-128h-128v-128h-128zM384 896v128h128v-128h-128z" />
    <glyph glyph-name="Ohorn" unicode="&#x1a0;" horiz-adv-x="1152" 
d="M640 128h128v-128h-512v128h384zM768 128v256h128v256h128v-384h-128v-128h-128zM256 128h-128v640h128v-640zM896 640h-128v128h128v-128zM896 768v128h128v-128h-128zM768 768h-512v128h512v-128z" />
    <glyph glyph-name="ohorn" unicode="&#x1a1;" 
d="M512 0h-384v256h128v-128h256v128h128v-256h-128zM640 256v128h128v-128h-128zM128 256h-128v128h128v-128zM640 384h-128v128h-256v-128h-128v256h640v-128h-128v-128z" />
    <glyph glyph-name="Uhorn" unicode="&#x1af;" horiz-adv-x="1024" 
d="M512 128h128v-128h-384v128h256zM640 128v768h256v-128h-128v-640h-128zM256 128h-128v768h128v-768z" />
    <glyph glyph-name="uhorn" unicode="&#x1b0;" 
d="M512 0h-384v640h128v-512h256v512h256v-128h-128v-512h-128z" />
    <glyph glyph-name="uni01CD" unicode="&#x1cd;" 
d="M640 0v256h-384v-128h-128v-128h-128v128h128v256h128v384h128v128h128v-128h128v-384h128v-384h-128zM384 1024v128h128v-128h-128zM512 384v256h-128v-256h128z" />
    <glyph glyph-name="uni01CE" unicode="&#x1ce;" horiz-adv-x="768" 
d="M256 768v128h128v-128h-128zM512 0h-384v384h512v-384h-128zM384 128v128h-128v-128h128zM384 640h128v-128h-384v128h256z" />
    <glyph glyph-name="uni01CF" unicode="&#x1cf;" horiz-adv-x="384" 
d="M128 0v896h128v-896h-128zM128 1024v128h128v-128h-128z" />
    <glyph glyph-name="uni01D0" unicode="&#x1d0;" horiz-adv-x="384" 
d="M128 0v640h128v-640h-128zM128 768v128h128v-128h-128z" />
    <glyph glyph-name="uni01D1" unicode="&#x1d1;" horiz-adv-x="1152" 
d="M640 128h128v-128h-512v128h384zM768 128v256h128v256h128v-384h-128v-128h-128zM256 128h-128v640h128v-640zM896 640h-128v128h128v-128zM768 768h-512v128h512v-128zM512 1152h128v-128h-256v128h128z" />
    <glyph glyph-name="uni01D2" unicode="&#x1d2;" 
d="M512 0h-384v256h128v-128h256v128h128v-256h-128zM640 256v128h128v-128h-128zM128 256h-128v128h128v-128zM640 384h-128v128h-256v-128h-128v256h512v-256zM384 896h128v-128h-256v128h128z" />
    <glyph glyph-name="uni01D3" unicode="&#x1d3;" 
d="M384 1024v128h128v-128h-128zM512 128h128v-128h-384v128h256zM640 128v768h128v-768h-128zM256 128h-128v768h128v-768z" />
    <glyph glyph-name="uni01D4" unicode="&#x1d4;" horiz-adv-x="768" 
d="M512 0h-384v640h128v-512h256v512h128v-640h-128zM384 896h128v-128h-256v128h128z" />
    <glyph glyph-name="uni01D5" unicode="&#x1d5;" 
d="M512 1024v128h128v-128h-128zM256 1024v128h128v-128h-128zM512 128h128v-128h-384v128h256zM640 128v768h128v-768h-128zM256 128h-128v768h128v-768z" />
    <glyph glyph-name="uni01D6" unicode="&#x1d6;" horiz-adv-x="768" 
d="M384 768v128h128v-128h-128zM128 768v128h128v-128h-128zM512 0h-384v640h128v-512h256v512h128v-640h-128zM384 1152h128v-128h-256v128h128z" />
    <glyph glyph-name="uni01D7" unicode="&#x1d7;" 
d="M512 1024v128h128v-128h-128zM256 1024v128h128v-128h-128zM512 1280v128h128v-128h-128zM512 128h128v-128h-384v128h256zM640 128v768h128v-768h-128zM256 128h-128v768h128v-768z" />
    <glyph glyph-name="uni01D8" unicode="&#x1d8;" horiz-adv-x="768" 
d="M384 768v128h128v-128h-128zM128 768v128h128v-128h-128zM384 1024v128h128v-128h-128zM512 0h-384v640h128v-512h256v512h128v-640h-128z" />
    <glyph glyph-name="uni01D9" unicode="&#x1d9;" 
d="M512 1024v128h128v-128h-128zM256 1024v128h128v-128h-128zM512 128h128v-128h-384v128h256zM640 128v768h128v-768h-128zM256 128h-128v768h128v-768z" />
    <glyph glyph-name="uni01DA" unicode="&#x1da;" horiz-adv-x="768" 
d="M384 768v128h128v-128h-128zM128 768v128h128v-128h-128zM256 1024v128h128v-128h-128zM512 0h-384v640h128v-512h256v512h128v-640h-128z" />
    <glyph glyph-name="uni01DB" unicode="&#x1db;" 
d="M512 1024v128h128v-128h-128zM256 1024v128h128v-128h-128zM256 1280v128h128v-128h-128zM512 128h128v-128h-384v128h256zM640 128v768h128v-768h-128zM256 128h-128v768h128v-768z" />
    <glyph glyph-name="uni01DC" unicode="&#x1dc;" horiz-adv-x="768" 
d="M384 768v128h128v-128h-128zM128 768v128h128v-128h-128zM256 1024v128h128v-128h-128zM512 0h-384v640h128v-512h256v512h128v-640h-128z" />
    <glyph glyph-name="Scommaaccent" unicode="&#x218;" 
d="M256 -256v128h128v-128h-128zM512 128h128v-128h-512v256h128v-128h256zM640 128v128h-128v128h-256v128h384v-128h128v-256h-128zM256 512h-128v384h512v-128h-384v-256z" />
    <glyph glyph-name="scommaaccent" unicode="&#x219;" horiz-adv-x="640" 
d="M384 0h-256v128h256v128h-256v384h384v-128h-256v-128h256v-384h-128z" />
    <glyph glyph-name="uni021A" unicode="&#x21a;" horiz-adv-x="768" 
d="M256 -256v128h128v-128h-128zM256 0v768h-256v128h640v-128h-256v-768h-128z" />
    <glyph glyph-name="uni021B" unicode="&#x21b;" horiz-adv-x="512" 
d="M256 -256v128h128v-128h-128zM256 0h-128v512h-128v128h128v128h128v-128h128v-128h-128v-384h128v-128h-128z" />
    <glyph glyph-name="uni0237" unicode="&#x237;" horiz-adv-x="384" 
d="M0 -256v128h128v-128h-128zM128 -128v768h128v-768h-128z" />
    <glyph glyph-name="circumflex" unicode="&#x2c6;" horiz-adv-x="384" 
d="M128 896v128h128v-128h-128z" />
    <glyph glyph-name="caron" unicode="&#x2c7;" horiz-adv-x="384" 
d="M128 768v128h128v-128h-128z" />
    <glyph glyph-name="breve" unicode="&#x2d8;" horiz-adv-x="512" 
d="M256 896h128v-128h-256v128h128z" />
    <glyph glyph-name="dotaccent" unicode="&#x2d9;" horiz-adv-x="384" 
d="M128 768v128h128v-128h-128z" />
    <glyph glyph-name="ogonek" unicode="&#x2db;" horiz-adv-x="384" 
d="M128 -256v128h128v-128h-128z" />
    <glyph glyph-name="tilde" unicode="&#x2dc;" horiz-adv-x="384" 
d="M128 768v128h128v-128h-128z" />
    <glyph glyph-name="acutecomb" unicode="&#x301;" horiz-adv-x="0" 
d="M-256 768v128h128v-128h-128z" />
    <glyph glyph-name="uni0302" unicode="&#x302;" horiz-adv-x="0" 
d="M-256 896v128h128v-128h-128z" />
    <glyph glyph-name="uni0304" unicode="&#x304;" horiz-adv-x="0" 
d="M-256 768v128h128v-128h-128z" />
    <glyph glyph-name="uni0306" unicode="&#x306;" horiz-adv-x="0" 
d="M-256 768v128h128v-128h-128z" />
    <glyph glyph-name="uni0307" unicode="&#x307;" horiz-adv-x="0" 
d="M-256 768v128h128v-128h-128z" />
    <glyph glyph-name="uni0308" unicode="&#x308;" horiz-adv-x="0" 
d="M-256 768v128h128v-128h-128z" />
    <glyph glyph-name="hookabovecomb" unicode="&#x309;" horiz-adv-x="0" 
d="M-256 896v128h128v-128h-128z" />
    <glyph glyph-name="uni030B" unicode="&#x30b;" horiz-adv-x="0" 
d="M-256 768v128h128v-128h-128z" />
    <glyph glyph-name="uni030C" unicode="&#x30c;" horiz-adv-x="0" 
d="M-256 768v128h128v-128h-128z" />
    <glyph glyph-name="uni0312" unicode="&#x312;" horiz-adv-x="0" 
d="M-256 768v128h128v-128h-128z" />
    <glyph glyph-name="uni031B" unicode="&#x31b;" horiz-adv-x="0" 
d="M-256 512v128h128v-128h-128z" />
    <glyph glyph-name="dotbelowcomb" unicode="&#x323;" horiz-adv-x="0" 
d="M-256 -256v128h128v-128h-128z" />
    <glyph glyph-name="uni0326" unicode="&#x326;" horiz-adv-x="0" 
d="M-256 -256v128h128v-128h-128z" />
    <glyph glyph-name="uni0327" unicode="&#x327;" horiz-adv-x="0" 
d="M-256 -384v128h128v-128h-128zM-256 -128v128h128v-128h-128z" />
    <glyph glyph-name="uni0328" unicode="&#x328;" horiz-adv-x="0" 
d="M-256 -256v128h128v-128h-128z" />
    <glyph glyph-name="uni0335" unicode="&#x335;" horiz-adv-x="0" 
d="M-256 256v128h128v-128h-128z" />
    <glyph glyph-name="Delta" unicode="&#x394;" horiz-adv-x="1024" 
d="M768 0h-768v128h128v256h128v-256h512v128h128v-256h-128zM768 256h-128v384h128v-384zM256 384v384h128v-384h-128zM640 640h-128v128h-128v256h128v-128h128v-256z" />
    <glyph glyph-name="Omega" unicode="&#x3a9;" horiz-adv-x="1152" 
d="M896 0h-256v128h128v128h128v-128h128v-128h-128zM384 0h-256v128h128v128h128v-128h128v-128h-128zM896 256v512h128v-512h-128zM256 256h-128v512h128v-512zM896 768h-128v128h128v-128zM256 768v128h128v-128h-128zM768 896h-384v128h384v-128z" />
    <glyph glyph-name="mu" unicode="&#x3bc;" horiz-adv-x="768" 
d="M128 -256v896h128v-512h256v512h128v-640h-384v-256h-128z" />
    <glyph glyph-name="pi" unicode="&#x3c0;" 
d="M512 0v512h-256v-512h-128v512h-128v128h768v-128h-128v-512h-128z" />
    <glyph glyph-name="Wgrave" unicode="&#x1e80;" horiz-adv-x="1408" 
d="M896 0v128h-128v384h128v-256h128v-256h-128zM512 1024v128h128v-128h-128zM384 0h-128v384h256v-384h-128zM1024 256v512h128v128h128v-256h-128v-384h-128zM512 384v384h128v128h128v-384h-128v-128h-128zM256 384h-128v384h-128v128h256v-512z" />
    <glyph glyph-name="wgrave" unicode="&#x1e81;" horiz-adv-x="1152" 
d="M640 0v256h128v256h128v-384h-128v-128h-128zM256 0v128h-128v384h128v-256h128v-256h-128zM384 768v128h128v-128h-128zM640 256h-256v384h256v-384zM896 512v128h128v-128h-128zM128 512h-128v128h128v-128z" />
    <glyph glyph-name="Wacute" unicode="&#x1e82;" horiz-adv-x="1408" 
d="M896 0v128h-128v384h128v-256h128v-256h-128zM640 1024v128h128v-128h-128zM384 0h-128v384h256v-384h-128zM1024 256v512h128v128h128v-256h-128v-384h-128zM512 384v384h128v128h128v-384h-128v-128h-128zM256 384h-128v384h-128v128h256v-512z" />
    <glyph glyph-name="wacute" unicode="&#x1e83;" horiz-adv-x="1152" 
d="M640 0v256h128v256h128v-384h-128v-128h-128zM256 0v128h-128v384h128v-256h128v-256h-128zM512 768v128h128v-128h-128zM640 256h-256v384h256v-384zM896 512v128h128v-128h-128zM128 512h-128v128h128v-128z" />
    <glyph glyph-name="Wdieresis" unicode="&#x1e84;" horiz-adv-x="1408" 
d="M896 0v128h-128v384h128v-256h128v-256h-128zM768 1024v128h128v-128h-128zM512 1024v128h128v-128h-128zM384 0h-128v384h256v-384h-128zM1024 256v512h128v128h128v-256h-128v-384h-128zM512 384v384h128v128h128v-384h-128v-128h-128zM256 384h-128v384h-128v128h256
v-512z" />
    <glyph glyph-name="wdieresis" unicode="&#x1e85;" horiz-adv-x="1152" 
d="M640 0v256h128v256h128v-384h-128v-128h-128zM256 0v128h-128v384h128v-256h128v-256h-128zM640 768v128h128v-128h-128zM384 768v128h128v-128h-128zM640 256h-256v384h256v-384zM896 512v128h128v-128h-128zM128 512h-128v128h128v-128z" />
    <glyph glyph-name="uni1EA0" unicode="&#x1ea0;" 
d="M384 -256v128h128v-128h-128zM640 0v256h-384v-128h-128v-128h-128v128h128v256h128v384h128v128h128v-128h128v-384h128v-384h-128zM512 384v256h-128v-256h128z" />
    <glyph glyph-name="uni1EA1" unicode="&#x1ea1;" horiz-adv-x="768" 
d="M256 -256v128h128v-128h-128zM512 0h-384v384h512v-384h-128zM384 128v128h-128v-128h128zM384 640h128v-128h-384v128h256z" />
    <glyph glyph-name="uni1EA2" unicode="&#x1ea2;" 
d="M640 0v256h-384v-128h-128v-128h-128v128h128v256h128v384h128v128h128v-128h128v-384h128v-384h-128zM384 1152v128h128v-128h-128zM512 384v256h-128v-256h128z" />
    <glyph glyph-name="uni1EA3" unicode="&#x1ea3;" horiz-adv-x="768" 
d="M384 768v128h128v-128h-128zM512 0h-384v384h512v-384h-128zM384 128v128h-128v-128h128zM384 640h128v-128h-384v128h256z" />
    <glyph glyph-name="uni1EA4" unicode="&#x1ea4;" 
d="M640 0v256h-384v-128h-128v-128h-128v128h128v256h128v384h128v128h128v-128h128v-384h128v-384h-128zM512 384v256h-128v-256h128z" />
    <glyph glyph-name="uni1EA5" unicode="&#x1ea5;" horiz-adv-x="768" 
d="M384 768v128h128v-128h-128zM512 0h-384v384h512v-384h-128zM384 128v128h-128v-128h128zM384 640h128v-128h-384v128h256z" />
    <glyph glyph-name="uni1EA6" unicode="&#x1ea6;" 
d="M640 0v256h-384v-128h-128v-128h-128v128h128v256h128v384h128v128h128v-128h128v-384h128v-384h-128zM512 384v256h-128v-256h128z" />
    <glyph glyph-name="uni1EA7" unicode="&#x1ea7;" horiz-adv-x="768" 
d="M384 768v128h128v-128h-128zM256 1024v128h128v-128h-128zM512 0h-384v384h512v-384h-128zM384 128v128h-128v-128h128zM384 640h128v-128h-384v128h256z" />
    <glyph glyph-name="uni1EA8" unicode="&#x1ea8;" 
d="M640 0v256h-384v-128h-128v-128h-128v128h128v256h128v384h128v128h128v-128h128v-384h128v-384h-128zM512 384v256h-128v-256h128z" />
    <glyph glyph-name="uni1EA9" unicode="&#x1ea9;" horiz-adv-x="768" 
d="M384 768v128h128v-128h-128zM512 0h-384v384h512v-384h-128zM384 128v128h-128v-128h128zM384 640h128v-128h-384v128h256z" />
    <glyph glyph-name="uni1EAA" unicode="&#x1eaa;" 
d="M640 0v256h-384v-128h-128v-128h-128v128h128v256h128v384h128v128h128v-128h128v-384h128v-384h-128zM512 384v256h-128v-256h128zM512 1408h128v-128h-384v128h256z" />
    <glyph glyph-name="uni1EAB" unicode="&#x1eab;" horiz-adv-x="768" 
d="M384 768v128h128v-128h-128zM384 1024v128h128v-128h-128zM512 0h-384v384h512v-384h-128zM384 128v128h-128v-128h128zM384 640h128v-128h-384v128h256z" />
    <glyph glyph-name="uni1EAC" unicode="&#x1eac;" 
d="M384 -256v128h128v-128h-128zM640 0v256h-384v-128h-128v-128h-128v128h128v256h128v384h128v128h128v-128h128v-384h128v-384h-128zM512 384v256h-128v-256h128z" />
    <glyph glyph-name="uni1EAD" unicode="&#x1ead;" horiz-adv-x="768" 
d="M256 -256v128h128v-128h-128zM384 768v128h128v-128h-128zM512 0h-384v384h512v-384h-128zM384 128v128h-128v-128h128zM384 640h128v-128h-384v128h256z" />
    <glyph glyph-name="uni1EAE" unicode="&#x1eae;" 
d="M640 0v256h-384v-128h-128v-128h-128v128h128v256h128v384h128v128h128v-128h128v-384h128v-384h-128zM512 1024v128h128v-128h-128zM256 1024v128h128v-128h-128zM512 1280v128h128v-128h-128zM512 384v256h-128v-256h128z" />
    <glyph glyph-name="uni1EAF" unicode="&#x1eaf;" horiz-adv-x="768" 
d="M384 768v128h128v-128h-128zM128 768v128h128v-128h-128zM512 0h-384v384h512v-384h-128zM384 128v128h-128v-128h128zM384 640h128v-128h-384v128h256z" />
    <glyph glyph-name="uni1EB0" unicode="&#x1eb0;" 
d="M640 0v256h-384v-128h-128v-128h-128v128h128v256h128v384h128v128h128v-128h128v-384h128v-384h-128zM512 1024v128h128v-128h-128zM256 1024v128h128v-128h-128zM256 1280v128h128v-128h-128zM512 384v256h-128v-256h128z" />
    <glyph glyph-name="uni1EB1" unicode="&#x1eb1;" horiz-adv-x="768" 
d="M384 768v128h128v-128h-128zM128 768v128h128v-128h-128zM256 1024v128h128v-128h-128zM512 0h-384v384h512v-384h-128zM384 128v128h-128v-128h128zM384 640h128v-128h-384v128h256z" />
    <glyph glyph-name="uni1EB2" unicode="&#x1eb2;" 
d="M640 0v256h-384v-128h-128v-128h-128v128h128v256h128v384h128v128h128v-128h128v-384h128v-384h-128zM512 1024v128h128v-128h-128zM256 1024v128h128v-128h-128zM512 384v256h-128v-256h128z" />
    <glyph glyph-name="uni1EB3" unicode="&#x1eb3;" horiz-adv-x="768" 
d="M384 768v128h128v-128h-128zM128 768v128h128v-128h-128zM512 0h-384v384h512v-384h-128zM384 128v128h-128v-128h128zM384 640h128v-128h-384v128h256z" />
    <glyph glyph-name="uni1EB4" unicode="&#x1eb4;" 
d="M640 0v256h-384v-128h-128v-128h-128v128h128v256h128v384h128v128h128v-128h128v-384h128v-384h-128zM512 1024v128h128v-128h-128zM256 1024v128h128v-128h-128zM256 1280v128h128v-128h-128zM512 384v256h-128v-256h128z" />
    <glyph glyph-name="uni1EB5" unicode="&#x1eb5;" horiz-adv-x="768" 
d="M384 768v128h128v-128h-128zM128 768v128h128v-128h-128zM384 1024v128h128v-128h-128zM512 0h-384v384h512v-384h-128zM384 128v128h-128v-128h128zM384 640h128v-128h-384v128h256z" />
    <glyph glyph-name="uni1EB6" unicode="&#x1eb6;" 
d="M384 -256v128h128v-128h-128zM640 0v256h-384v-128h-128v-128h-128v128h128v256h128v384h128v128h128v-128h128v-384h128v-384h-128zM512 1024v128h128v-128h-128zM256 1024v128h128v-128h-128zM512 384v256h-128v-256h128z" />
    <glyph glyph-name="uni1EB7" unicode="&#x1eb7;" horiz-adv-x="768" 
d="M256 -256v128h128v-128h-128zM384 768v128h128v-128h-128zM128 768v128h128v-128h-128zM512 0h-384v384h512v-384h-128zM384 128v128h-128v-128h128zM384 640h128v-128h-384v128h256z" />
    <glyph glyph-name="uni1EB8" unicode="&#x1eb8;" horiz-adv-x="768" 
d="M512 128h128v-128h-512v896h512v-128h-384v-256h384v-128h-384v-256h256z" />
    <glyph glyph-name="uni1EB9" unicode="&#x1eb9;" horiz-adv-x="768" 
d="M384 128h128v-128h-384v256h-128v128h128v256h384v-128h-256v-128h256v128h128v-256h-384v-128h128z" />
    <glyph glyph-name="uni1EBA" unicode="&#x1eba;" horiz-adv-x="768" 
d="M384 1024v128h128v-128h-128zM512 128h128v-128h-512v896h512v-128h-384v-256h384v-128h-384v-256h256z" />
    <glyph glyph-name="uni1EBB" unicode="&#x1ebb;" horiz-adv-x="768" 
d="M384 768v128h128v-128h-128zM384 128h128v-128h-384v256h-128v128h128v256h384v-128h-256v-128h256v128h128v-256h-384v-128h128z" />
    <glyph glyph-name="uni1EBC" unicode="&#x1ebc;" horiz-adv-x="768" 
d="M512 1024v128h128v-128h-128zM512 128h128v-128h-512v896h512v-128h-384v-256h384v-128h-384v-256h256z" />
    <glyph glyph-name="uni1EBD" unicode="&#x1ebd;" horiz-adv-x="768" 
d="M256 768v128h128v-128h-128zM384 128h128v-128h-384v256h-128v128h128v256h384v-128h-256v-128h256v128h128v-256h-384v-128h128z" />
    <glyph glyph-name="uni1EBE" unicode="&#x1ebe;" horiz-adv-x="768" 
d="M384 1280v128h128v-128h-128zM512 128h128v-128h-512v896h512v-128h-384v-256h384v-128h-384v-256h256zM384 1152h128v-128h-256v128h128z" />
    <glyph glyph-name="uni1EBF" unicode="&#x1ebf;" horiz-adv-x="768" 
d="M384 128h128v-128h-384v256h-128v128h128v256h384v-128h-256v-128h256v128h128v-256h-384v-128h128zM384 896h128v-128h-256v128h128z" />
    <glyph glyph-name="uni1EC0" unicode="&#x1ec0;" horiz-adv-x="768" 
d="M256 1280v128h128v-128h-128zM512 128h128v-128h-512v896h512v-128h-384v-256h384v-128h-384v-256h256zM384 1152h128v-128h-256v128h128z" />
    <glyph glyph-name="uni1EC1" unicode="&#x1ec1;" horiz-adv-x="768" 
d="M384 128h128v-128h-384v256h-128v128h128v256h384v-128h-256v-128h256v128h128v-256h-384v-128h128zM384 896h128v-128h-256v128h128z" />
    <glyph glyph-name="uni1EC2" unicode="&#x1ec2;" horiz-adv-x="768" 
d="M384 1280v128h128v-128h-128zM512 128h128v-128h-512v896h512v-128h-384v-256h384v-128h-384v-256h256zM384 1152h128v-128h-256v128h128z" />
    <glyph glyph-name="uni1EC3" unicode="&#x1ec3;" horiz-adv-x="768" 
d="M384 128h128v-128h-384v256h-128v128h128v256h384v-128h-256v-128h256v128h128v-256h-384v-128h128zM384 896h128v-128h-256v128h128z" />
    <glyph glyph-name="uni1EC4" unicode="&#x1ec4;" horiz-adv-x="768" 
d="M512 1280v128h128v-128h-128zM256 1280v128h128v-128h-128zM512 128h128v-128h-512v896h512v-128h-384v-256h384v-128h-384v-256h256zM384 1152h128v-128h-256v128h128z" />
    <glyph glyph-name="uni1EC5" unicode="&#x1ec5;" horiz-adv-x="768" 
d="M384 1024v128h128v-128h-128zM384 128h128v-128h-384v256h-128v128h128v256h384v-128h-256v-128h256v128h128v-256h-384v-128h128zM384 896h128v-128h-256v128h128z" />
    <glyph glyph-name="uni1EC6" unicode="&#x1ec6;" horiz-adv-x="768" 
d="M512 128h128v-128h-512v896h512v-128h-384v-256h384v-128h-384v-256h256zM384 1152h128v-128h-256v128h128z" />
    <glyph glyph-name="uni1EC7" unicode="&#x1ec7;" horiz-adv-x="768" 
d="M384 128h128v-128h-384v256h-128v128h128v256h384v-128h-256v-128h256v128h128v-256h-384v-128h128zM384 896h128v-128h-256v128h128z" />
    <glyph glyph-name="uni1EC8" unicode="&#x1ec8;" horiz-adv-x="384" 
d="M128 0v896h128v-896h-128zM128 1152v128h128v-128h-128z" />
    <glyph glyph-name="uni1EC9" unicode="&#x1ec9;" horiz-adv-x="384" 
d="M128 0v640h128v-640h-128z" />
    <glyph glyph-name="uni1ECA" unicode="&#x1eca;" horiz-adv-x="384" 
d="M128 -256v128h128v-128h-128zM128 0v896h128v-896h-128z" />
    <glyph glyph-name="uni1ECB" unicode="&#x1ecb;" horiz-adv-x="384" 
d="M128 -256v128h128v-128h-128zM128 0v640h128v-640h-128zM128 768v128h128v-128h-128z" />
    <glyph glyph-name="uni1ECC" unicode="&#x1ecc;" horiz-adv-x="1152" 
d="M640 128h128v-128h-512v128h384zM768 128v256h128v256h128v-384h-128v-128h-128zM256 128h-128v640h128v-640zM896 640h-128v128h128v-128zM768 768h-512v128h512v-128z" />
    <glyph glyph-name="uni1ECD" unicode="&#x1ecd;" 
d="M512 0h-384v256h128v-128h256v128h128v-256h-128zM640 256v128h128v-128h-128zM128 256h-128v128h128v-128zM640 384h-128v128h-256v-128h-128v256h512v-256z" />
    <glyph glyph-name="uni1ECE" unicode="&#x1ece;" horiz-adv-x="1152" 
d="M512 1024v128h128v-128h-128zM640 128h128v-128h-512v128h384zM768 128v256h128v256h128v-384h-128v-128h-128zM256 128h-128v640h128v-640zM896 640h-128v128h128v-128zM768 768h-512v128h512v-128z" />
    <glyph glyph-name="uni1ECF" unicode="&#x1ecf;" 
d="M384 768v128h128v-128h-128zM512 0h-384v256h128v-128h256v128h128v-256h-128zM640 256v128h128v-128h-128zM128 256h-128v128h128v-128zM640 384h-128v128h-256v-128h-128v256h512v-256z" />
    <glyph glyph-name="uni1ED0" unicode="&#x1ed0;" horiz-adv-x="1152" 
d="M512 1280v128h128v-128h-128zM640 128h128v-128h-512v128h384zM768 128v256h128v256h128v-384h-128v-128h-128zM256 128h-128v640h128v-640zM896 640h-128v128h128v-128zM768 768h-512v128h512v-128zM512 1152h128v-128h-256v128h128z" />
    <glyph glyph-name="uni1ED1" unicode="&#x1ed1;" 
d="M512 0h-384v256h128v-128h256v128h128v-256h-128zM640 256v128h128v-128h-128zM128 256h-128v128h128v-128zM640 384h-128v128h-256v-128h-128v256h512v-256zM384 896h128v-128h-256v128h128z" />
    <glyph glyph-name="uni1ED2" unicode="&#x1ed2;" horiz-adv-x="1152" 
d="M384 1280v128h128v-128h-128zM640 128h128v-128h-512v128h384zM768 128v256h128v256h128v-384h-128v-128h-128zM256 128h-128v640h128v-640zM896 640h-128v128h128v-128zM768 768h-512v128h512v-128zM512 1152h128v-128h-256v128h128z" />
    <glyph glyph-name="uni1ED3" unicode="&#x1ed3;" 
d="M256 1024v128h128v-128h-128zM512 0h-384v256h128v-128h256v128h128v-256h-128zM640 256v128h128v-128h-128zM128 256h-128v128h128v-128zM640 384h-128v128h-256v-128h-128v256h512v-256zM384 896h128v-128h-256v128h128z" />
    <glyph glyph-name="uni1ED4" unicode="&#x1ed4;" horiz-adv-x="1152" 
d="M512 1280v128h128v-128h-128zM640 128h128v-128h-512v128h384zM768 128v256h128v256h128v-384h-128v-128h-128zM256 128h-128v640h128v-640zM896 640h-128v128h128v-128zM768 768h-512v128h512v-128zM512 1152h128v-128h-256v128h128z" />
    <glyph glyph-name="uni1ED5" unicode="&#x1ed5;" 
d="M512 0h-384v256h128v-128h256v128h128v-256h-128zM640 256v128h128v-128h-128zM128 256h-128v128h128v-128zM640 384h-128v128h-256v-128h-128v256h512v-256zM384 896h128v-128h-256v128h128z" />
    <glyph glyph-name="uni1ED6" unicode="&#x1ed6;" horiz-adv-x="1152" 
d="M640 1280v128h128v-128h-128zM384 1280v128h128v-128h-128zM640 128h128v-128h-512v128h384zM768 128v256h128v256h128v-384h-128v-128h-128zM256 128h-128v640h128v-640zM896 640h-128v128h128v-128zM768 768h-512v128h512v-128zM512 1152h128v-128h-256v128h128z" />
    <glyph glyph-name="uni1ED7" unicode="&#x1ed7;" 
d="M384 1024v128h128v-128h-128zM512 0h-384v256h128v-128h256v128h128v-256h-128zM640 256v128h128v-128h-128zM128 256h-128v128h128v-128zM640 384h-128v128h-256v-128h-128v256h512v-256zM384 896h128v-128h-256v128h128z" />
    <glyph glyph-name="uni1ED8" unicode="&#x1ed8;" horiz-adv-x="1152" 
d="M640 128h128v-128h-512v128h384zM768 128v256h128v256h128v-384h-128v-128h-128zM256 128h-128v640h128v-640zM896 640h-128v128h128v-128zM768 768h-512v128h512v-128zM512 1152h128v-128h-256v128h128z" />
    <glyph glyph-name="uni1ED9" unicode="&#x1ed9;" 
d="M512 0h-384v256h128v-128h256v128h128v-256h-128zM640 256v128h128v-128h-128zM128 256h-128v128h128v-128zM640 384h-128v128h-256v-128h-128v256h512v-256zM384 896h128v-128h-256v128h128z" />
    <glyph glyph-name="uni1EDA" unicode="&#x1eda;" horiz-adv-x="1152" 
d="M512 1024v128h128v-128h-128zM640 128h128v-128h-512v128h384zM768 128v256h128v256h128v-384h-128v-128h-128zM256 128h-128v640h128v-640zM896 640h-128v128h128v-128zM896 768v128h128v-128h-128zM768 768h-512v128h512v-128z" />
    <glyph glyph-name="uni1EDB" unicode="&#x1edb;" 
d="M384 768v128h128v-128h-128zM512 0h-384v256h128v-128h256v128h128v-256h-128zM640 256v128h128v-128h-128zM128 256h-128v128h128v-128zM640 384h-128v128h-256v-128h-128v256h640v-128h-128v-128z" />
    <glyph glyph-name="uni1EDC" unicode="&#x1edc;" horiz-adv-x="1152" 
d="M384 1024v128h128v-128h-128zM640 128h128v-128h-512v128h384zM768 128v256h128v256h128v-384h-128v-128h-128zM256 128h-128v640h128v-640zM896 640h-128v128h128v-128zM896 768v128h128v-128h-128zM768 768h-512v128h512v-128z" />
    <glyph glyph-name="uni1EDD" unicode="&#x1edd;" 
d="M256 768v128h128v-128h-128zM512 0h-384v256h128v-128h256v128h128v-256h-128zM640 256v128h128v-128h-128zM128 256h-128v128h128v-128zM640 384h-128v128h-256v-128h-128v256h640v-128h-128v-128z" />
    <glyph glyph-name="uni1EDE" unicode="&#x1ede;" horiz-adv-x="1152" 
d="M512 1024v128h128v-128h-128zM640 128h128v-128h-512v128h384zM768 128v256h128v256h128v-384h-128v-128h-128zM256 128h-128v640h128v-640zM896 640h-128v128h128v-128zM896 768v128h128v-128h-128zM768 768h-512v128h512v-128z" />
    <glyph glyph-name="uni1EDF" unicode="&#x1edf;" 
d="M384 768v128h128v-128h-128zM512 0h-384v256h128v-128h256v128h128v-256h-128zM640 256v128h128v-128h-128zM128 256h-128v128h128v-128zM640 384h-128v128h-256v-128h-128v256h640v-128h-128v-128z" />
    <glyph glyph-name="uni1EE0" unicode="&#x1ee0;" horiz-adv-x="1152" 
d="M640 1024v128h128v-128h-128zM640 128h128v-128h-512v128h384zM768 128v256h128v256h128v-384h-128v-128h-128zM256 128h-128v640h128v-640zM896 640h-128v128h128v-128zM896 768v128h128v-128h-128zM768 768h-512v128h512v-128z" />
    <glyph glyph-name="uni1EE1" unicode="&#x1ee1;" 
d="M256 768v128h128v-128h-128zM512 0h-384v256h128v-128h256v128h128v-256h-128zM640 256v128h128v-128h-128zM128 256h-128v128h128v-128zM640 384h-128v128h-256v-128h-128v256h640v-128h-128v-128z" />
    <glyph glyph-name="uni1EE2" unicode="&#x1ee2;" horiz-adv-x="1152" 
d="M640 128h128v-128h-512v128h384zM768 128v256h128v256h128v-384h-128v-128h-128zM256 128h-128v640h128v-640zM896 640h-128v128h128v-128zM896 768v128h128v-128h-128zM768 768h-512v128h512v-128z" />
    <glyph glyph-name="uni1EE3" unicode="&#x1ee3;" 
d="M512 0h-384v256h128v-128h256v128h128v-256h-128zM640 256v128h128v-128h-128zM128 256h-128v128h128v-128zM640 384h-128v128h-256v-128h-128v256h640v-128h-128v-128z" />
    <glyph glyph-name="uni1EE4" unicode="&#x1ee4;" 
d="M384 -256v128h128v-128h-128zM512 128h128v-128h-384v128h256zM640 128v768h128v-768h-128zM256 128h-128v768h128v-768z" />
    <glyph glyph-name="uni1EE5" unicode="&#x1ee5;" horiz-adv-x="768" 
d="M512 0h-384v640h128v-512h256v512h128v-640h-128z" />
    <glyph glyph-name="uni1EE6" unicode="&#x1ee6;" 
d="M384 1152v128h128v-128h-128zM512 128h128v-128h-384v128h256zM640 128v768h128v-768h-128zM256 128h-128v768h128v-768z" />
    <glyph glyph-name="uni1EE7" unicode="&#x1ee7;" horiz-adv-x="768" 
d="M384 768v128h128v-128h-128zM512 0h-384v640h128v-512h256v512h128v-640h-128z" />
    <glyph glyph-name="uni1EE8" unicode="&#x1ee8;" horiz-adv-x="1024" 
d="M512 128h128v-128h-384v128h256zM640 128v768h256v-128h-128v-640h-128zM256 128h-128v768h128v-768z" />
    <glyph glyph-name="uni1EE9" unicode="&#x1ee9;" 
d="M384 768v128h128v-128h-128zM512 0h-384v640h128v-512h256v512h256v-128h-128v-512h-128z" />
    <glyph glyph-name="uni1EEA" unicode="&#x1eea;" horiz-adv-x="1024" 
d="M512 128h128v-128h-384v128h256zM640 128v768h256v-128h-128v-640h-128zM256 128h-128v768h128v-768z" />
    <glyph glyph-name="uni1EEB" unicode="&#x1eeb;" 
d="M256 768v128h128v-128h-128zM512 0h-384v640h128v-512h256v512h256v-128h-128v-512h-128z" />
    <glyph glyph-name="uni1EEC" unicode="&#x1eec;" horiz-adv-x="1024" 
d="M384 1152v128h128v-128h-128zM512 128h128v-128h-384v128h256zM640 128v768h256v-128h-128v-640h-128zM256 128h-128v768h128v-768z" />
    <glyph glyph-name="uni1EED" unicode="&#x1eed;" 
d="M384 768v128h128v-128h-128zM512 0h-384v640h128v-512h256v512h256v-128h-128v-512h-128z" />
    <glyph glyph-name="uni1EEE" unicode="&#x1eee;" horiz-adv-x="1024" 
d="M512 128h128v-128h-384v128h256zM640 128v768h256v-128h-128v-640h-128zM256 128h-128v768h128v-768zM512 1152h128v-128h-384v128h256z" />
    <glyph glyph-name="uni1EEF" unicode="&#x1eef;" 
d="M256 768v128h128v-128h-128zM512 0h-384v640h128v-512h256v512h256v-128h-128v-512h-128z" />
    <glyph glyph-name="uni1EF0" unicode="&#x1ef0;" horiz-adv-x="1024" 
d="M384 -256v128h128v-128h-128zM512 128h128v-128h-384v128h256zM640 128v768h256v-128h-128v-640h-128zM256 128h-128v768h128v-768z" />
    <glyph glyph-name="uni1EF1" unicode="&#x1ef1;" 
d="M512 0h-384v640h128v-512h256v512h256v-128h-128v-512h-128z" />
    <glyph glyph-name="Ygrave" unicode="&#x1ef2;" horiz-adv-x="768" 
d="M256 1024v128h128v-128h-128zM384 0h-128v640h256v-640h-128zM512 640v256h128v-256h-128zM256 640h-128v256h128v-256z" />
    <glyph glyph-name="ygrave" unicode="&#x1ef3;" horiz-adv-x="768" 
d="M128 -256v128h128v-128h-128zM256 -128v384h128v256h128v-384h-128v-256h-128zM256 256h-128v256h128v-256zM512 512v128h128v-128h-128zM128 512h-128v128h128v-128z" />
    <glyph glyph-name="uni1EF4" unicode="&#x1ef4;" horiz-adv-x="768" 
d="M384 0h-128v640h256v-640h-128zM512 640v256h128v-256h-128zM256 640h-128v256h128v-256z" />
    <glyph glyph-name="uni1EF5" unicode="&#x1ef5;" horiz-adv-x="768" 
d="M128 -256v128h128v-128h-128zM256 -128v384h128v256h128v-384h-128v-256h-128zM256 256h-128v256h128v-256zM512 512v128h128v-128h-128zM128 512h-128v128h128v-128z" />
    <glyph glyph-name="uni1EF6" unicode="&#x1ef6;" horiz-adv-x="768" 
d="M384 1024v128h128v-128h-128zM384 0h-128v640h256v-640h-128zM512 640v256h128v-256h-128zM256 640h-128v256h128v-256z" />
    <glyph glyph-name="uni1EF7" unicode="&#x1ef7;" horiz-adv-x="768" 
d="M128 -256v128h128v-128h-128zM256 -128v384h128v256h128v-384h-128v-256h-128zM256 256h-128v256h128v-256zM512 512v128h128v-128h-128zM128 512h-128v128h128v-128z" />
    <glyph glyph-name="uni1EF8" unicode="&#x1ef8;" horiz-adv-x="768" 
d="M512 1024v128h128v-128h-128zM384 0h-128v640h256v-640h-128zM512 640v256h128v-256h-128zM256 640h-128v256h128v-256z" />
    <glyph glyph-name="uni1EF9" unicode="&#x1ef9;" horiz-adv-x="768" 
d="M128 -256v128h128v-128h-128zM256 -128v384h128v256h128v-384h-128v-256h-128zM256 256h-128v256h128v-256zM512 512v128h128v-128h-128zM128 512h-128v128h128v-128zM384 896h128v-128h-384v128h256z" />
    <glyph glyph-name="endash" unicode="&#x2013;" 
d="M640 384h128v-128h-640v128h512z" />
    <glyph glyph-name="emdash" unicode="&#x2014;" horiz-adv-x="1536" 
d="M1280 384h128v-128h-1280v128h1152z" />
    <glyph glyph-name="quoteleft" unicode="&#x2018;" horiz-adv-x="384" 
d="M128 512v384h128v-384h-128z" />
    <glyph glyph-name="quoteright" unicode="&#x2019;" horiz-adv-x="384" 
d="M128 512v384h128v-384h-128z" />
    <glyph glyph-name="quotesinglbase" unicode="&#x201a;" horiz-adv-x="384" 
d="M128 -128v256h128v-256h-128z" />
    <glyph glyph-name="quotedblleft" unicode="&#x201c;" horiz-adv-x="640" 
d="M384 512v384h128v-384h-128zM128 512v384h128v-384h-128z" />
    <glyph glyph-name="quotedblright" unicode="&#x201d;" horiz-adv-x="640" 
d="M384 512v384h128v-384h-128zM128 512v384h128v-384h-128z" />
    <glyph glyph-name="quotedblbase" unicode="&#x201e;" horiz-adv-x="640" 
d="M384 -128v256h128v-256h-128zM128 -128v256h128v-256h-128z" />
    <glyph glyph-name="dagger" unicode="&#x2020;" horiz-adv-x="640" 
d="M256 -128v640h-128v128h128v256h128v-256h128v-128h-128v-640h-128z" />
    <glyph glyph-name="daggerdbl" unicode="&#x2021;" horiz-adv-x="640" 
d="M256 -128v128h-128v128h128v384h-128v128h128v256h128v-256h128v-128h-128v-384h128v-128h-128v-128h-128z" />
    <glyph glyph-name="bullet" unicode="&#x2022;" horiz-adv-x="512" 
d="M256 256h-128v256h128v128h128v-384h-128z" />
    <glyph glyph-name="ellipsis" unicode="&#x2026;" horiz-adv-x="1152" 
d="M896 0v128h128v-128h-128zM512 0v128h128v-128h-128zM128 0v128h128v-128h-128z" />
    <glyph glyph-name="perthousand" unicode="&#x2030;" horiz-adv-x="1536" 
d="M256 0v256h128v-256h-128zM1152 128h128v-128h-256v128h128zM768 0h-128v128h-128v128h128v128h256v-384h-128zM1280 128v128h128v-128h-128zM768 128v128h-128v-128h128zM1280 256h-256v128h256v-128zM512 256h-128v256h128v-256zM512 512v256h128v-256h-128zM384 512
h-256v128h256v-128zM640 768v128h128v-128h-128zM256 896h128v-128h-256v128h128z" />
    <glyph glyph-name="guilsinglleft" unicode="&#x2039;" horiz-adv-x="384" 
d="M128 256v128h128v-128h-128z" />
    <glyph glyph-name="guilsinglright" unicode="&#x203a;" horiz-adv-x="384" 
d="M128 256v128h128v-128h-128zM128 512v128h128v-128h-128z" />
    <glyph glyph-name="fraction" unicode="&#x2044;" horiz-adv-x="512" 
d="M-128 0v128h128v-128h-128zM0 256v128h128v-128h-128zM128 512v128h128v-128h-128zM256 768v128h128v-128h-128z" />
    <glyph glyph-name="Euro" unicode="&#x20ac;" horiz-adv-x="1024" 
d="M768 640v128h128v-128h-128zM640 128h128v-128h-384v128h256zM768 128v128h128v-128h-128zM384 128h-128v128h-128v128h128v128h-128v128h128v128h128v-128h256v-128h-256v-128h256v-128h-256v-128zM768 768h-384v128h384v-128z" />
    <glyph glyph-name="afii61289" unicode="&#x2113;" horiz-adv-x="768" 
d="M512 128h128v-128h-384v128h256zM256 128h-128v640h128v-256h128v128h128v-256h-128v-128h-128v-128zM384 896h128v-128h-256v128h128z" />
    <glyph glyph-name="afii61352" unicode="&#x2116;" horiz-adv-x="1920" 
d="M768 0v128h-128v256h128v512h128v-896h-128zM128 0v1024h128v-128h128v-128h128v-256h128v-128h-128v128h-128v128h-128v-640h-128zM1536 128h128v-128h-512v128h384zM1536 384h128v-128h-512v512h128v-384h256zM1664 384v384h128v-384h-128zM1664 768h-384v128h384v-128
z" />
    <glyph glyph-name="trademark" unicode="&#x2122;" horiz-adv-x="1024" 
d="M768 640v384h128v-384h-128zM384 640v256h256v-128h-128v-128h-128zM128 640v384h128v-384h-128z" />
    <glyph glyph-name="estimated" unicode="&#x212e;" horiz-adv-x="1280" 
d="M128 256v512h128v-512h-128zM1024 512v256h128v-256h-128zM256 768v128h128v-128h-128z" />
    <glyph glyph-name="partialdiff" unicode="&#x2202;" horiz-adv-x="768" 
d="M384 128h128v-128h-384v512h128v-384h128zM512 128v384h-256v128h256v128h128v-640h-128zM512 768h-128v128h128v-128z" />
    <glyph glyph-name="emptyset" unicode="&#x2205;" horiz-adv-x="1024" 
d="M640 128h128v-128h-512v128h-128v512h128v-384h128v-128h256zM768 128v384h-128v-128h-128v-128h-128v128h128v128h128v128h-384v128h512v-128h128v-512h-128z" />
    <glyph glyph-name="product" unicode="&#x220f;" horiz-adv-x="1024" 
d="M768 0v768h-512v-768h-128v896h768v-896h-128z" />
    <glyph glyph-name="summation" unicode="&#x2211;" 
d="M640 128h128v-128h-640v256h128v128h128v256h128v-128h128v-128h-128v-128h-128v-128h256zM384 640h-128v128h128v-128zM256 768h-128v256h640v-128h-512v-128z" />
    <glyph glyph-name="minus" unicode="&#x2212;" horiz-adv-x="768" 
d="M512 512h128v-128h-512v128h384z" />
    <glyph glyph-name="radical" unicode="&#x221a;" 
d="M256 0v256h128v128h128v-256h-128v-128h-128zM128 384v128h128v-128h-128zM512 384v256h128v-256h-128zM640 640v256h128v-256h-128z" />
    <glyph glyph-name="infinity" unicode="&#x221e;" horiz-adv-x="1152" 
d="M896 256v256h128v-256h-128zM128 256v256h128v-256h-128zM512 256h-128v256h256v-256h-128z" />
    <glyph glyph-name="integral" unicode="&#x222b;" horiz-adv-x="640" 
d="M128 -256v128h128v-128h-128zM256 -128v1024h256v-128h-128v-896h-128z" />
    <glyph glyph-name="approxequal" unicode="&#x2248;" 
d="M512 128v128h128v-128h-128zM128 128v256h384v-128h-256v-128h-128zM640 256v128h128v-128h-128zM640 384h-128v128h128v-128zM640 512v128h128v-128h-128zM512 512h-384v128h384v-128z" />
    <glyph glyph-name="notequal" unicode="&#x2260;" horiz-adv-x="768" 
d="M128 0v128h128v-128h-128zM512 384h128v-128h-512v128h384zM512 512h-384v128h384v256h128v-384h-128z" />
    <glyph glyph-name="lessequal" unicode="&#x2264;" 
d="M640 0h-512v128h512v128h128v-256h-128zM640 256h-256v128h256v-128zM384 384h-256v256h128v-128h128v-128zM512 768h128v-128h-256v128h128zM640 768v128h128v-128h-128z" />
    <glyph glyph-name="greaterequal" unicode="&#x2265;" 
d="M384 640v128h128v-128h-128zM128 768v128h128v-128h-128zM640 128h128v-128h-640v256h128v-128h384zM384 384h128v-128h-256v128h128zM512 384v128h128v128h128v-256h-256z" />
    <glyph glyph-name="lozenge" unicode="&#x25ca;" 
d="M384 128v128h128v-128h-128zM512 256v128h128v-128h-128zM384 256h-128v128h128v-128zM640 384v256h128v-256h-128zM256 384h-128v256h128v-256zM640 640h-384v128h384v-128z" />
    <glyph glyph-name="uni3000" unicode="&#x3000;" horiz-adv-x="2048" 
 />
  </font>
</defs>
</svg>
